<svg width="94" height="19" viewBox="0 0 94 19" xmlns="http://www.w3.org/2000/svg">
    <path d="m21.715 0-2.803 9.94c-.194.546-.833.977-1.918 1.29-1.084.314-2.384.535-3.898.665-1.514.13-3.012.193-4.494.19-2.715-.013-4.88-.23-6.492-.656-1.612-.424-2.3-.985-2.065-1.682l.753-2.671h7.4l-.737 2.618c-.086.399.07.652.467.758.398.106.856.153 1.375.138.508.015.98-.032 1.418-.138.437-.106.724-.36.86-.758L14.313 0h7.4zm8.922 1.809c2.019 0 3.636.16 4.852.481 1.229.316 2.03.738 2.403 1.267.387.523.446 1.261.178 2.214l-.368 1.303h-9.315l-.6 2.126c-.125.444-.129.73-.01.86.118.127.397.192.836.192.546 0 .932-.084 1.158-.252.238-.173.426-.504.565-.993l.235-.833h6.821l-.074.263c-.171.607-.398 1.074-.68 1.4-.27.326-.795.674-1.576 1.044-.782.37-1.721.65-2.819.837-1.084.182-2.41.274-3.978.274-1.52 0-2.836-.092-3.948-.274-1.112-.183-1.95-.432-2.514-.748-.55-.32-.897-.672-1.04-1.052-.14-.385-.108-.943.098-1.673l.808-2.867c.243-.859.712-1.535 1.41-2.029.698-.498 1.72-.879 3.064-1.14 1.345-.267 2.844-.4 4.494-.4zm-.152 1.74c-.499 0-.826.064-.98.193-.154.123-.309.461-.464 1.014l-.203.719h2.102l.202-.719c.144-.508.17-.836.082-.985-.089-.148-.335-.222-.739-.222zm28.717-1.74c2.434 0 4.218.18 5.351.54 1.134.356 1.752.795 1.855 1.319.103.518-.074 1.59-.532 3.214l-1.39 4.932h-7l.246-.874c-.539.35-1.183.615-1.934.793-.737.172-1.587.259-2.548.259-1.26 0-2.376-.146-3.35-.437-.962-.296-1.303-.94-1.023-1.933l.228-.807c.207-.736.627-1.237 1.26-1.504.634-.266 2.104-.577 4.414-.933 2.471-.385 3.809-.644 4.013-.777.203-.134.363-.405.479-.815.145-.513.143-.847-.003-1-.134-.158-.414-.237-.842-.237-.487 0-.808.067-.965.2-.155.129-.31.467-.464 1.015l-.223.792h-6.75l.118-.422c.215-.76.587-1.345 1.119-1.755.544-.415 1.496-.78 2.856-1.096 1.359-.316 3.054-.474 5.085-.474zm27.257 0c2.38.013 4.277.247 5.691.702 1.414.456 2.017 1.057 1.81 1.805l-.66 2.866h-6.488l.648-2.81c.075-.427-.062-.698-.41-.812a3.488 3.488 0 0 0-1.205-.149 3.867 3.867 0 0 0-1.244.149c-.383.114-.634.385-.753.813l-2.09 7.445H75.27l2.15-7.709c.171-.586.731-1.048 1.682-1.384.95-.336 2.09-.574 3.417-.714 1.328-.139 2.64-.206 3.94-.202zM48.657 0l-.43 1.523h1.942l-.34 1.204h-1.94l-1.78 6.31c-.182.647-.207 1.007-.073 1.081.145.074.805.111 1.982.111l-.447 1.585h-2.904c-1.638 0-2.8-.027-3.485-.081-.684-.06-1.265-.19-1.742-.393-.476-.207-.743-.442-.8-.703-.055-.267.055-.889.331-1.867l1.704-6.043h-1.55l.34-1.204h1.55L41.443 0h7.213zm27.556 2.304-2.674 9.51h-7.41l2.674-9.51h7.41zM58.607 7.14c-1.251.35-2.005.644-2.261.881-.245.237-.43.578-.556 1.022-.143.51-.159.837-.046.985.124.149.424.223.9.223.45 0 .757-.057.92-.17.176-.12.334-.425.473-.92l.57-2.021zM76.859 0l-.344 1.216h-7.41L69.45 0h7.41zM1.983 18.898v-3.903H.525v-.632h3.66v.632H2.726v3.903h-.743zm2.843 0v-4.855h.71v1.951l-.21-.176c.175-.123.37-.221.584-.296.214-.075.422-.112.625-.112.265 0 .493.046.682.14.189.092.336.24.442.441.106.202.159.466.159.792v2.115h-.71v-2.026c0-.277-.065-.488-.195-.633-.131-.145-.324-.217-.581-.217-.135 0-.271.02-.409.06a1.9 1.9 0 0 0-.388.164l-.007 2.652h-.702zm5.45.102c-.334 0-.623-.068-.868-.204a1.365 1.365 0 0 1-.568-.605c-.132-.268-.199-.594-.199-.98 0-.593.139-1.043.416-1.349.276-.306.662-.46 1.158-.46.364 0 .659.082.884.246.225.163.388.39.49.683.101.292.15.634.145 1.023H9.067l-.02-.53h2.147l-.17.17c-.013-.349-.085-.604-.215-.765-.13-.16-.336-.241-.615-.241a.886.886 0 0 0-.459.112c-.126.075-.222.202-.287.38-.065.18-.098.426-.098.739 0 .38.088.67.264.867.175.197.434.295.776.295.153 0 .296-.013.429-.04.133-.028.255-.063.368-.106.112-.043.21-.085.29-.126v.66a2.892 2.892 0 0 1-.533.166 3.165 3.165 0 0 1-.669.065m5.328-.102-1.425-3.414h.756l1.162 2.836-.169.02 1.08-2.856h.737l-1.432 3.414h-.709zM19.54 19a2.46 2.46 0 0 1-.507-.051 1.371 1.371 0 0 1-.442-.174.89.89 0 0 1-.317-.336 1.092 1.092 0 0 1-.119-.534c0-.254.05-.462.149-.625.099-.164.24-.286.425-.368.185-.081.406-.122.662-.122.171 0 .325.014.463.04.137.028.26.066.371.113.11.048.204.1.28.16l.075.469a1.377 1.377 0 0 0-.399-.173 1.96 1.96 0 0 0-.54-.072c-.257 0-.451.046-.584.136-.133.091-.2.227-.2.408a.47.47 0 0 0 .116.33.668.668 0 0 0 .286.184c.115.038.236.057.362.057.265 0 .461-.018.587-.054.126-.036.19-.12.19-.252v-1.428c0-.24-.073-.415-.217-.526-.144-.112-.349-.167-.614-.167-.19 0-.385.03-.588.092-.202.061-.369.146-.5.255v-.667c.127-.086.31-.155.55-.207.242-.052.49-.078.747-.078.126 0 .253.012.381.037.129.025.25.064.362.116.112.052.212.122.3.21a.934.934 0 0 1 .206.323c.05.128.074.277.074.45v1.631c0 .222-.068.394-.205.514-.138.12-.323.201-.557.244-.235.043-.5.065-.797.065m2.559-.102h.702v-4.705h-.702v4.705zm3.2.102c-.31 0-.577-.051-.8-.153a1.136 1.136 0 0 1-.516-.459c-.122-.204-.183-.458-.183-.762v-2.142h.71v2.04c0 .29.064.505.192.643s.327.207.597.207c.27 0 .47-.069.598-.207.128-.138.193-.352.193-.643v-2.04h.682v2.142c0 .454-.13.796-.389 1.027-.259.231-.62.347-1.084.347m3.93 0c-.333 0-.622-.068-.867-.204a1.365 1.365 0 0 1-.567-.605c-.133-.268-.2-.594-.2-.98 0-.593.139-1.043.416-1.349.276-.306.662-.46 1.158-.46.364 0 .66.082.884.246.225.163.389.39.49.683.101.292.15.634.145 1.023H28.02l-.02-.53h2.147l-.17.17c-.013-.349-.085-.604-.215-.765-.13-.16-.336-.241-.615-.241a.886.886 0 0 0-.459.112c-.126.075-.222.202-.287.38-.065.18-.098.426-.098.739 0 .38.088.67.264.867.175.197.434.295.776.295.153 0 .296-.013.429-.04.133-.028.255-.063.368-.106.112-.043.21-.085.29-.126v.66a2.9 2.9 0 0 1-.533.166 3.166 3.166 0 0 1-.669.065m5.639-.605c.23 0 .411-.051.547-.153a.857.857 0 0 0 .293-.425c.061-.181.091-.39.091-.626 0-.263-.031-.482-.094-.66a.762.762 0 0 0-.297-.397c-.135-.088-.315-.133-.54-.133-.226 0-.405.048-.54.143a.783.783 0 0 0-.291.408c-.058.177-.088.39-.088.64 0 .375.07.67.21.883.14.213.375.32.709.32m.006.605c-.549 0-.957-.156-1.225-.47-.268-.312-.402-.759-.402-1.339 0-.616.138-1.068.415-1.356.277-.288.677-.432 1.199-.432.374 0 .682.07.925.207.243.139.423.341.54.609.117.267.176.592.176.972 0 .576-.141 1.021-.422 1.336-.282.316-.683.473-1.206.473m2.451-3.237c.1-.05.21-.096.335-.139a4.342 4.342 0 0 1 .82-.187c.144-.018.284-.027.419-.027.32 0 .58.044.783.132a.91.91 0 0 1 .452.408c.1.184.149.414.149.69v2.258h-.709v-2.162c0-.086-.01-.171-.03-.255a.588.588 0 0 0-.115-.232.562.562 0 0 0-.243-.166 1.175 1.175 0 0 0-.416-.061 2.16 2.16 0 0 0-.736.129v2.747h-.709v-3.135zm5.895 3.135v-3.393h.71l.006 3.393h-.716zm-.02-3.957h.756v-.646H43.2v.646zm2.964 4.045c-.306 0-.548-.081-.726-.244-.177-.164-.266-.404-.266-.721v-1.945h-.547v-.592h.547v-.951h.73v.951h.823v.592H45.9v1.802c0 .159.028.278.084.357.057.08.161.12.314.12a.89.89 0 0 0 .426-.11v.633c-.081.036-.172.063-.274.081a1.636 1.636 0 0 1-.287.027m2.613.014a2.46 2.46 0 0 1-.506-.051 1.372 1.372 0 0 1-.442-.174.894.894 0 0 1-.318-.336 1.095 1.095 0 0 1-.118-.534c0-.254.05-.462.149-.625a.917.917 0 0 1 .425-.368 1.63 1.63 0 0 1 .662-.122c.171 0 .325.014.462.04.138.028.262.066.372.113.11.048.203.1.28.16l.074.469a1.376 1.376 0 0 0-.398-.173 1.96 1.96 0 0 0-.54-.072c-.257 0-.452.046-.584.136-.133.091-.2.227-.2.408a.47.47 0 0 0 .115.33.668.668 0 0 0 .287.184c.115.038.236.057.361.057.266 0 .462-.018.588-.054.126-.036.19-.12.19-.252v-1.428c0-.24-.073-.415-.217-.526-.144-.112-.349-.167-.615-.167-.189 0-.384.03-.587.092-.203.061-.37.146-.5.255v-.667c.126-.086.31-.155.55-.207.241-.052.49-.078.747-.078.126 0 .253.012.381.037.129.025.249.064.362.116.112.052.212.122.3.21a.938.938 0 0 1 .206.323c.05.128.074.277.074.45v1.631c0 .222-.068.394-.206.514-.137.12-.323.201-.557.244-.234.043-.5.065-.797.065m2.56-.102h.702v-4.705h-.702v4.705zm1.721 0v-3.393h.71l.006 3.393h-.716zm-.02-3.957h.756v-.646h-.756v.646zM56.023 19a2.46 2.46 0 0 1-.507-.051 1.371 1.371 0 0 1-.442-.174.891.891 0 0 1-.317-.336 1.093 1.093 0 0 1-.119-.534c0-.254.05-.462.15-.625a.916.916 0 0 1 .424-.368c.185-.081.406-.122.662-.122.171 0 .325.014.463.04.137.028.26.066.371.113.11.048.204.1.28.16l.074.469a1.374 1.374 0 0 0-.398-.173 1.96 1.96 0 0 0-.54-.072c-.257 0-.451.046-.584.136-.133.091-.2.227-.2.408a.47.47 0 0 0 .116.33.669.669 0 0 0 .287.184c.114.038.235.057.36.057.266 0 .462-.018.588-.054.126-.036.19-.12.19-.252v-1.428c0-.24-.073-.415-.217-.526-.144-.112-.349-.167-.614-.167-.19 0-.385.03-.588.092-.202.061-.369.146-.5.255v-.667c.126-.086.31-.155.55-.207.242-.052.49-.078.747-.078.126 0 .253.012.382.037.128.025.248.064.36.116.113.052.214.122.301.21a.936.936 0 0 1 .206.323c.05.128.074.277.074.45v1.631c0 .222-.068.394-.205.514-.138.12-.323.201-.557.244-.235.043-.5.065-.797.065m2.559-3.237c.099-.05.21-.096.334-.139a4.342 4.342 0 0 1 .82-.187c.145-.018.284-.027.42-.027.319 0 .58.044.782.132a.91.91 0 0 1 .453.408c.099.184.148.414.148.69v2.258h-.709v-2.162c0-.086-.01-.171-.03-.255a.59.59 0 0 0-.115-.232.562.562 0 0 0-.243-.166 1.173 1.173 0 0 0-.415-.061 2.161 2.161 0 0 0-.736.129v2.747h-.71v-3.135zm7.083 3.223c-.306 0-.548-.081-.726-.244-.178-.164-.266-.404-.266-.721v-1.945h-.547v-.592h.547v-.951h.729v.951h.824v.592h-.824v1.802c0 .159.028.278.084.357.056.08.161.12.314.12a.889.889 0 0 0 .426-.11v.633a1.17 1.17 0 0 1-.274.081 1.636 1.636 0 0 1-.287.027m1.384-.088v-3.1c.059-.037.167-.087.324-.15.158-.064.345-.12.56-.167.217-.047.435-.071.656-.071.112 0 .205.009.277.027.072.018.132.039.182.061v.571a4.733 4.733 0 0 0-.324-.03 2.794 2.794 0 0 0-.338 0 5.22 5.22 0 0 0-.33.03l-.298.04v2.789h-.709zm3.923.102c-.175 0-.344-.017-.506-.051a1.373 1.373 0 0 1-.442-.174.894.894 0 0 1-.318-.336 1.093 1.093 0 0 1-.118-.534c0-.254.05-.462.149-.625a.917.917 0 0 1 .425-.368 1.63 1.63 0 0 1 .662-.122c.17 0 .325.014.462.04.138.028.261.066.372.113.11.048.203.1.28.16l.074.469a1.375 1.375 0 0 0-.398-.173 1.958 1.958 0 0 0-.54-.072c-.257 0-.452.046-.584.136-.133.091-.2.227-.2.408a.47.47 0 0 0 .115.33.667.667 0 0 0 .287.184c.115.038.235.057.361.057.266 0 .462-.018.588-.054.126-.036.189-.12.189-.252v-1.428c0-.24-.072-.415-.216-.526-.144-.112-.349-.167-.615-.167-.189 0-.384.03-.587.092-.203.061-.37.146-.5.255v-.667c.126-.086.31-.155.55-.207.241-.052.49-.078.747-.078.126 0 .253.012.381.037.128.025.249.064.361.116.113.052.213.122.3.21a.934.934 0 0 1 .207.323c.05.128.074.277.074.45v1.631c0 .222-.068.394-.206.514-.137.12-.323.201-.557.244-.234.043-.5.065-.797.065m4.079-.619c.202 0 .376-.025.52-.075.144-.05.216-.115.216-.197v-1.897a1.384 1.384 0 0 0-.372-.15 1.602 1.602 0 0 0-.378-.047c-.22 0-.401.044-.543.133a.78.78 0 0 0-.314.387c-.068.17-.102.38-.102.629 0 .227.028.432.081.615.055.184.153.33.294.439.142.109.341.163.598.163m-.02.619c-.208 0-.41-.026-.608-.078a1.4 1.4 0 0 1-.54-.279 1.35 1.35 0 0 1-.385-.56c-.095-.241-.142-.552-.142-.933 0-.539.13-.965.392-1.278.26-.313.657-.47 1.188-.47.086 0 .191.012.317.035.126.023.255.055.385.099.13.043.241.098.331.166l-.182.238v-1.883h.702v4.127c0 .14-.044.263-.132.367a.977.977 0 0 1-.347.255 2.026 2.026 0 0 1-.473.146c-.171.032-.34.048-.506.048m2.478-.102v-3.393h.709l.007 3.393h-.716zm-.02-3.957h.756v-.646h-.756v.646zm2.964 4.045c-.306 0-.548-.081-.726-.244-.178-.164-.267-.404-.267-.721v-1.945h-.547v-.592h.547v-.951h.73v.951h.823v.592h-.824v1.802c0 .159.028.278.085.357.056.08.16.12.314.12a.888.888 0 0 0 .425-.11v.633a1.171 1.171 0 0 1-.273.081 1.636 1.636 0 0 1-.287.027m1.404-.088v-3.393h.71l.006 3.393h-.716zm-.02-3.957h.756v-.646h-.756v.646zm3.2 3.454c.23 0 .412-.051.548-.153a.858.858 0 0 0 .293-.425c.06-.181.091-.39.091-.626 0-.263-.031-.482-.094-.66a.762.762 0 0 0-.297-.397c-.135-.088-.315-.133-.54-.133-.226 0-.405.048-.54.143a.782.782 0 0 0-.29.408c-.06.177-.089.39-.089.64 0 .375.07.67.21.883.139.213.375.32.709.32m.006.605c-.549 0-.957-.156-1.225-.47-.268-.312-.402-.759-.402-1.339 0-.616.139-1.068.415-1.356.277-.288.677-.432 1.199-.432.373 0 .682.07.925.207.243.139.423.341.54.609.117.267.176.592.176.972 0 .576-.141 1.021-.422 1.336-.282.316-.683.473-1.206.473m2.451-3.237c.1-.05.21-.096.335-.139a4.334 4.334 0 0 1 .82-.187c.144-.018.284-.027.419-.027.32 0 .58.044.783.132a.91.91 0 0 1 .452.408c.1.184.149.414.149.69v2.258h-.71v-2.162c0-.086-.01-.171-.03-.255a.591.591 0 0 0-.114-.232.564.564 0 0 0-.243-.166 1.173 1.173 0 0 0-.416-.061 2.162 2.162 0 0 0-.736.129v2.747h-.709v-3.135zM92.431 19c-.243 0-.449-.026-.617-.078a3.67 3.67 0 0 1-.497-.194v-.673c.117.072.232.137.345.194a1.685 1.685 0 0 0 .77.18c.193 0 .345-.04.455-.123a.368.368 0 0 0 .166-.306.303.303 0 0 0-.105-.244.913.913 0 0 0-.267-.15c-.108-.04-.22-.082-.337-.122a4.375 4.375 0 0 1-.365-.113 1.275 1.275 0 0 1-.334-.176.817.817 0 0 1-.243-.29.94.94 0 0 1-.091-.434c0-.19.038-.353.114-.487a.97.97 0 0 1 .3-.326c.125-.084.262-.145.413-.184a1.86 1.86 0 0 1 1.026.03c.15.055.298.121.443.198l.006.612a7.057 7.057 0 0 0-.46-.224 1.227 1.227 0 0 0-.499-.095.89.89 0 0 0-.439.098.314.314 0 0 0-.175.29c0 .108.032.194.098.257.065.064.15.114.256.15a71.41 71.41 0 0 0 .692.22c.122.04.234.095.338.168a.838.838 0 0 1 .253.285.95.95 0 0 1 .098.462c-.004.255-.07.46-.2.62a1.098 1.098 0 0 1-.502.346 1.93 1.93 0 0 1-.642.109" fill="#FFF" fill-rule="evenodd"/>
</svg>
