<svg width="92" height="32" viewBox="0 0 92 32" xmlns="http://www.w3.org/2000/svg">
    <path d="M91.237 31.324a.85.85 0 0 1-.333-.368c-.189-.33-.559-1.14-1.126-2.432l-3.476-7.98h-1.45c-.756 1.696-1.21 2.8-1.429 3.295l-2.04 4.505c-.604 1.299-.96 2.042-1.058 2.252-.095.233-.225.45-.385.646a.757.757 0 0 1-.295.165 1.415 1.415 0 0 1-.264 0c-1.255 0-1.557-.586-2.313-1.502v-5.863c0-.51 0-1.126.053-1.84-.013-.29.026-.579.114-.856a.271.271 0 0 1 .158-.157 3.596 3.596 0 0 1 1.156-.15v-.503h-3.634v.503c.377-.017.755.026 1.118.127a.34.34 0 0 1 .174.15c.066.276.1.558.098.841.046.714.06 1.337.06 1.862v5.038c-1.465-1.742-4.616-5.556-5.87-6.967-1.618-1.825-5.184-1.502-5.184-1.502v.488c.281.05.568.067.853.053.37.028.718.179.99.428v6.892c0 .525 0 1.149-.053 1.87.004.29-.034.582-.113.863a.324.324 0 0 1-.159.157c-.366.101-.746.144-1.126.128v.518c.756-.038 3.152-.038 3.628 0v-.518a3.65 3.65 0 0 1-1.111-.12.37.37 0 0 1-.174-.165 3.276 3.276 0 0 1-.106-.841 37.412 37.412 0 0 1-.053-1.892v-6.157l6.438 7.606a4.536 4.536 0 0 0 3.099 2.004c.655.08 1.317.08 1.972 0h3.257v-.54a6.167 6.167 0 0 1-1.058-.075.447.447 0 0 1-.272-.143.262.262 0 0 1-.068-.188c.029-.28.108-.551.234-.803l.839-1.982h4.715l.997 2.433c.066.144.105.3.114.458a.247.247 0 0 1-.076.187.41.41 0 0 1-.257.113c-.368.043-.74.063-1.11.06v.54s4.48-.052 5.289 0v-.54a2.47 2.47 0 0 1-.763-.098zm-8.607-3.829 2.078-4.797 2.033 4.797H82.63zm-55.465-6.824v.51c.393-.017.786.013 1.172.09.122.028.23.1.302.203.1.287.142.59.12.894v8.055c.01.256-.031.511-.12.751a.605.605 0 0 1-.295.188c-.105 0-1.08.052-1.813.067a2.477 2.477 0 0 1-.877-.21 6.968 6.968 0 0 1-1.511-1.321c-.499-.638-2.637-3.153-3.06-3.694a5.455 5.455 0 0 0 1.806-.676 2.907 2.907 0 0 0 1.065-1.096c.24-.403.367-.861.37-1.329a2.353 2.353 0 0 0-.362-1.314 2.181 2.181 0 0 0-1.104-.878 6.918 6.918 0 0 0-2.267-.27c-.136 0-1.556 0-2.403.045h-3.967v.503c.393-.008.785.022 1.172.09.123.03.23.105.302.21.097.272.143.56.136.848v8.056a2.09 2.09 0 0 1-.121.751.59.59 0 0 1-.295.188 5.719 5.719 0 0 1-1.171.082v.51c1.232-.044 3.982-.044 4.753 0v-.51a5.719 5.719 0 0 1-1.171-.082.567.567 0 0 1-.31-.21 2.477 2.477 0 0 1-.106-.901v-5.616c0-1.464.045-2.253.053-2.313 0-.247 0-.518.053-.803a5.534 5.534 0 0 1 1.64-.248c.7-.055 1.396.14 1.964.548.443.394.684.965.658 1.555a2.298 2.298 0 0 1-.756 1.809 3.271 3.271 0 0 1-2.267.683h-.642l-.083.24c.068.075 3.854 4.302 4.307 4.775 1.096.931 1.874 1.126 3.642 1.119h6.93v-.51a6.084 6.084 0 0 1-1.187-.076.62.62 0 0 1-.302-.217 2.739 2.739 0 0 1-.114-.894v-8.041c-.004-.256.04-.51.129-.75a.454.454 0 0 1 .28-.18c.39-.077.788-.107 1.186-.09V20.7c-1.058.007-4.693.007-5.736-.03zM12.053 30.956c-.182-.33-.56-1.14-1.119-2.432l-3.514-7.98H5.962c-.756 1.696-1.201 2.8-1.428 3.295L2.5 28.344c-.612 1.299-.96 2.042-1.058 2.252a2.25 2.25 0 0 1-.393.646.636.636 0 0 1-.294.165c-.25.04-.503.057-.756.052V32c.627-.053 2.871-.053 3.778 0v-.54a6.03 6.03 0 0 1-1.058-.076.47.47 0 0 1-.28-.142.254.254 0 0 1-.06-.188c.03-.28.109-.552.235-.803l.853-2.08h4.716l.997 2.433c.066.144.104.3.113.458a.277.277 0 0 1-.068.187.432.432 0 0 1-.264.113 8.936 8.936 0 0 1-1.103.06v.54s4.473-.052 5.29 0v-.54a2.54 2.54 0 0 1-.832-.098.901.901 0 0 1-.264-.368zm-8.313-3.46 2.078-4.798 2.033 4.797h-4.11zm54.24-6.825v.51a4.95 4.95 0 0 1 1.172.09c.12.028.226.1.295.203.103.286.146.59.128.894v8.055c.004.256-.04.51-.128.751a.612.612 0 0 1-.287.188 6.03 6.03 0 0 1-1.172.075v.51h5.72v-.51a5.954 5.954 0 0 1-1.178-.075.59.59 0 0 1-.302-.218 2.552 2.552 0 0 1-.114-.9v-8.012c-.01-.255.03-.51.121-.75a.476.476 0 0 1 .287-.18 4.98 4.98 0 0 1 1.179-.09V20.7c-1.02.007-4.677.007-5.713-.03h-.007zM45.718 30.956c-.19-.33-.56-1.14-1.126-2.432l-3.476-7.98h-1.459c-.755 1.696-1.201 2.8-1.42 3.295l-2.003 4.482c-.612 1.299-.96 2.042-1.058 2.253-.1.232-.232.45-.393.645a.681.681 0 0 1-.294.165c-.25.04-.503.057-.756.053v.54c.62-.052 2.864-.052 3.778 0v-.54a6.167 6.167 0 0 1-1.058-.075.47.47 0 0 1-.272-.143.262.262 0 0 1-.068-.188 2.54 2.54 0 0 1 .235-.803l.891-2.042h4.716l.997 2.433c.066.144.104.3.113.458a.247.247 0 0 1-.075.187.41.41 0 0 1-.257.113 8.936 8.936 0 0 1-1.103.06v.54s4.473-.052 5.29 0v-.54a2.501 2.501 0 0 1-.862-.113.805.805 0 0 1-.34-.368zm-8.275-3.46 2.078-4.798 2.04 4.797h-4.118zm24.68-9.76c.199-1.078.199-2.182 0-3.26a18.238 18.238 0 0 0-2.146-6.41 8.063 8.063 0 0 0-.756-1.21 18.66 18.66 0 0 0-5.229-4.91c-.69-.34-1.4-.644-2.123-.908a23.815 23.815 0 0 0-2.97-.75 13.247 13.247 0 0 0-5.486 0 8.808 8.808 0 0 0-4.866 2.47c-.752.679-1.457 1.409-2.109 2.184a43.084 43.084 0 0 0-2.894 3.333 1.442 1.442 0 0 1-1.61.323c-.398-.167-.77-.392-1.103-.668a97.155 97.155 0 0 0-3.778-3.003 2.591 2.591 0 0 0-2.607 0 2.677 2.677 0 0 0-.952 1.592 6.968 6.968 0 0 0-.197 1.621c-.005.782.05 1.562.167 2.335a35.431 35.431 0 0 0 1.677 6.502l.136.413a12.035 12.035 0 0 0-.377-1.787c-.091-.443-.182-.878-.265-1.321-.082-.54-.13-1.084-.143-1.63a5.042 5.042 0 0 1 .695-2.695c.248-.344.57-.63.944-.833a1.67 1.67 0 0 1 .756-.203c.415-.01.828.049 1.224.173.75.293 1.473.65 2.161 1.066a5.236 5.236 0 0 0 2.592.9c.36-.06.704-.19 1.013-.382.821-.499 1.609-1.05 2.357-1.652a26.456 26.456 0 0 1 5.086-3.453 7.26 7.26 0 0 1 1.632-.609 12.352 12.352 0 0 1 7.995.864 16.997 16.997 0 0 1 4.178 2.447 25.736 25.736 0 0 1 4.21 4.092 15.813 15.813 0 0 1 2.788 5.36v.008zm-14.554 2.987v.458a4.95 4.95 0 0 1 1.171.09c.123.028.23.1.302.203.096.288.137.59.121.894v8.055a2.12 2.12 0 0 1-.12.751.59.59 0 0 1-.295.188 6.03 6.03 0 0 1-1.171.075v.51h5.606v-.51a6.03 6.03 0 0 1-1.17-.075.597.597 0 0 1-.31-.218 2.836 2.836 0 0 1-.106-.893v-3.687h1.186c.702-.022 1.405.013 2.1.105a.462.462 0 0 1 .31.166c.074.305.117.617.129.93l.06.511h.5l-.054-1.982.053-1.817h-.514l-.068.496c-.016.231-.067.459-.15.675a.538.538 0 0 1-.303.128 10.76 10.76 0 0 1-1.655.098h-1.61v-1.787c0-1.076.016-1.684.046-1.825 0-.247 0-.518.06-.803a16.852 16.852 0 0 1 1.7-.098c.483 0 .964.024 1.444.076.357.03.709.101 1.05.21.106.495.174.996.204 1.501h.552c-.005-.81.081-1.618.257-2.41-.257-.045-8.471.015-9.325-.015zm-1.338-3.686a5.487 5.487 0 0 0 5.085-3.35A5.425 5.425 0 0 0 50.14 7.74a5.512 5.512 0 0 0-5.981-1.192 5.45 5.45 0 0 0-3.392 5.038c0 1.447.58 2.835 1.61 3.857a5.504 5.504 0 0 0 3.884 1.594h-.03z" fill="#FFF" fill-rule="nonzero"/>
</svg>
