<svg width="110" height="22" viewBox="0 0 110 22" xmlns="http://www.w3.org/2000/svg">
    <path d="M6.688.899A10.982 10.982 0 0 1 11.042 0c6.098 0 11.042 4.964 11.042 11.088 0 3.532-1.633 6.722-4.195 8.752-1.433 1.11-3.145 1.754-4.984 1.754-1.427 0-3.049-.565-3.049-.565-2.285-.886-4.154-2.945-4.205-5.459 0-2.946 2.533-5.478 5.663-5.368.552-.006 1.232.17 1.232.17-.681-.507-1.995-.727-2.864-.727-3.005 0-5.528 2.525-5.528 5.542 0 3.138 2.235 5.966 5.12 6.777L9.265 22c-3.392-.658-6.076-3.71-6.066-7.432 0-.137.003-.215.01-.352.03-.636.057-1.005.237-1.616.294-.995.748-1.635 1.32-2.31 1.17-1.382 3.037-2.089 4.987-2.089 1.675 0 3.312.585 4.44 1.64-.603-1.348-2.655-2.462-4.46-2.718a1.518 1.518 0 0 1-1.386.902c-.55 0-1.038-.303-1.304-.743-2.877.774-4.77 3.335-4.997 6.543-.146 2.059.631 4.085 1.78 5.52l-.031.027c-1.164-1.334-2.613-3.771-2.605-6.22.013-3.8 2.748-6.864 6.351-7.364l.837 1.291.53-1.351c1.07.037 2.004.185 2.95.605C10.938 5.324 9.592 4.97 8.14 4.97c0 0-.273-.007-.447 0C3.611 4.97.303 8.292.303 12.39c-.002.08 0 .14 0 .22 0 .662.084 1.303.244 1.914l-.038.017C.207 13.62.047 12.856 0 11.838v-.04c0-4.493 3.208-8.15 8.276-8.148 2.67 0 4.774 1.57 5.616 3.836 1.126.866 1.958 2.204 1.958 3.765 0 .63-.135 1.23-.37 1.772a4.841 4.841 0 0 0-3.752-1.779c-2.686 0-4.865 2.188-4.865 4.886a4.887 4.887 0 0 0 3.114 4.56 7.596 7.596 0 0 0 2.729.518 6.63 6.63 0 0 0 4.145-1.449 10.827 10.827 0 0 0 4.304-8.655C21.155 5.128 16.331.283 10.38.283 9.087.283 7.85.51 6.7.929L6.69.9zM35.852 6.73l.798 6.292h-4.14l3.342-6.292zM38.59 2.84h-3.83l-9.1 16.209h3.387l1.826-3.246h5.978l.41 3.246h3.388L38.59 2.839zm30.091 4.224c4.097 0 6.212 2.424 5.602 6.048-.72 4.27-3.936 6.27-7.655 6.27-3.72 0-6.254-2.045-5.583-6.025.682-4.047 3.717-6.293 7.636-6.293zm22.194 0c3.1 0 5.797 1.334 5.549 4.78h-4.672c.064-.51-.046-.91-.285-1.2-.235-.311-.608-.467-1.117-.467-1.727 0-2.318 1.801-2.55 3.18-.297 1.756.173 2.913 1.523 2.913 1.196 0 1.8-.823 2.086-1.735h4.65c-.995 3.536-4.05 4.847-7.26 4.847-3.742 0-6.265-2.112-5.601-6.047.67-3.98 3.846-6.27 7.677-6.27zm-43.781.04-2.585 11.945h-3.1l2.585-11.945h3.1zm16.214-4.487-.491 2.913h-.313c-1.192.008-1.675.11-1.887 1.563h1.905l-.47 2.973h-1.926l-1.514 8.983h-4.605l1.514-8.983h-1.528c-1.563-.016-2.585-.003-3.493 2.534l-1.34 6.449h-3.1l2.586-11.945h3.1l-.502 2.228h.045c.352-.711.78-1.334 1.844-1.89.788-.342 1.565-.342 2.15-.349l.77-.002c.724-3.86 2.409-4.474 5.284-4.474h1.97zm20.208 4.447c.199 0 .39.045.586.067l-.78 4.625c-.302-.045-.619-.133-.929-.133-1.882 0-2.984.889-3.407 3.401l-.678 4.025h-4.606l2.015-11.956h4.185l-.449 2.662h.044c.95-1.823 2.225-2.69 4.019-2.69zm-15.161 3.111-.132.002c-1.572 0-2.31 1.623-2.532 2.935-.37 2.201.288 3.158 1.461 3.158 1.24 0 2.154-.957 2.525-3.158.267-1.585-.172-2.808-1.197-2.928l-.125-.009zM47.985 2.84l-.596 2.78h-3.1l.597-2.78h3.1zm61.855 11.428c.778-4.224-1.31-7.204-5.606-7.204-3.72 0-6.988 2.446-7.632 6.27-.66 3.914 1.859 6.048 5.579 6.048 2.7 0 5.785-.956 7.069-3.846h-4.406a2.231 2.231 0 0 1-1.9 1.023c-1.217 0-2.127-.912-1.894-2.29h8.79zm-8.393-2.356c.21-1.246 1.116-2.024 2.489-2.024 1.085 0 1.875.956 1.696 2.024h-4.185z" fill="#FFF" fill-rule="evenodd"/>
</svg>
