<svg width="87" height="31" viewBox="0 0 87 31" xmlns="http://www.w3.org/2000/svg">
    <path d="M71.456 0C80.04 0 87 6.938 87 15.5 87 24.062 80.04 31 71.456 31c-8.587 0-15.544-6.938-15.544-15.5 0-1.368.18-2.692.511-3.956.192 3.707 3.17 6.236 6.58 6.236 1.598 0 3.099-.559 4.267-1.53v.36a1.167 1.167 0 0 0 2.332 0v-5.438c0-3.913-3.076-6.609-6.599-6.609a6.72 6.72 0 0 0-3.419.934A15.526 15.526 0 0 1 71.456 0zM52.224 23.958l1.042 2.89 1.056-2.89h.566l-1.497 4.007c-.26.702-.644 1.054-1.153 1.054a.954.954 0 0 1-.344-.065v-.482a.78.78 0 0 0 .315.064.457.457 0 0 0 .276-.101.875.875 0 0 0 .224-.245c.058-.095.112-.191.161-.29a1.45 1.45 0 0 0 .102-.25l.036-.1-1.35-3.592h.566zm-5.514-.064c.221 0 .424.026.609.08.185.054.366.145.543.273.176.129.316.323.418.584.103.26.155.577.155.948 0 .372-.052.688-.155.949-.102.26-.242.455-.418.583-.177.129-.358.22-.543.274-.185.053-.388.08-.609.08-.22 0-.423-.027-.605-.08a1.757 1.757 0 0 1-.539-.274c-.177-.128-.316-.323-.42-.583-.102-.261-.153-.577-.153-.949 0-.371.051-.687.154-.948.103-.26.242-.455.419-.584.176-.128.356-.22.539-.273.182-.054.384-.08.605-.08zm-6.14 0c.313 0 .625.074.938.221v.526a1.692 1.692 0 0 0-.88-.25c-.552 0-.828.185-.828.558 0 .126.067.228.2.306.134.077.298.142.49.193.195.051.388.113.581.185.194.071.358.192.493.363.134.17.202.389.202.653 0 .318-.119.566-.356.746-.238.18-.567.27-.987.27a2.25 2.25 0 0 1-1.107-.275v-.558c.351.215.713.322 1.085.322.557 0 .835-.168.835-.505a.507.507 0 0 0-.2-.426 1.377 1.377 0 0 0-.491-.23 13.39 13.39 0 0 1-.58-.169 1.12 1.12 0 0 1-.493-.308c-.135-.144-.202-.333-.202-.567 0-.291.107-.54.32-.746.214-.206.54-.31.98-.31zm-33.364.064v2.138c0 .37.08.642.243.814.162.173.416.259.761.259.341 0 .594-.086.758-.259.165-.172.247-.443.247-.814v-2.138h.53v2.114c0 .507-.134.9-.401 1.177s-.645.416-1.134.416c-.488 0-.866-.139-1.133-.416-.268-.277-.401-.67-.401-1.177v-2.114h.53zm22.99-.064c.513 0 .904.129 1.174.387.27.258.404.636.404 1.134v1.096c0 .234-.054.433-.163.599a.942.942 0 0 1-.418.359c-.17.074-.33.125-.48.153a2.339 2.339 0 0 1-.441.043 2.88 2.88 0 0 1-.346-.021 1.982 1.982 0 0 1-.402-.099 1.474 1.474 0 0 1-.389-.197.968.968 0 0 1-.282-.344 1.105 1.105 0 0 1-.116-.517 1.03 1.03 0 0 1 .315-.758c.089-.081.2-.15.337-.207.136-.058.256-.1.362-.127.105-.027.23-.048.374-.062.144-.014.247-.022.308-.024.06-.003.133-.004.216-.004l.588.035c0-.331-.09-.568-.27-.709-.18-.142-.446-.212-.799-.212-.396 0-.753.058-1.07.175v-.511c.36-.126.726-.19 1.098-.19zm-7.23 0c.513 0 .903.129 1.173.387s.404.636.404 1.134v1.096c0 .234-.054.433-.163.599a.942.942 0 0 1-.418.359c-.17.074-.33.125-.48.153a2.339 2.339 0 0 1-.441.043 2.88 2.88 0 0 1-.346-.021 1.982 1.982 0 0 1-.402-.099 1.474 1.474 0 0 1-.389-.197.968.968 0 0 1-.281-.344 1.105 1.105 0 0 1-.117-.517 1.03 1.03 0 0 1 .315-.758c.089-.081.2-.15.337-.207.136-.058.257-.1.362-.127.105-.027.23-.048.374-.062.144-.014.247-.022.308-.024.06-.003.133-.004.217-.004l.587.035c0-.331-.09-.568-.27-.709-.18-.142-.446-.212-.799-.212-.396 0-.753.058-1.07.175v-.511c.36-.126.726-.19 1.099-.19zm-3.043-.968v1.032h.946v.482h-.946v2.225c0 .186.039.316.116.391.078.075.215.113.41.113.151 0 .29-.029.42-.086v.496c-.155.058-.31.086-.466.086h-.018a1.27 1.27 0 0 1-.286-.032 1.295 1.295 0 0 1-.316-.127.68.68 0 0 1-.282-.318 1.268 1.268 0 0 1-.108-.551V24.44h-.637v-.482h.637v-1.032h.53zm-7.62.968c.224 0 .426.035.608.105.182.07.326.153.433.248.106.096.2.22.281.373.08.154.138.284.173.391.034.108.061.237.08.39.019.147.028.24.028.278v.157l-.013.258H11.23c.034.366.146.632.337.798.192.165.475.248.85.248.531 0 .949-.09 1.253-.271v.542c-.352.17-.779.254-1.281.254h-.022a2.13 2.13 0 0 1-.589-.077 1.678 1.678 0 0 1-.526-.266c-.173-.126-.308-.316-.406-.57a2.577 2.577 0 0 1-.146-.923v-.053c0-1.255.534-1.882 1.603-1.882zm31.125-.968v1.032h.945v.482h-.945v2.225c0 .186.039.316.116.391.078.075.215.113.41.113.15 0 .29-.029.42-.086v.496c-.156.058-.311.086-.466.086h-.018a1.27 1.27 0 0 1-.287-.032 1.29 1.29 0 0 1-.315-.127.68.68 0 0 1-.283-.318 1.268 1.268 0 0 1-.107-.551V24.44h-.638v-.482h.638v-1.032h.53zm-17.316-.357v5.04h-.53v-5.04h.53zm1.72 1.389v3.65h-.531v-3.65h.531zm-9.879-1.229v4.879h-.53v-4.879h.53zM5.967 23.901v.496c-.4.01-.816.073-1.247.19v3.02h-.53v-3.361a4.568 4.568 0 0 1 1.777-.345zm-1.988-1.172v.511H2.256v4.368h-.53V23.24H0v-.51h3.979zm30.347 1.165c.46 0 .817.116 1.07.35.255.233.382.561.382.985v2.379h-.53v-2.379c0-.102-.01-.193-.032-.273a.858.858 0 0 0-.125-.255.585.585 0 0 0-.3-.209 1.585 1.585 0 0 0-.523-.073c-.307 0-.627.049-.961.146v3.043h-.53V24.25c.48-.238.997-.357 1.549-.357zm16.759.007v.496c-.4.01-.816.073-1.247.19v3.02h-.53v-3.361a4.568 4.568 0 0 1 1.777-.345zm-4.373.475c-.416 0-.718.112-.906.336-.189.223-.283.58-.283 1.067 0 .488.094.844.283 1.068.188.224.49.336.906.336.415 0 .718-.11.908-.332.19-.222.285-.579.285-1.072 0-.492-.095-.85-.285-1.071-.19-.222-.493-.332-.908-.332zm-23.35 1.39c-.884 0-1.326.24-1.326.72 0 .455.331.683.994.683h.01c.649 0 .973-.22.973-.661v-.7a3.912 3.912 0 0 0-.65-.043zm7.231 0c-.884 0-1.326.24-1.326.72 0 .455.331.683.994.683h.01c.649 0 .973-.22.973-.661v-.7a3.912 3.912 0 0 0-.65-.043zm-18.29-1.376c-.363 0-.626.094-.79.282-.164.188-.258.506-.282.954h2.145c0-.083-.01-.176-.03-.279a2.615 2.615 0 0 0-.122-.394.843.843 0 0 0-.33-.402 1.032 1.032 0 0 0-.59-.161zm15.558-1.66v.585h-.589v-.586h.589zM71.846 4.562c-.643 0-1.166.522-1.166 1.165v10.883a1.166 1.166 0 0 0 2.333 0V5.728c0-.643-.524-1.165-1.167-1.165zm7.848 0c-3.1 0-5.436 2.22-5.436 5.551v6.497a1.168 1.168 0 0 0 2.336 0v-6.497c0-1.956 1.43-3.331 3.1-3.331a1.11 1.11 0 1 0 0-2.22zm-54.185 0c.614 0 1.113.498 1.113 1.112 0 .612-.499 1.11-1.113 1.11-1.669 0-3.101 1.373-3.101 3.33v6.496a1.167 1.167 0 0 1-2.331 0v-6.497c0-3.33 2.33-5.55 5.432-5.55zm-7.652 0c.642 0 1.166.522 1.166 1.165v6.495c0 3.33-2.334 5.552-5.433 5.552-3.1 0-5.433-2.222-5.433-5.552V5.728a1.167 1.167 0 0 1 2.332 0v6.495c0 1.956 1.433 3.33 3.101 3.33 1.67 0 3.1-1.374 3.1-3.33V5.728c0-.643.523-1.165 1.167-1.165zM28.852 1.08c.643 0 1.167.523 1.167 1.164v3.845a6.667 6.667 0 0 1 4.265-1.528c3.527 0 6.6 2.695 6.6 6.606 0 3.912-3.073 6.61-6.6 6.61-3.523 0-6.597-2.698-6.597-6.61V2.243c0-.64.523-1.164 1.165-1.164zM48.511 4.56c3.526 0 6.597 2.695 6.597 6.606 0 3.912-3.07 6.61-6.597 6.61-3.527 0-6.598-2.698-6.598-6.61 0-3.91 3.07-6.606 6.598-6.606zM1.188 1.081c.645 0 1.167.521 1.167 1.162v.085l2.68.01c.644 0 1.167.518 1.168 1.163A1.16 1.16 0 0 1 5.04 4.664l-2.685-.012v7.572c0 1.955 1.431 3.328 3.101 3.328.614 0 1.112.499 1.112 1.11a1.11 1.11 0 0 1-1.112 1.11c-3.101 0-5.432-2.22-5.432-5.548v-9.98c0-.642.521-1.163 1.164-1.163zm61.815 5.702c2.412 0 4.163 1.798 4.163 4.39 0 2.587-1.75 4.384-4.163 4.384-2.412 0-4.16-1.797-4.16-4.385 0-2.591 1.748-4.39 4.16-4.39zm-28.719-.005c-2.412 0-4.16 1.799-4.16 4.388 0 2.592 1.748 4.387 4.16 4.387 2.413 0 4.16-1.795 4.16-4.387 0-2.59-1.747-4.388-4.16-4.388zm14.227 0c-2.413 0-4.161 1.799-4.161 4.388 0 2.592 1.748 4.387 4.161 4.387 2.412 0 4.16-1.795 4.16-4.387 0-2.59-1.748-4.388-4.16-4.388z" fill="#FFF" fill-rule="evenodd"/>
</svg>
