<svg id="Livello_1" data-name="Livello 1" xmlns="http://www.w3.org/2000/svg" xmlns:xlink="http://www.w3.org/1999/xlink" viewBox="0 0 224.48 64.25"><defs><style>.cls-1{fill:#7d7068;}.cls-2{fill:url(#Sfumatura_senza_nome_2);}.cls-3{fill:none;}.cls-4{fill:url(#Sfumatura_senza_nome_2-2);}.cls-5{fill:url(#Sfumatura_senza_nome_2-3);}.cls-6{fill:url(#Sfumatura_senza_nome_2-4);}</style><linearGradient id="Sfumatura_senza_nome_2" x1="-327" y1="367.82" x2="-326" y2="367.82" gradientTransform="matrix(-24.5, 67.3, 67.3, 24.5, -32719.23, 13002.5)" gradientUnits="userSpaceOnUse"><stop offset="0" stop-color="#0891b4"/><stop offset="0.41" stop-color="#0891b4"/><stop offset="0.45" stop-color="#168eb0"/><stop offset="0.52" stop-color="#3d87a6"/><stop offset="0.6" stop-color="#6d7d9a"/><stop offset="0.63" stop-color="#787b95"/><stop offset="0.68" stop-color="#957488"/><stop offset="0.74" stop-color="#c46a73"/><stop offset="0.78" stop-color="#e46365"/><stop offset="0.81" stop-color="#e66365"/><stop offset="0.97" stop-color="#ec6464"/><stop offset="1" stop-color="#ec6464"/></linearGradient><linearGradient id="Sfumatura_senza_nome_2-2" x1="-326.92" y1="367.63" x2="-326.1" y2="367.63" xlink:href="#Sfumatura_senza_nome_2"/><linearGradient id="Sfumatura_senza_nome_2-3" x1="-327" y1="367.47" x2="-326" y2="367.47" xlink:href="#Sfumatura_senza_nome_2"/><linearGradient id="Sfumatura_senza_nome_2-4" x1="-327" y1="367.64" x2="-326" y2="367.64" xlink:href="#Sfumatura_senza_nome_2"/></defs><title>01_elica</title><path class="cls-1" d="M97.93,29.71c-.67-7.91-5.21-14.8-13.87-14.8-7.57,0-13.29,6.3-14.13,14.8ZM85.07,54.84c-11.94,0-21.7-9.16-21.7-22.61v-.17c0-12.53,8.83-22.62,20.85-22.62,12.87,0,20.18,10.51,20.18,22a3,3,0,0,1-3,3H69.93c.93,9.41,7.57,14.71,15.3,14.71a17.72,17.72,0,0,0,12.53-5.05,2.77,2.77,0,1,1,3.7,4.12,22.07,22.07,0,0,1-16.39,6.56"/><path class="cls-1" d="M112.08,3.28a3.24,3.24,0,1,1,6.47,0V51a3.17,3.17,0,0,1-3.19,3.29A3.23,3.23,0,0,1,112.08,51Z"/><path class="cls-1" d="M127,13.22a3.27,3.27,0,0,1,3.19-3.28,3.23,3.23,0,0,1,3.28,3.28V51a3.17,3.17,0,0,1-3.2,3.29A3.24,3.24,0,0,1,127,51Z"/><path class="cls-1" d="M140.71,32.31v-.17A22.59,22.59,0,0,1,179,15.75,3,3,0,0,1,180,18a3.11,3.11,0,0,1-3.11,3.11,3.34,3.34,0,0,1-2.1-.76c-3.11-2.86-6.64-5.21-11.86-5.21-8.82,0-15.55,7.48-15.55,16.81v.17c0,9.42,6.9,16.9,16,16.9,5,0,8.92-2.27,12.11-5.3a2.6,2.6,0,0,1,1.85-.83,3,3,0,0,1,2.94,2.94,2.9,2.9,0,0,1-.84,2,21.84,21.84,0,0,1-16.39,7,22.31,22.31,0,0,1-22.28-22.53"/><path class="cls-1" d="M218.35,37.86V33.65a45.58,45.58,0,0,0-12.78-1.84c-8.16,0-12.7,3.52-12.7,9V41c0,5.46,5,8.66,10.93,8.66,8,0,14.55-4.88,14.55-11.77m-32,3.36v-.17c0-9.16,7.57-14,18.59-14a46.15,46.15,0,0,1,13.36,1.85V27.35c0-7.82-4.79-11.86-12.94-11.86a27.1,27.1,0,0,0-11.27,2.44,3.25,3.25,0,0,1-1.18.25A2.88,2.88,0,0,1,190,15.41a3,3,0,0,1,1.77-2.69A34.25,34.25,0,0,1,206,9.78c6.14,0,10.85,1.6,14,4.79,2.94,2.94,4.45,7.15,4.45,12.69v23.8a3.07,3.07,0,0,1-3.11,3.2,3,3,0,0,1-3.11-3V47.28a19,19,0,0,1-15.72,7.48c-8.07,0-16.23-4.63-16.23-13.54"/><path class="cls-2" d="M32.85,43.92a.24.24,0,0,0-.13,0c-.17,0-.27.19-.13.36a2.76,2.76,0,0,1,.53,3,5.24,5.24,0,0,1-2.37,3,27.63,27.63,0,0,1-4.11,2.05A54.69,54.69,0,0,0,20.83,55a11.79,11.79,0,0,0-2.51,1.81,4.92,4.92,0,0,0,.16,7.3.44.44,0,0,0,.67,0A42.92,42.92,0,0,1,29,58.17a37,37,0,0,0,5.41-2.89,4.76,4.76,0,0,0,2.38-3.82A7.54,7.54,0,0,0,32.85,43.92Z"/><path class="cls-3" d="M4.65,25.39a.61.61,0,0,0,1,.31h0c2.32-1.2,4.67-2.32,7.07-3.36a45.18,45.18,0,0,0,11.13-6.89,18.42,18.42,0,0,0,3.55-4,4.58,4.58,0,0,0,.55-4.59,4.84,4.84,0,0,0-.28-.66A8.23,8.23,0,0,0,24.69,3a.65.65,0,0,0-.38-.11.47.47,0,0,0-.17,0,.81.81,0,0,0-.32.16A75.77,75.77,0,0,1,17,8.63a76.37,76.37,0,0,1-9.7,5.95c-.13.06-.25.13-.37.2a7.15,7.15,0,0,0-3,9C4.13,24.35,4.38,24.87,4.65,25.39Z"/><path class="cls-3" d="M32.85,43.92a.24.24,0,0,0-.13,0c-.17,0-.27.19-.13.36a2.76,2.76,0,0,1,.53,3,5.24,5.24,0,0,1-2.37,3,27.63,27.63,0,0,1-4.11,2.05A54.69,54.69,0,0,0,20.83,55a11.79,11.79,0,0,0-2.51,1.81,4.92,4.92,0,0,0,.16,7.3.44.44,0,0,0,.67,0A42.92,42.92,0,0,1,29,58.17a37,37,0,0,0,5.41-2.89,4.76,4.76,0,0,0,2.38-3.82A7.54,7.54,0,0,0,32.85,43.92Z"/><path class="cls-3" d="M32.71,13.1a.6.6,0,0,0-.27-.07.41.41,0,0,0-.27.72,6.41,6.41,0,0,1,1.09,6.16,10.64,10.64,0,0,1-4.84,6,55,55,0,0,1-8.34,4.17A107.69,107.69,0,0,0,8.25,35.62a23.5,23.5,0,0,0-5.11,3.69,10,10,0,0,0,.32,14.84.92.92,0,0,0,1.37,0A87.78,87.78,0,0,1,24.94,42.1a75.46,75.46,0,0,0,11-5.87,10.73,10.73,0,0,0,4.83-7.78A15.37,15.37,0,0,0,32.71,13.1Z"/><path class="cls-4" d="M6.92,14.78c.12-.07.24-.14.37-.2A76.37,76.37,0,0,0,17,8.63a75.77,75.77,0,0,0,6.83-5.54.81.81,0,0,1,.32-.16.47.47,0,0,1,.17,0,.65.65,0,0,1,.38.11,8.23,8.23,0,0,1,2.94,3.2,4.84,4.84,0,0,1,.28.66,4.58,4.58,0,0,1-.55,4.59,18.42,18.42,0,0,1-3.55,4,45.18,45.18,0,0,1-11.13,6.89c-2.4,1-4.75,2.16-7.07,3.36h0a.61.61,0,0,1-1-.31c-.27-.52-.52-1-.76-1.58A7.15,7.15,0,0,1,6.92,14.78Zm29.9,36.68a4.76,4.76,0,0,1-2.38,3.82A37,37,0,0,1,29,58.17a42.92,42.92,0,0,0-9.88,5.93.44.44,0,0,1-.67,0,4.92,4.92,0,0,1-.16-7.3A11.79,11.79,0,0,1,20.83,55a54.69,54.69,0,0,1,5.81-2.71,27.63,27.63,0,0,0,4.11-2.05,5.24,5.24,0,0,0,2.37-3,2.76,2.76,0,0,0-.53-3c-.14-.17,0-.36.13-.36a.24.24,0,0,1,.13,0A7.54,7.54,0,0,1,36.82,51.46ZM36,36.23a75.46,75.46,0,0,1-11,5.87A87.78,87.78,0,0,0,4.83,54.18a.92.92,0,0,1-1.37,0,10,10,0,0,1-.32-14.84,23.5,23.5,0,0,1,5.11-3.69A107.69,107.69,0,0,1,20.08,30.1a55,55,0,0,0,8.34-4.17,10.64,10.64,0,0,0,4.84-6,6.41,6.41,0,0,0-1.09-6.16.41.41,0,0,1,.27-.72.6.6,0,0,1,.27.07,15.37,15.37,0,0,1,8.07,15.35A10.73,10.73,0,0,1,36,36.23Z"/><path class="cls-5" d="M4.65,25.39a.61.61,0,0,0,1,.31h0c2.32-1.2,4.67-2.32,7.07-3.36a45.18,45.18,0,0,0,11.13-6.89,18.42,18.42,0,0,0,3.55-4,4.58,4.58,0,0,0,.55-4.59,4.84,4.84,0,0,0-.28-.66A8.23,8.23,0,0,0,24.69,3a.65.65,0,0,0-.38-.11.47.47,0,0,0-.17,0,.81.81,0,0,0-.32.16A75.77,75.77,0,0,1,17,8.63a76.37,76.37,0,0,1-9.7,5.95c-.13.06-.25.13-.37.2a7.15,7.15,0,0,0-3,9C4.13,24.35,4.38,24.87,4.65,25.39Z"/><path class="cls-6" d="M32.71,13.1a.6.6,0,0,0-.27-.07.41.41,0,0,0-.27.72,6.41,6.41,0,0,1,1.09,6.16,10.64,10.64,0,0,1-4.84,6,55,55,0,0,1-8.34,4.17A107.69,107.69,0,0,0,8.25,35.62a23.5,23.5,0,0,0-5.11,3.69,10,10,0,0,0,.32,14.84.92.92,0,0,0,1.37,0A87.78,87.78,0,0,1,24.94,42.1a75.46,75.46,0,0,0,11-5.87,10.73,10.73,0,0,0,4.83-7.78A15.37,15.37,0,0,0,32.71,13.1Z"/></svg>