<svg width="98" height="16" viewBox="0 0 98 16" xmlns="http://www.w3.org/2000/svg">
    <path d="M80.515 13.394c0-.92-.648-1.355-1.343-1.355-.613 0-1.38.336-1.38 1.397 0 .536.284 1.338 1.415 1.338.748 0 1.308-.513 1.308-1.38zm-2.958-2.688h.271v1.834h.012c.177-.33.595-.737 1.337-.737.92 0 1.609.636 1.609 1.597 0 .855-.548 1.61-1.609 1.61-.777 0-1.196-.396-1.337-.755h-.012v.66h-.27v-4.209zm3.305 1.19h.307l1.355 2.719 1.243-2.718h.306l-1.661 3.549c-.154.324-.307.554-.778.554h-.377v-.236h.324c.348 0 .424-.076.654-.542l.153-.307-1.526-3.018zm7.635 1.333c-.111-.825-.689-1.19-1.384-1.19-.778 0-1.267.471-1.385 1.19h2.77zm-2.769.236c.018.755.53 1.309 1.438 1.309.937 0 1.178-.59 1.284-.86h.271c-.253.76-.783 1.096-1.584 1.096-1.031 0-1.68-.625-1.68-1.627 0-.631.4-1.58 1.685-1.58 1.05 0 1.65.695 1.662 1.662h-3.076zm3.53 1.45h.27v-4.209h-.27v4.21zm.977 0h.271v-3.018h-.27v3.018zm0-3.584h.271v-.625h-.27v.625zm3.759 1.515c-.036-.383-.554-.807-1.279-.807-.954 0-1.431.677-1.431 1.397 0 .489.341 1.338 1.431 1.338.607 0 1.184-.289 1.32-.914h.271c-.159.79-.83 1.15-1.59 1.15-.99 0-1.703-.637-1.703-1.574 0-1.061.777-1.633 1.702-1.633.925 0 1.514.53 1.55 1.043h-.271zm3.27.383h-.012c-.065.071-.224.142-.483.16l-1.02.07c-.506.036-.866.177-.866.63 0 .614.619.685.984.685.601 0 1.396-.271 1.396-.99v-.555zm-2.516-.4c.1-.761.489-1.026 1.402-1.026.878 0 1.385.206 1.385.884v1.692c0 .224 0 .36.2.36A.846.846 0 0 0 98 14.69v.236c-.083.03-.195.047-.33.047-.371 0-.371-.259-.371-.66h-.012c-.336.619-1.043.696-1.438.696-.259 0-1.237 0-1.237-.92 0-.619.525-.831 1.137-.867l1.055-.07c.312-.024.46-.06.46-.43 0-.408-.23-.684-1.12-.684-.795 0-1.043.247-1.125.79h-.271zM2.374 4.253l-.091.017-.339 1.687.218-.065c1.82-.543 3.69-.818 5.554-.818 1.261 0 3.378.177 3.378 1.363 0 1.158-2.206 1.526-4.541 1.916C3.48 8.866 0 9.447 0 11.997c0 1.928 1.907 2.906 5.667 2.906.927 0 1.913-.07 3.013-.212l.081-.011.61-1.583-.25.058a14.02 14.02 0 0 1-3.117.376c-.77 0-3.286-.112-3.286-1.555 0-1.414 2.437-1.881 4.795-2.333 1.423-.273 2.887-.68 3.703-1.146V14.9h2.534V6.544c0-1.405-.478-2.946-5.698-2.841-1.776.035-3.634.18-5.678.551m18.513 1.164c-.4 0-.774.094-1.055.211-.54.259-.658.493-.658 1.08v8.19h-2.532V6.663c0-.211 0-.422.023-.633.258-1.409 1.125-1.949 3.307-2.183.235-.024.492-.024.703-.024h1.478v1.596h-1.266zm4.25 9.482h2.532V3.822h-2.532V14.9zm.023-12.932c-.353-.21-.493-.492-.493-.821 0-.282.164-.563.493-.775.656-.492 1.83-.492 2.532-.023.681.445.681 1.174.024 1.62-.703.469-1.853.469-2.556 0zm10.124 6.9 6.6-2.042v-.282c0-.82-.469-1.15-1.9-1.15h-4.666c-1.478 0-2.065.494-2.065 1.597v4.904c.258 1.127.634 1.432 2.112 1.432h9.24V14.9h-9.429c-1.618 0-2.696-.305-3.588-1.08-.562-.47-.868-1.033-.868-1.76V6.944c0-2.09 1.62-3.122 5.09-3.122h4.245c2.697 0 4.363.986 4.363 2.746v1.244L34.91 10.75l.373-1.883zm14.368-3.473V14.9H47.12V.02h2.533v3.802h2.932v1.573h-2.932zm7.98 0V14.9h-2.534V.02h2.533v3.802h2.932v1.573h-2.932zm6.218-1.14-.09.016-.34 1.687.216-.065a19.453 19.453 0 0 1 5.555-.818c1.261 0 3.378.177 3.378 1.363 0 1.158-2.205 1.526-4.54 1.916-3.072.512-6.553 1.093-6.553 3.643 0 1.928 1.907 2.906 5.667 2.906.926 0 1.911-.07 3.013-.212l.08-.011.61-1.583-.25.058c-1.087.249-2.136.376-3.116.376-.771 0-3.286-.112-3.286-1.555 0-1.414 2.437-1.881 4.793-2.333 1.424-.273 2.888-.68 3.706-1.146V14.9h2.532V6.544c0-1.405-.478-2.946-5.698-2.841-1.776.035-3.633.18-5.677.551" fill="#FFF" fill-rule="evenodd"/>
</svg>
