<svg width="118" height="40" viewBox="0 0 118 40" xmlns="http://www.w3.org/2000/svg">
    <defs>
        <linearGradient x1="92.366%" y1="61.304%" x2="53.444%" y2="45.621%" id="vnx59286sa">
            <stop stop-color="#FFF" offset="0%"/>
            <stop stop-color="#FFF" offset="99.9%"/>
        </linearGradient>
        <linearGradient x1="84.822%" y1="30.633%" x2="39.186%" y2="45.572%" id="wgtcij2oqb">
            <stop stop-color="#FFF" offset="0%"/>
            <stop stop-color="#FFF" offset="99.9%"/>
        </linearGradient>
        <linearGradient x1="22.714%" y1="42.983%" x2="39.569%" y2="49.882%" id="0zzesrfmqc">
            <stop stop-color="#FFF" offset="0%"/>
            <stop stop-color="#FFF" offset="99.9%"/>
        </linearGradient>
    </defs>
    <g fill-rule="nonzero" fill="none">
        <path d="M15.19 24.35c-.619-.652-1.18-1.332-1.68-2.072a17.747 17.747 0 0 1-1.299-2.308 14.899 14.899 0 0 1-.501-1.213c-.265-.71-.472-1.45-.62-2.189a15.41 15.41 0 0 1-.294-3.106 15.59 15.59 0 0 1 4.07-10.533c.472-.503.973-1.006 1.534-1.45.383-.325.796-.621 1.21-.917.324-.177.619-.355.973-.562-.738.03-1.505.148-2.242.266-.502.089-1.003.207-1.504.326-.944.266-1.859.562-2.744.946a19.6 19.6 0 0 0-6.312 4.29A19.717 19.717 0 0 0 .265 16.42a13.72 13.72 0 0 0 5.752 8.402c.59.415 1.24.74 1.888 1.066.944.414 1.917.74 2.92.946.679.148 1.357.207 2.065.237.206 0 .383.03.56.03 1.416 0 2.832-.237 4.16-.651.206-.06.383-.148.59-.207a6.361 6.361 0 0 1-2.656-1.48c-.118-.177-.235-.296-.353-.414z" fill="url(#vnx59286sa)"/>
        <path d="M22.24 26.39c-.737.503-1.504.918-2.3 1.302a15.23 15.23 0 0 1-6.46 1.42h-.325a25.685 25.685 0 0 1-2.123-.177 15.774 15.774 0 0 1-3.275-.888 12.87 12.87 0 0 1-2.035-.976A16.14 16.14 0 0 1 0 21.331a19.786 19.786 0 0 0 5.81 12.811 20.407 20.407 0 0 0 2.891 2.396c1.092.74 2.242 1.361 3.451 1.894.354-.148.679-.325 1.062-.473.59-.296 1.15-.622 1.711-.977.59-.355 1.15-.769 1.71-1.183a19.601 19.601 0 0 0 1.86-1.657 19.792 19.792 0 0 0 3.922-5.562c.295-.621.56-1.272.796-1.923.148-.444.295-.858.413-1.302-.501.385-.943.71-1.386 1.036z" fill="url(#wgtcij2oqb)"/>
        <path d="M39.85 18.64c-.03-.74-.148-1.48-.266-2.22A20.064 20.064 0 0 0 23.479.237c-.442.088-.855.207-1.268.325-.797.266-1.564.592-2.301 1.006-.62.355-1.239.74-1.8 1.183-.56.415-1.061.888-1.533 1.391a13.682 13.682 0 0 0-3.717 9.379c0 .621.03 1.242.118 1.834.089.71.266 1.42.443 2.13 0 .089.03.148.088.207.089-.148.207-.325.325-.473.354-.503.737-.976 1.18-1.42.206-.266.442-.503.707-.71 1.15-1.006 2.655-1.539 4.16-1.539h.206c.501.03 1.003.09 1.504.237a6.54 6.54 0 0 1 1.947.917 6.29 6.29 0 0 1 2.006 2.308c.206.384.383.828.501 1.242a6.69 6.69 0 0 1 .236 1.716c0 .829-.03 1.657-.147 2.486-.177 1.538-.502 3.077-1.003 4.526-.207.68-.472 1.332-.767 1.982a22.34 22.34 0 0 1-6.312 8.196c-.56.444-1.121.858-1.711 1.242-.354.237-.708.444-1.062.68-.147.09-.295.178-.442.267 1.209.326 2.448.503 3.687.592-.03-.03-.03-.03-.06-.03.473.06.944.089 1.416.089 1.18 0 2.36-.089 3.54-.325 2.773-.503 5.398-1.568 7.698-3.166a20.407 20.407 0 0 0 2.891-2.397c2.89-2.87 4.808-6.597 5.545-10.591.118-.74.236-1.45.266-2.19.03-.443.03-.887.03-1.36.058-.444.029-.888 0-1.332z" fill="url(#0zzesrfmqc)"/>
        <g fill="#FFF">
            <path d="M52.371 22.462h.59l1.298 3.077 1.268-3.077h.59v3.521h-.413v-2.9l-1.239 2.9h-.442l-1.239-2.9v2.9h-.413zM57.179 25.924a1.212 1.212 0 0 1-.472-.473 1.454 1.454 0 0 1 0-1.39c.118-.208.265-.356.472-.474a1.442 1.442 0 0 1 1.386 0c.207.118.354.266.472.473.236.444.236.947 0 1.39a1.212 1.212 0 0 1-.472.474 1.442 1.442 0 0 1-1.386 0zm1.18-.296a.752.752 0 0 0 .324-.355.975.975 0 0 0 .118-.503.975.975 0 0 0-.118-.503.94.94 0 0 0-.324-.355.992.992 0 0 0-.502-.148c-.177 0-.354.03-.501.148a.752.752 0 0 0-.325.355.975.975 0 0 0-.118.503c0 .178.03.355.118.503a.94.94 0 0 0 .325.355.992.992 0 0 0 .501.148c.177-.03.325-.06.502-.148zM60.129 26.013a.58.58 0 0 1-.266-.267.913.913 0 0 1-.088-.384v-1.568h-.56v-.326h.56v-.74l.383-.088v.828h1.12v.326h-1.12v1.48c0 .117.03.265.118.354a.473.473 0 0 0 .324.148c.118 0 .266-.06.354-.148.089-.118.177-.237.207-.385l.324.148c-.059.415-.442.74-.855.71-.207 0-.354-.03-.501-.088zM62.164 25.924a1.212 1.212 0 0 1-.472-.473 1.454 1.454 0 0 1 0-1.39c.118-.208.265-.356.472-.474a1.442 1.442 0 0 1 1.386 0c.207.118.354.266.472.473.236.444.236.947 0 1.39a1.212 1.212 0 0 1-.472.474 1.367 1.367 0 0 1-.678.177c-.266 0-.502-.059-.708-.177zm1.18-.296a.752.752 0 0 0 .324-.355.975.975 0 0 0 .118-.503.975.975 0 0 0-.118-.503.94.94 0 0 0-.324-.355.992.992 0 0 0-.502-.148c-.177 0-.354.03-.501.148a.752.752 0 0 0-.325.355.975.975 0 0 0-.118.503c0 .178.03.355.118.503a.94.94 0 0 0 .325.355.992.992 0 0 0 .501.148c.177-.03.354-.06.502-.148zM64.553 23.498h.324l.03.385a.87.87 0 0 1 .295-.355.712.712 0 0 1 .796-.03.58.58 0 0 1 .266.266c.088.119.118.266.147.385l-.324.118c0-.148-.089-.266-.177-.384a.543.543 0 0 0-.354-.148.593.593 0 0 0-.325.088c-.088.09-.177.178-.206.296a1.19 1.19 0 0 0-.089.444v1.42h-.383v-2.485zM67.09 25.983a1.33 1.33 0 0 1-.413-.296.778.778 0 0 1-.207-.444l.384-.088c.03.118.059.207.118.296a.895.895 0 0 0 .678.295c.118 0 .236-.03.354-.059.088-.03.177-.088.265-.148a.318.318 0 0 0 .03-.414l-.03-.03a.373.373 0 0 0-.265-.118 2.522 2.522 0 0 0-.383-.089c-.207-.03-.384-.088-.531-.118a.707.707 0 0 1-.354-.207.708.708 0 0 1-.148-.414c0-.148.03-.266.118-.385a.923.923 0 0 1 .325-.266 1.3 1.3 0 0 1 .943 0c.118.06.266.148.354.237a.676.676 0 0 1 .177.355l-.354.088c-.029-.148-.088-.266-.206-.325a.876.876 0 0 0-.442-.148c-.089 0-.177.03-.266.06a.53.53 0 0 0-.206.147.32.32 0 0 0-.089.207c0 .089.03.148.089.207.059.06.118.09.177.09.059.029.206.029.472.088.177.03.353.089.501.148.118.059.265.118.354.207a.563.563 0 0 1 .147.384c0 .148-.03.296-.147.415a.959.959 0 0 1-.384.296.906.906 0 0 1-.56.088c-.118.06-.324.03-.501-.059zM70.895 23.794h-.56v-.326h.56v-.443c0-.148.03-.267.088-.385a.646.646 0 0 1 .295-.266.94.94 0 0 1 .413-.09c.147 0 .265.03.383.09.118.059.207.148.295.236a.476.476 0 0 1 .148.326l-.325.148c0-.119-.088-.237-.177-.326a.473.473 0 0 0-.324-.148c-.118 0-.236.03-.324.148-.089.089-.118.237-.118.355v.385h1.09v.325h-1.09v2.19h-.354v-2.22zM72.96 25.924a1.212 1.212 0 0 1-.473-.473 1.454 1.454 0 0 1 0-1.39c.118-.208.266-.356.472-.474a1.442 1.442 0 0 1 1.387 0c.206.118.354.266.472.473.236.444.236.947 0 1.39a1.212 1.212 0 0 1-.472.474 1.367 1.367 0 0 1-.679.177c-.236 0-.472-.059-.708-.177zm1.209-.296a.752.752 0 0 0 .324-.355.975.975 0 0 0 .118-.503.975.975 0 0 0-.118-.503.94.94 0 0 0-.324-.355.992.992 0 0 0-.502-.148c-.177 0-.354.03-.501.148a.752.752 0 0 0-.325.355.975.975 0 0 0-.118.503c0 .178.03.355.118.503a.94.94 0 0 0 .325.355.992.992 0 0 0 .501.148c.177-.03.325-.06.502-.148zM75.349 23.498h.324l.03.385a.87.87 0 0 1 .294-.355.712.712 0 0 1 .797-.03.58.58 0 0 1 .265.266c.089.119.118.266.148.385l-.325.118c0-.148-.088-.266-.177-.384a.543.543 0 0 0-.354-.148.593.593 0 0 0-.324.088c-.089.09-.177.178-.207.296a1.19 1.19 0 0 0-.088.444v1.42h-.383v-2.485zM79.124 22.344h.383v1.509a.751.751 0 0 1 .354-.325.967.967 0 0 1 .502-.119c.206 0 .383.03.56.148.148.089.295.237.384.385.088.177.147.384.147.562v1.509h-.383v-1.51a.821.821 0 0 0-.089-.384.58.58 0 0 0-.265-.266.814.814 0 0 0-.384-.089.814.814 0 0 0-.383.089c-.118.06-.207.177-.295.266a.68.68 0 0 0-.118.414v1.48h-.383l-.03-3.669zM83.637 23.557c.177.118.324.296.442.473.118.208.148.444.148.68v.149h-2.124c.03.148.06.325.148.444a.939.939 0 0 0 .354.325.967.967 0 0 0 .501.118c.177 0 .383-.03.531-.147a.854.854 0 0 0 .324-.326l.325.148a1.044 1.044 0 0 1-.443.503c-.236.118-.501.207-.737.207s-.501-.06-.708-.177a1.365 1.365 0 0 1-.501-.503 1.54 1.54 0 0 1-.03-1.39c.118-.208.266-.356.443-.474a1.26 1.26 0 0 1 .649-.178c.265-.03.501.03.678.148zm-1.062.266a.646.646 0 0 0-.295.267.708.708 0 0 0-.147.414h1.71a.708.708 0 0 0-.147-.414.646.646 0 0 0-.295-.267.906.906 0 0 0-.383-.088c-.148 0-.295.03-.443.088zM84.935 26.013a.805.805 0 0 1-.354-.267.652.652 0 0 1-.118-.384c0-.148.03-.266.118-.385a.702.702 0 0 1 .383-.266c.207-.089.413-.148.65-.148l.619-.089c.059 0 .118-.03.147-.059a.226.226 0 0 0 .06-.148c0-.089-.03-.207-.09-.266a.53.53 0 0 0-.265-.178 1.476 1.476 0 0 0-.354-.059.94.94 0 0 0-.413.089 1.06 1.06 0 0 0-.295.207c-.059.089-.118.178-.118.266l-.324-.148c.03-.148.088-.295.177-.384a1.33 1.33 0 0 1 .973-.414c.207 0 .384.03.56.118.148.06.296.177.384.325a.896.896 0 0 1 .148.474v1.272c0 .03 0 .089.029.118.03.03.059.03.089.03.029 0 .059-.03.088-.03.059-.03.089-.059.089-.118l.206.237a.69.69 0 0 1-.206.207l-.266.088c-.236 0-.413-.177-.413-.384v-.118a.698.698 0 0 1-.236.266.702.702 0 0 1-.324.177c-.148.03-.266.06-.413.06-.207 0-.384-.03-.531-.09zm1.032-.355c.118-.06.236-.178.325-.296.088-.119.118-.296.118-.444v-.177l-.767.088c-.207.03-.413.089-.62.178-.118.059-.177.177-.177.325 0 .119.06.237.177.296a.967.967 0 0 0 .502.118c.118 0 .295-.03.442-.088zM87.855 26.013a.58.58 0 0 1-.266-.267.913.913 0 0 1-.088-.384v-1.568h-.56v-.326h.56v-.74l.383-.088v.828h1.121v.326h-1.12v1.48c0 .117.029.265.117.354a.473.473 0 0 0 .325.148c.118 0 .265-.06.354-.148.088-.118.177-.237.206-.385l.325.148c-.06.415-.443.74-.856.71-.206 0-.383-.03-.501-.088zM89.36 22.936c-.119-.119-.119-.296 0-.385a.269.269 0 0 1 .207-.089c.088 0 .148.03.207.09.059.058.088.118.088.206 0 .089-.03.148-.088.207a.269.269 0 0 1-.207.09c-.06-.06-.148-.09-.208-.12zm.03.562h.384v2.515h-.385v-2.515zM90.274 23.498h.324l.03.385a.751.751 0 0 1 .354-.326.967.967 0 0 1 .5-.118c.207 0 .384.03.561.148.148.088.266.236.354.384.089.178.148.385.148.562v1.51h-.384v-1.51a.821.821 0 0 0-.088-.384.698.698 0 0 0-.236-.266.814.814 0 0 0-.384-.09.83.83 0 0 0-.707.385.68.68 0 0 0-.118.415v1.45h-.384v-2.545h.03zM93.46 27.167a1.638 1.638 0 0 1-.502-.267 2.233 2.233 0 0 1-.325-.414l.325-.207c.03.118.118.237.206.325.118.09.236.178.384.237.147.06.324.089.472.089.177 0 .383-.03.53-.148.148-.089.266-.207.354-.355a.975.975 0 0 0 .118-.503v-.355a1.043 1.043 0 0 1-.412.385 1.217 1.217 0 0 1-.56.147 1.26 1.26 0 0 1-.65-.177c-.177-.118-.354-.266-.442-.473-.118-.208-.148-.444-.148-.68 0-.238.06-.474.148-.681.088-.207.265-.355.442-.474a1.26 1.26 0 0 1 .65-.177c.206 0 .383.03.56.148.177.088.294.207.412.384l.03-.414h.324v2.426c0 .237-.059.474-.177.68a1.289 1.289 0 0 1-.501.474 1.595 1.595 0 0 1-.737.177 2.02 2.02 0 0 0-.502-.147zm1.179-1.568a.752.752 0 0 0 .324-.356.975.975 0 0 0 .118-.502.975.975 0 0 0-.118-.503.94.94 0 0 0-.796-.503c-.177 0-.324.03-.472.148a.752.752 0 0 0-.324.355.975.975 0 0 0-.118.503c0 .177.03.355.118.502.088.148.206.267.324.356a.863.863 0 0 0 .472.118c.148 0 .325-.03.472-.118zM52.636 30.894a.805.805 0 0 1-.353-.266.652.652 0 0 1-.118-.385c0-.147.03-.266.118-.384a.702.702 0 0 1 .383-.266 1.26 1.26 0 0 1 .649-.178l.62-.089c.058 0 .117-.03.147-.059a.226.226 0 0 0 .059-.148c0-.089-.03-.207-.089-.266a.53.53 0 0 0-.265-.178c-.118-.03-.236-.059-.354-.059a.94.94 0 0 0-.413.089 1.06 1.06 0 0 0-.295.207c-.089.089-.147.178-.147.296l-.325-.148c.03-.148.089-.296.177-.385a1.33 1.33 0 0 1 .413-.295 1.32 1.32 0 0 1 .56-.148c.207 0 .384.03.56.118.148.06.296.178.384.325a.896.896 0 0 1 .148.474v1.272c0 .03 0 .089.03.118.058.06.088.06.117.06.03 0 .06-.03.089-.03.059-.03.088-.06.088-.118l.207.236a.69.69 0 0 1-.207.207l-.265.09c-.236 0-.413-.178-.413-.385v-.119a.698.698 0 0 1-.236.266.702.702 0 0 1-.325.178c-.147.03-.265.06-.413.06-.177 0-.354 0-.53-.09zm1.033-.355c.118-.059.236-.177.324-.296.089-.118.118-.295.118-.443v-.178l-.767.089c-.206.03-.413.089-.619.177-.118.06-.177.178-.177.326 0 .118.059.237.177.296a.748.748 0 0 0 .501.118c.148 0 .295-.03.443-.089zM55.232 28.35h.325l.03.385a.751.751 0 0 1 .353-.326.967.967 0 0 1 .501-.118c.207 0 .384.03.56.148.148.089.266.236.355.384.088.178.147.385.147.563v1.508h-.383v-1.508A.821.821 0 0 0 57.03 29a.698.698 0 0 0-.236-.266c-.118-.09-.236-.119-.383-.09a.83.83 0 0 0-.708.385.68.68 0 0 0-.118.415v1.45h-.354V28.35zM58.447 30.806a1.044 1.044 0 0 1-.442-.503 1.103 1.103 0 0 1-.148-.68c0-.237.06-.474.148-.681.118-.207.265-.385.442-.503a1.26 1.26 0 0 1 .65-.178c.206 0 .383.03.56.148a.87.87 0 0 1 .413.385v-1.568h.383v3.668h-.324l-.03-.443a1.685 1.685 0 0 1-.413.384 1.32 1.32 0 0 1-.56.148c-.266 0-.502-.059-.679-.177zm1.18-.296a.817.817 0 0 0 .325-.385c.147-.325.147-.71 0-1.035a.94.94 0 0 0-.797-.503.992.992 0 0 0-.501.148.752.752 0 0 0-.325.355c-.147.325-.147.71 0 1.035a.94.94 0 0 0 .325.355.992.992 0 0 0 .501.148c.177.03.354-.03.472-.118zM62.311 28.35h.384l.826 2.19.855-2.19h.383l-1.002 2.515h-.502zM66.765 28.439c.177.118.325.296.443.473.118.207.147.444.147.68v.149h-2.094c.03.147.059.325.147.443a.939.939 0 0 0 .354.326.967.967 0 0 0 .502.118c.177 0 .383-.03.53-.148a.854.854 0 0 0 .325-.325l.325.148a1.044 1.044 0 0 1-.443.503c-.236.118-.501.207-.737.207s-.502-.06-.708-.178a1.365 1.365 0 0 1-.502-.503 1.54 1.54 0 0 1-.03-1.39c.119-.207.266-.355.443-.474a1.26 1.26 0 0 1 .65-.177c.235-.03.471.03.648.148zm-1.062.266a.646.646 0 0 0-.295.266.882.882 0 0 0-.147.444h1.71a.708.708 0 0 0-.147-.414.646.646 0 0 0-.295-.266.906.906 0 0 0-.383-.09.771.771 0 0 0-.443.06zM67.709 28.35h.324l.03.385a.751.751 0 0 1 .354-.326.967.967 0 0 1 .501-.118c.207 0 .384.03.56.148.148.089.266.236.355.384.088.178.147.385.147.563v1.508h-.383v-1.508a.821.821 0 0 0-.089-.385.698.698 0 0 0-.236-.266.814.814 0 0 0-.383-.09.83.83 0 0 0-.708.385.68.68 0 0 0-.118.415v1.45h-.383V28.35h.029zM71.013 30.894a.58.58 0 0 1-.266-.266.913.913 0 0 1-.088-.385v-1.538h-.56v-.325h.56v-.74l.383-.089v.829h1.121v.325h-1.12v1.48c0 .118.029.266.117.354a.473.473 0 0 0 .325.148c.118 0 .265-.059.353-.148.089-.118.177-.236.207-.384l.324.148c-.059.414-.442.74-.855.71-.206 0-.354-.06-.501-.119zM72.547 27.817c-.119-.118-.119-.295 0-.384a.269.269 0 0 1 .207-.089c.089 0 .148.03.207.089s.089.118.089.207-.03.148-.09.207a.269.269 0 0 1-.206.089.477.477 0 0 1-.207-.119zm0 .533h.384v2.515h-.384V28.35zM73.402 27.226h.383v3.668h-.383zM74.552 30.894a.805.805 0 0 1-.354-.266.652.652 0 0 1-.118-.385c0-.147.03-.266.118-.384a.702.702 0 0 1 .384-.266c.206-.09.413-.148.649-.148l.619-.09c.059 0 .118-.029.147-.058a.226.226 0 0 0 .06-.148c0-.089-.03-.207-.089-.266a.53.53 0 0 0-.266-.178c-.117-.03-.235-.06-.353-.06a.94.94 0 0 0-.413.09 1.06 1.06 0 0 0-.295.207c-.06.088-.118.177-.118.266l-.325-.148c.03-.148.089-.296.177-.385a1.33 1.33 0 0 1 .974-.414c.206 0 .383.03.56.119.147.059.295.177.383.325a.896.896 0 0 1 .148.473v1.273c0 .03 0 .088.03.118.029.03.058.03.088.03.03 0 .059-.03.088-.03.06-.03.089-.06.089-.118l.206.236a.69.69 0 0 1-.206.207l-.266.09c-.236 0-.413-.178-.413-.385v-.119a.698.698 0 0 1-.236.266.702.702 0 0 1-.324.178c-.147.03-.265.06-.413.06-.177 0-.354 0-.53-.09zm1.062-.355c.118-.059.236-.177.324-.296.089-.118.118-.295.118-.443v-.178l-.766.089c-.207.03-.413.089-.62.177-.118.06-.177.178-.177.326 0 .118.06.237.177.296a.967.967 0 0 0 .502.118c.118 0 .295-.03.442-.089zM77.502 30.894a.58.58 0 0 1-.266-.266.913.913 0 0 1-.088-.385v-1.538h-.56v-.325h.56v-.74l.383-.089v.829h1.121v.325h-1.12v1.48c0 .118.029.266.117.354a.473.473 0 0 0 .325.148c.118 0 .265-.059.354-.148.088-.118.177-.236.206-.384l.325.148c-.06.414-.443.74-.856.71-.236 0-.383-.06-.501-.119zM79.006 27.817c-.118-.118-.118-.295 0-.384a.269.269 0 0 1 .207-.089c.09 0 .148.03.208.089.059.059.088.118.088.207s-.03.148-.088.207a.269.269 0 0 1-.208.089c-.059-.03-.147-.06-.207-.119zm0 .533h.385v2.515h-.385V28.35zM80.451 30.806a1.212 1.212 0 0 1-.472-.474 1.454 1.454 0 0 1 0-1.39c.118-.207.266-.355.472-.474a1.442 1.442 0 0 1 1.387 0c.206.119.354.267.472.474.236.444.236.946 0 1.39a1.212 1.212 0 0 1-.472.474c-.443.266-.974.266-1.387 0zm1.18-.296a.752.752 0 0 0 .325-.355.975.975 0 0 0 .118-.503.975.975 0 0 0-.118-.503.94.94 0 0 0-.325-.355.992.992 0 0 0-.501-.148c-.177 0-.354.03-.502.148a.752.752 0 0 0-.324.355.975.975 0 0 0-.118.503c0 .177.03.355.118.503a.94.94 0 0 0 .324.355.992.992 0 0 0 .502.148c.177 0 .354-.06.501-.148zM82.84 28.35h.325l.03.385a.751.751 0 0 1 .353-.326.967.967 0 0 1 .502-.118c.206 0 .383.03.56.148.148.089.266.236.354.384.089.178.148.385.148.563v1.508h-.384v-1.508A.821.821 0 0 0 84.64 29a.698.698 0 0 0-.236-.266c-.118-.09-.236-.119-.384-.09a.83.83 0 0 0-.707.385.68.68 0 0 0-.118.415v1.45h-.384V28.35h.03zM53.875 15.599h4.543V14h-4.543v-2.367h5.103V9.918h-6.99v10.03h7.138v-1.716h-5.25zM66.352 17.551l-3.097-7.633h-2.507v10.03h1.888v-6.805l2.831 6.805h1.77l2.832-6.805v6.805h1.887V9.918H69.42zM86.734 19.948h1.947v-4.083h3.864v-1.627H88.68v-2.574h4.69V9.888h-6.637v10.06zM94.52 9.918h1.948v10H94.52zM103.724 17.551l-3.068-7.633H98.15v10.03h1.888v-6.805l2.831 6.805h1.77l2.832-6.805v6.805h1.888V9.918h-2.508zM112.75 18.232v-2.633h4.542V14h-4.542v-2.367h5.103V9.918h-6.991v10.03H118v-1.716zM76.912 11.782a3.01 3.01 0 0 1 1.593-.444c.413 0 .826.089 1.209.266.383.178.708.444.973.74.266.326.472.68.59 1.095l.03.148 1.829-.444-.03-.148a4.377 4.377 0 0 0-.944-1.746 5.082 5.082 0 0 0-1.622-1.213 4.625 4.625 0 0 0-2.006-.443 5.23 5.23 0 0 0-2.596.68c-.766.444-1.386 1.124-1.799 1.894a6.158 6.158 0 0 0 0 5.473 4.632 4.632 0 0 0 1.8 1.893c.796.474 1.68.71 2.595.68a4.72 4.72 0 0 0 2.006-.443c.62-.296 1.18-.71 1.622-1.213a4.377 4.377 0 0 0 .944-1.745l.03-.148-1.83-.444-.029.148a3.03 3.03 0 0 1-.59 1.094c-.265.326-.59.563-.973.74a2.878 2.878 0 0 1-1.21.266 3.01 3.01 0 0 1-1.592-.443 3.135 3.135 0 0 1-1.121-1.273 4.561 4.561 0 0 1 0-3.727 3.745 3.745 0 0 1 1.12-1.243z"/>
        </g>
    </g>
</svg>
