<svg width="94" height="16" viewBox="0 0 94 16" xmlns="http://www.w3.org/2000/svg" xmlns:xlink="http://www.w3.org/1999/xlink">
    <defs>
        <path id="1qjv410cva" d="M0 0h13.282v15.994H0z"/>
        <path id="19vsl1vgzc" d="M0 0h10.817v15.99H0z"/>
    </defs>
    <g fill="none" fill-rule="evenodd">
        <g transform="translate(15.258 .006)">
            <mask id="khvn7eswpb" fill="#fff">
                <use xlink:href="#1qjv410cva"/>
            </mask>
            <path d="M0 0h5.56l.006 14.011s-.006.435.384.442l1.354-.003s.498.014.495-.435L7.792.004 13.282 0v14.457s-.007 1.537-1.555 1.537H2.011S.004 15.98.007 14.454L0 0z" fill="#FFF" mask="url(#khvn7eswpb)"/>
        </g>
        <g transform="translate(30.989)">
            <mask id="2hnir81fkd" fill="#fff">
                <use xlink:href="#19vsl1vgzc"/>
            </mask>
            <path fill="#FFF" mask="url(#2hnir81fkd)" d="M0 .009v1.637h2.645V15.99h5.51l.017-14.327h2.645V0z"/>
        </g>
        <path fill="#FFF" d="m44.03.1 5.526-.01v15.904h-5.518zM86.222 7.136h4.92v-5.72h-4.92v5.72zm0 7.296h4.92v-5.72h-4.92v5.72zm-7.74-7.296h4.92v-5.72h-4.92v5.72zm0 7.296h4.92v-5.72h-4.92v5.72zm-2.833 1.547H94V.002H75.65V15.98zM7.467 2.302v6.552c0 .534-.485.51-.485.51H5.67V1.67h1.286c.534 0 .51.63.51.63M11.462.007H0v15.993h5.743v-4.864h5.705c1.82 0 1.82-1.65 1.82-1.65V2.18c0-2.156-1.806-2.174-1.806-2.174M58.818 11.779h9.701v-1.326h-9.7v1.326zm0 2.678h9.701v-1.325h-9.7v1.325zm-3.074 1.522H71.65V9.157H55.744v6.822zM62.82 6.71H64.6V2.974H62.82V6.71zm8.186 0 .864-2.862h-2.625l-.897 2.884H67.7v-3.78h5.953l.011-1.318h-5.1L70.131.099 67.267.09l-2.01 1.566h-3.095L60.152.089l-2.864.01 1.567 1.535h-5.1l.01 1.317h5.955v3.781h-.649l-.896-2.884h-2.626l.864 2.863h-2.669v1.555h19.931V6.711h-2.669z"/>
    </g>
</svg>
