<?xml version="1.0" encoding="UTF-8" standalone="no"?>
<!-- Created with Inkscape (http://www.inkscape.org/) -->

<svg
   width="45.827667mm"
   height="24.44136mm"
   viewBox="0 0 45.827667 24.44136"
   version="1.1"
   id="svg4300"
   inkscape:version="1.1.1 (1:1.1+202109281949+c3084ef5ed)"
   sodipodi:docname="logo-white.svg"
   xmlns:inkscape="http://www.inkscape.org/namespaces/inkscape"
   xmlns:sodipodi="http://sodipodi.sourceforge.net/DTD/sodipodi-0.dtd"
   xmlns="http://www.w3.org/2000/svg"
   xmlns:svg="http://www.w3.org/2000/svg">
  <sodipodi:namedview
     id="namedview4302"
     pagecolor="#ffffff"
     bordercolor="#666666"
     borderopacity="1.0"
     inkscape:pageshadow="2"
     inkscape:pageopacity="0.0"
     inkscape:pagecheckerboard="0"
     inkscape:document-units="mm"
     showgrid="false"
     inkscape:zoom="0.69041105"
     inkscape:cx="404.83129"
     inkscape:cy="262.16266"
     inkscape:window-width="2560"
     inkscape:window-height="1321"
     inkscape:window-x="0"
     inkscape:window-y="26"
     inkscape:window-maximized="1"
     inkscape:current-layer="layer1" />
  <defs
     id="defs4297">
    <clipPath
       clipPathUnits="userSpaceOnUse"
       id="clipPath1037">
      <path
         d="m 349.769,103.588 h 142.352 v 80.663 H 349.769 Z"
         id="path1035" />
    </clipPath>
  </defs>
  <g
     inkscape:label="Livello 1"
     inkscape:groupmode="layer"
     id="layer1"
     transform="translate(2.2196403,-78.987053)">
    <g
       id="g1031"
       transform="matrix(0.35277777,0,0,-0.35277777,-127.92138,142.13826)">
      <g
         id="g1033"
         clip-path="url(#clipPath1037)">
        <g
           id="g1039"
           transform="translate(441.874,117.5982)">
          <path
             d="M 0,0 H 1.348 C 2.446,0 3.095,-0.283 3.644,-1.015 4.093,-1.614 4.31,-2.379 4.31,-3.394 4.31,-4.559 4.026,-5.391 3.377,-6.056 2.779,-6.672 2.213,-6.872 1.181,-6.872 H 0 Z m 1.298,-7.62 c 1.314,0 2.229,0.249 3.012,0.798 1.064,0.766 1.663,2.047 1.663,3.578 0,1.164 -0.349,2.096 -1.065,2.861 -0.831,0.882 -1.58,1.115 -3.41,1.115 H -2.729 V 0.366 l 1.248,-0.499 V -6.755 L -2.729,-7.238 V -7.62 Z"
             style="fill:#ffffff;fill-opacity:1;fill-rule:nonzero;stroke:none"
             id="path1041" />
        </g>
        <g
           id="g1043"
           transform="translate(448.568,109.9779)">
          <path
             d="M 0,0 V 0.383 L 1.248,0.865 V 7.487 L 0,7.986 V 8.352 H 3.977 V 7.986 L 2.729,7.487 V 0.865 L 3.977,0.383 V 0 Z"
             style="fill:#ffffff;fill-opacity:1;fill-rule:nonzero;stroke:none"
             id="path1045" />
        </g>
        <g
           id="g1047"
           transform="translate(459.3773,120.4104)">
          <path
             d="M 0,0 H 1.148 C 2.097,0 2.562,-0.2 2.995,-0.732 3.345,-1.198 3.511,-1.797 3.511,-2.479 3.511,-3.178 3.345,-3.76 2.995,-4.21 2.529,-4.809 1.897,-5.058 0.765,-5.058 H 0 Z m 1.73,-10.432 v 0.415 L 0,-9.434 v 3.727 h 1.165 c 2.463,0 4.01,1.265 4.01,3.278 0,0.948 -0.316,1.697 -0.965,2.263 C 3.527,0.433 2.695,0.666 1.231,0.666 H -2.978 V 0.249 l 1.397,-0.582 v -9.101 l -1.397,-0.583 v -0.415 z"
             style="fill:#ffffff;fill-opacity:1;fill-rule:nonzero;stroke:none"
             id="path1049" />
        </g>
        <g
           id="g1051"
           transform="translate(465.6466,109.9779)">
          <path
             d="M 0,0 V 0.383 L 1.248,0.865 V 7.487 L 0,7.986 V 8.352 H 3.977 V 7.986 L 2.729,7.487 V 0.865 L 3.977,0.383 V 0 Z"
             style="fill:#ffffff;fill-opacity:1;fill-rule:nonzero;stroke:none"
             id="path1053" />
        </g>
        <g
           id="g1055"
           transform="translate(471.061,110.2275)">
          <path
             d="M 0,0 V 1.98 H 0.515 L 1.164,0.482 C 1.68,0.366 1.93,0.333 2.279,0.333 c 1.098,0 1.697,0.466 1.697,1.331 0,0.599 -0.216,0.865 -1.081,1.414 L 1.597,3.877 c -1.165,0.732 -1.514,1.214 -1.514,2.13 0,1.38 1.048,2.279 2.712,2.279 0.582,0 1.414,-0.1 2.213,-0.266 l 0.2,-0.05 V 6.04 H 4.692 L 4.059,7.471 C 3.61,7.521 3.377,7.537 3.094,7.537 1.98,7.537 1.397,7.138 1.397,6.389 1.397,5.89 1.564,5.69 2.429,5.158 L 3.81,4.276 C 5.224,3.411 5.54,2.962 5.54,1.947 c 0,-1.431 -1.164,-2.363 -2.961,-2.363 -0.549,0 -1.415,0.133 -2.413,0.383 z"
             style="fill:#ffffff;fill-opacity:1;fill-rule:nonzero;stroke:none"
             id="path1057" />
        </g>
        <g
           id="g1059"
           transform="translate(481.4001,116.8497)">
          <path
             d="M 0,0 0.149,-0.433 0.366,-1.015 1.065,-2.978 H -1.198 Z M 1.215,-3.561 2.096,-6.007 1.065,-6.489 v -0.383 h 3.76 v 0.383 L 3.71,-6.007 0.849,1.564 h -0.965 l -3.179,-7.571 -1.114,-0.482 v -0.383 h 3.078 v 0.383 l -1.015,0.482 0.915,2.446 z"
             style="fill:#ffffff;fill-opacity:1;fill-rule:nonzero;stroke:none"
             id="path1061" />
        </g>
        <g
           id="g1063"
           transform="translate(356.3199,120.6597)">
          <path
             d="M 0,0 V 0.416 H 4.376 V 0 L 2.978,-0.582 v -6.656 c 0,-1.996 0.865,-2.878 2.796,-2.878 2.029,0 2.928,0.865 2.928,2.795 v 6.739 L 7.304,0 v 0.416 h 3.894 V 0 L 9.783,-0.582 v -6.373 c 0,-1.697 -0.432,-2.645 -1.53,-3.328 -0.749,-0.465 -1.514,-0.648 -2.762,-0.648 -2.812,0 -4.093,1.114 -4.093,3.56 v 6.789 z"
             style="fill:#ffffff;fill-opacity:1;fill-rule:nonzero;stroke:none"
             id="path1065" />
        </g>
        <g
           id="g1067"
           transform="translate(367.4391,109.9779)">
          <path
             d="M 0,0 V 0.383 L 1.248,0.865 V 7.487 L 0,7.986 V 8.352 H 2.512 L 7.121,2.379 V 7.487 L 5.874,7.986 V 8.352 H 9.185 V 7.986 L 7.953,7.487 v -7.57 H 7.271 L 2.08,6.739 V 0.865 L 3.311,0.383 V 0 Z"
             style="fill:#ffffff;fill-opacity:1;fill-rule:nonzero;stroke:none"
             id="path1069" />
        </g>
        <g
           id="g1071"
           transform="translate(377.7059,109.9779)">
          <path
             d="M 0,0 V 0.383 L 1.248,0.865 V 7.487 L 0,7.986 V 8.352 H 3.977 V 7.986 L 2.729,7.487 V 0.865 L 3.977,0.383 V 0 Z"
             style="fill:#ffffff;fill-opacity:1;fill-rule:nonzero;stroke:none"
             id="path1073" />
        </g>
        <g
           id="g1075"
           transform="translate(385.8753,109.8946)">
          <path
             d="M 0,0 -2.928,7.571 -3.96,8.07 v 0.366 h 3.644 V 8.07 L -1.348,7.571 0.399,2.646 C 0.482,2.413 0.549,2.213 0.699,1.73 L 3.012,7.571 1.997,8.07 V 8.436 H 4.975 V 8.07 L 3.91,7.571 0.799,0 Z"
             style="fill:#ffffff;fill-opacity:1;fill-rule:nonzero;stroke:none"
             id="path1077" />
        </g>
        <g
           id="g1079"
           transform="translate(393.8616,113.9545)">
          <path
             d="M 0,0 V -3.311 H 2.779 L 3.561,-2.08 H 4.06 l -0.2,-1.897 h -6.589 v 0.383 l 1.248,0.483 V 3.511 L -2.729,4.01 V 4.376 H 3.81 V 2.479 H 3.294 L 2.695,3.81 H 0 V 0.582 h 2.196 l 0.45,1.065 H 3.145 V -1.081 H 2.646 L 2.196,0 Z"
             style="fill:#ffffff;fill-opacity:1;fill-rule:nonzero;stroke:none"
             id="path1081" />
        </g>
        <g
           id="g1083"
           transform="translate(401.7853,117.7648)">
          <path
             d="m 0,0 h 0.948 c 0.999,0 1.498,-0.516 1.498,-1.564 0,-1.048 -0.566,-1.664 -1.531,-1.664 H 0 Z m 0.482,-3.81 2.929,-3.977 h 2.096 v 0.383 l -0.981,0.482 -2.463,3.295 c 1.331,0.449 1.963,1.164 1.963,2.213 0,0.649 -0.282,1.198 -0.781,1.547 C 2.762,0.482 2.346,0.566 1.231,0.566 h -3.96 V 0.2 l 1.248,-0.499 v -6.623 l -1.248,-0.482 v -0.383 h 3.977 v 0.383 L 0,-6.922 v 3.112 z"
             style="fill:#ffffff;fill-opacity:1;fill-rule:nonzero;stroke:none"
             id="path1085" />
        </g>
        <g
           id="g1087"
           transform="translate(408.1129,110.2275)">
          <path
             d="M 0,0 V 1.98 H 0.516 L 1.165,0.482 C 1.68,0.366 1.93,0.333 2.279,0.333 c 1.099,0 1.698,0.466 1.698,1.331 0,0.599 -0.217,0.865 -1.082,1.414 L 1.597,3.877 c -1.164,0.732 -1.514,1.214 -1.514,2.13 0,1.38 1.049,2.279 2.712,2.279 0.583,0 1.415,-0.1 2.213,-0.266 l 0.2,-0.05 V 6.04 H 4.692 L 4.06,7.471 C 3.611,7.521 3.378,7.537 3.095,7.537 1.98,7.537 1.398,7.138 1.398,6.389 1.398,5.89 1.564,5.69 2.429,5.158 L 3.81,4.276 C 5.224,3.411 5.541,2.962 5.541,1.947 c 0,-1.431 -1.165,-2.363 -2.962,-2.363 -0.549,0 -1.414,0.133 -2.413,0.383 z"
             style="fill:#ffffff;fill-opacity:1;fill-rule:nonzero;stroke:none"
             id="path1089" />
        </g>
        <g
           id="g1091"
           transform="translate(414.7263,109.9779)">
          <path
             d="M 0,0 V 0.383 L 1.248,0.865 V 7.487 L 0,7.986 V 8.352 H 3.977 V 7.986 L 2.729,7.487 V 0.865 L 3.977,0.383 V 0 Z"
             style="fill:#ffffff;fill-opacity:1;fill-rule:nonzero;stroke:none"
             id="path1093" />
        </g>
        <g
           id="g1095"
           transform="translate(422.4813,110.8431)">
          <path
             d="M 0,0 V 6.839 H -1.814 L -2.464,5.424 H -2.98 V 7.487 H 4.459 V 5.424 H 3.96 L 3.394,6.839 H 1.481 V 0 l 1.331,-0.483 v -0.382 h -4.143 v 0.382 z"
             style="fill:#ffffff;fill-opacity:1;fill-rule:nonzero;stroke:none"
             id="path1097" />
        </g>
        <g
           id="g1099"
           transform="translate(430.792,116.8497)">
          <path
             d="M 0,0 0.149,-0.433 0.366,-1.015 1.065,-2.978 H -1.198 Z M 1.215,-3.561 2.097,-6.007 1.065,-6.489 v -0.383 h 3.76 v 0.383 L 3.71,-6.007 0.849,1.564 h -0.965 l -3.178,-7.571 -1.115,-0.482 v -0.383 h 3.078 v 0.383 l -1.015,0.482 0.915,2.446 z m -1.847,8.203 h -2.28 L 0.283,2.229 h 0.832 z"
             style="fill:#ffffff;fill-opacity:1;fill-rule:nonzero;stroke:none"
             id="path1101" />
        </g>
        <g
           id="g1103"
           transform="translate(414.4847,132.7002)">
          <path
             d="M 0,0 0.705,2.119 -0.53,2.278 -0.466,2.471 C 0.005,2.463 0.356,2.494 0.831,2.587 1.155,2.65 1.204,2.663 1.402,2.745 L 1.595,2.681 0.633,-0.211 1.284,-0.679 1.228,-0.845 l -2.052,0.682 0.056,0.167 z"
             style="fill:#ffffff;fill-opacity:1;fill-rule:nonzero;stroke:none"
             id="path1105" />
        </g>
        <g
           id="g1107"
           transform="translate(417.3667,130.4333)">
          <path
             d="M 0,0 0.116,0.997 0.368,0.968 0.544,0.24 C 0.688,0.202 0.798,0.175 1.014,0.15 1.44,0.1 1.67,0.137 1.906,0.279 2.136,0.429 2.291,0.673 2.324,0.951 2.388,1.502 2.046,1.896 1.446,1.966 L 1.216,1.993 1.252,2.307 1.336,2.297 C 1.998,2.219 2.361,2.474 2.429,3.06 2.491,3.59 2.217,3.905 1.645,3.972 1.477,3.991 1.246,4.004 1.104,3.999 L 0.694,3.213 0.45,3.242 0.563,4.211 C 1.095,4.283 1.592,4.31 1.899,4.274 2.764,4.173 3.249,3.721 3.175,3.093 3.109,2.528 2.65,2.164 1.934,2.093 2.69,1.962 3.129,1.486 3.056,0.866 2.965,0.085 2.209,-0.336 1.128,-0.21 c -0.3,0.035 -0.474,0.063 -1.017,0.19 z"
             style="fill:#ffffff;fill-opacity:1;fill-rule:nonzero;stroke:none"
             id="path1109" />
        </g>
        <g
           id="g1111"
           transform="translate(422.6914,131.5571)">
          <path
             d="m 0,0 0.114,0.189 0.343,0.559 0.369,0.646 0.43,0.744 0.065,0.121 0.222,-2.095 z m 1.702,-1.331 0.593,0.064 -0.11,1.04 0.656,0.069 L 2.793,0.297 2.137,0.227 1.819,3.215 1.54,3.186 l -2.123,-3.481 0.024,-0.223 2.15,0.228 z"
             style="fill:#ffffff;fill-opacity:1;fill-rule:nonzero;stroke:none"
             id="path1113" />
        </g>
        <g
           id="g1115"
           transform="translate(427.6786,130.8657)">
          <path
             d="m 0,0 -0.326,0.95 0.239,0.082 0.474,-0.58 C 0.533,0.48 0.644,0.503 0.85,0.574 1.255,0.713 1.447,0.846 1.598,1.076 1.74,1.31 1.776,1.597 1.684,1.862 1.504,2.387 1.025,2.594 0.454,2.398 L 0.235,2.323 0.132,2.621 0.212,2.649 C 0.843,2.865 1.059,3.251 0.868,3.809 0.694,4.314 0.311,4.479 -0.234,4.293 -0.393,4.238 -0.607,4.149 -0.733,4.084 L -0.763,3.197 -0.996,3.118 -1.313,4.041 c 0.449,0.295 0.886,0.534 1.178,0.634 C 0.689,4.958 1.321,4.759 1.526,4.162 1.711,3.623 1.454,3.097 0.84,2.723 1.577,2.932 2.179,2.693 2.382,2.102 2.637,1.358 2.137,0.652 1.108,0.298 0.822,0.201 0.654,0.15 0.109,0.03 Z"
             style="fill:#ffffff;fill-opacity:1;fill-rule:nonzero;stroke:none"
             id="path1117" />
        </g>
        <g
           id="g1119"
           transform="translate(408.6955,135.7944)">
          <path
             d="M 0,0 C -0.374,0.269 -0.456,0.805 -0.18,1.189 0.096,1.572 0.631,1.664 1.005,1.395 1.383,1.122 1.466,0.586 1.19,0.202 0.913,-0.181 0.379,-0.273 0,0"
             style="fill:#ffffff;fill-opacity:1;fill-rule:nonzero;stroke:none"
             id="path1121" />
        </g>
        <g
           id="g1123"
           transform="translate(406.2723,142.1809)">
          <path
             d="m 0,0 -0.125,-0.089 -0.474,0.296 -2.738,-1.943 0.123,-0.545 -0.125,-0.089 -0.938,1.321 0.125,0.089 0.478,-0.301 2.738,1.944 -0.127,0.549 0.125,0.089 z"
             style="fill:#ffffff;fill-opacity:1;fill-rule:nonzero;stroke:none"
             id="path1125" />
        </g>
        <g
           id="g1127"
           transform="translate(404.5959,144.5577)">
          <path
             d="m 0,0 -0.14,-0.062 -0.405,0.385 -3.073,-1.353 0.011,-0.559 -0.14,-0.062 -0.408,0.927 1.807,3.238 -2.371,-1.044 0.011,-0.559 -0.14,-0.062 -0.555,1.259 0.141,0.062 0.407,-0.391 3.466,1.526 0.074,-0.168 -2.096,-3.707 2.73,1.202 -0.014,0.565 0.141,0.061 z"
             style="fill:#ffffff;fill-opacity:1;fill-rule:nonzero;stroke:none"
             id="path1129" />
        </g>
        <g
           id="g1131"
           transform="translate(401.987,152.2493)">
          <path
             d="m 0,0 -0.901,-0.055 -0.013,0.221 0.741,0.346 c 0.015,0.161 0.014,0.284 0.003,0.456 -0.034,0.569 -0.279,0.856 -0.708,0.83 -0.3,-0.019 -0.435,-0.131 -0.685,-0.571 L -1.912,0.603 C -2.095,0.266 -2.187,0.156 -2.363,0.029 c -0.154,-0.108 -0.31,-0.161 -0.513,-0.173 -0.643,-0.039 -1.107,0.406 -1.15,1.111 -0.006,0.104 10e-4,0.289 0.009,0.462 0.01,0.135 0.022,0.247 0.036,0.322 l 0.04,0.26 0.013,0.087 0.87,0.053 0.014,-0.227 -0.718,-0.332 -0.003,-0.05 c -0.003,-0.16 -0.006,-0.203 0,-0.313 0.038,-0.613 0.245,-0.89 0.649,-0.865 0.282,0.017 0.399,0.117 0.643,0.556 l 0.371,0.674 c 0.228,0.408 0.261,0.459 0.426,0.586 0.164,0.127 0.375,0.201 0.608,0.215 C -0.388,2.436 0.078,1.954 0.126,1.158 0.138,0.968 0.118,0.684 0.073,0.416 L 0.014,0.068 Z"
             style="fill:#ffffff;fill-opacity:1;fill-rule:nonzero;stroke:none"
             id="path1133" />
        </g>
        <g
           id="g1135"
           transform="translate(398.0891,156.6526)">
          <path
             d="M 0,0 -0.152,0.025 0.107,1.618 0.258,1.594 0.388,1.05 2.812,0.657 C 3.539,0.539 3.911,0.802 4.025,1.505 4.145,2.244 3.883,2.623 3.18,2.737 L 0.726,3.135 0.431,2.66 0.28,2.685 0.51,4.103 0.661,4.078 0.79,3.529 3.111,3.152 C 3.729,3.052 4.049,2.838 4.232,2.398 4.358,2.098 4.379,1.808 4.305,1.354 4.139,0.33 3.658,-0.071 2.767,0.074 L 0.295,0.475 Z"
             style="fill:#ffffff;fill-opacity:1;fill-rule:nonzero;stroke:none"
             id="path1137" />
        </g>
        <g
           id="g1139"
           transform="translate(399.8748,163.6694)">
          <path
             d="M 0,0 0.161,0.392 C 0.294,0.715 0.427,0.847 0.67,0.919 0.878,0.973 1.105,0.946 1.338,0.851 1.577,0.753 1.752,0.614 1.856,0.432 1.996,0.189 1.992,-0.062 1.833,-0.448 L 1.726,-0.709 Z M 3.803,-0.872 3.661,-0.813 3.22,-1.322 1.948,-0.8 2.111,-0.402 C 2.456,0.438 2.242,1.143 1.554,1.425 1.231,1.558 0.931,1.555 0.647,1.413 0.347,1.264 0.151,1.013 -0.055,0.514 l -0.59,-1.437 0.142,-0.058 0.395,0.395 3.106,-1.276 0.003,-0.558 0.142,-0.059 z"
             style="fill:#ffffff;fill-opacity:1;fill-rule:nonzero;stroke:none"
             id="path1141" />
        </g>
        <g
           id="g1143"
           transform="translate(402.1934,168.1498)">
          <path
             d="M 0,0 0.245,0.353 C 0.515,0.741 0.906,0.798 1.319,0.511 1.738,0.22 1.85,-0.231 1.591,-0.604 L 1.356,-0.942 Z M 1.684,-0.901 4.054,-0.91 4.614,-0.104 4.489,-0.016 4.034,-0.283 1.943,-0.334 C 2.209,0.222 2.095,0.757 1.642,1.072 1.385,1.251 1.098,1.3 0.822,1.215 0.546,1.13 0.397,1.002 0.12,0.604 l -0.949,-1.366 0.126,-0.088 0.471,0.301 2.758,-1.916 -0.118,-0.546 0.126,-0.088 0.925,1.332 -0.126,0.087 -0.474,-0.306 -1.301,0.904 z"
             style="fill:#ffffff;fill-opacity:1;fill-rule:nonzero;stroke:none"
             id="path1145" />
        </g>
        <g
           id="g1147"
           transform="translate(406.9787,170.9357)">
          <path
             d="m 0,0 1.132,-1.236 1,0.916 L 1.952,0.423 2.101,0.559 2.672,-0.2 0.508,-2.182 0.405,-2.069 0.64,-1.562 -1.628,0.914 -2.154,0.725 -2.257,0.838 -0.112,2.803 0.51,2.124 0.361,1.987 -0.308,2.29 -1.281,1.399 -0.166,0.181 0.654,0.932 0.434,1.48 0.57,1.604 1.478,0.613 1.342,0.489 0.819,0.75 Z"
             style="fill:#ffffff;fill-opacity:1;fill-rule:nonzero;stroke:none"
             id="path1149" />
        </g>
        <g
           id="g1151"
           transform="translate(412.3897,173.6587)">
          <path
             d="M 0,0 -0.312,3.301 0.724,3.837 0.794,3.701 0.43,3.27 1.973,0.288 2.535,0.337 2.606,0.201 1.166,-0.544 1.096,-0.408 1.46,0.023 0.07,2.711 0.406,-0.972 0.297,-1.028 l -2.79,2.413 1.391,-2.688 0.562,0.049 0.07,-0.136 -1.221,-0.632 -0.07,0.136 0.359,0.428 -1.543,2.982 -0.557,-0.046 -0.07,0.136 1.074,0.556 z"
             style="fill:#ffffff;fill-opacity:1;fill-rule:nonzero;stroke:none"
             id="path1153" />
        </g>
        <g
           id="g1155"
           transform="translate(417.1631,176.5033)">
          <path
             d="M 0,0 0.534,1.864 0.823,0.138 Z M 1.105,-1.539 0.687,-1.833 0.713,-1.984 3.437,-1.527 3.383,-0.577 3.165,-0.614 2.907,-1.336 1.69,-1.54 1.423,0.052 2.404,0.217 2.7,-0.287 2.887,-0.256 2.665,1.07 2.477,1.038 2.363,0.459 1.382,0.294 1.099,1.983 2.285,2.183 2.681,1.564 2.893,1.6 2.741,2.508 0.344,2.106 l -1.31,-3.992 -0.417,-0.294 0.025,-0.152 1.326,0.223 -0.025,0.151 -0.492,0.148 0.442,1.518 0.975,0.164 z"
             style="fill:#ffffff;fill-opacity:1;fill-rule:nonzero;stroke:none"
             id="path1157" />
        </g>
        <g
           id="g1159"
           transform="translate(426.5945,178.1497)">
          <path
             d="M 0,0 0.635,-0.17 C 1.18,-0.316 1.468,-0.545 1.638,-0.978 1.783,-1.341 1.788,-1.749 1.655,-2.247 1.499,-2.829 1.24,-3.204 0.829,-3.456 0.457,-3.681 0.158,-3.709 -0.352,-3.572 l -0.564,0.15 z m -0.37,-3.853 c 0.593,-0.159 1.026,-0.154 1.442,0.02 0.573,0.241 0.994,0.77 1.186,1.488 0.149,0.557 0.112,1.037 -0.107,1.477 -0.244,0.491 -0.603,0.74 -1.374,0.946 L -0.99,0.551 -1.03,0.403 -0.587,0.062 -1.455,-3.182 -2.009,-3.256 -2.048,-3.404 Z"
             style="fill:#ffffff;fill-opacity:1;fill-rule:nonzero;stroke:none"
             id="path1161" />
        </g>
        <g
           id="g1163"
           transform="translate(429.5185,173.1462)">
          <path
             d="M 0,0 0.07,0.137 0.627,0.092 2.159,3.08 1.799,3.507 1.869,3.643 3.311,2.904 3.241,2.767 2.678,2.814 1.146,-0.174 1.512,-0.603 1.442,-0.74 Z"
             style="fill:#ffffff;fill-opacity:1;fill-rule:nonzero;stroke:none"
             id="path1165" />
        </g>
        <g
           id="g1167"
           transform="translate(435.6106,170.6566)">
          <path
             d="m 0,0 -0.726,-0.897 -0.077,0.031 c -0.48,0.207 -0.815,0.398 -1.139,0.661 -0.531,0.428 -0.78,0.851 -0.804,1.368 -0.023,0.509 0.153,0.99 0.527,1.453 0.436,0.539 0.98,0.85 1.561,0.885 C -0.12,3.532 0.357,3.359 0.9,2.919 1.225,2.657 1.411,2.467 1.684,2.112 L 1.735,2.047 1.159,1.336 0.978,1.483 1.238,2.244 C 1.148,2.356 1.046,2.454 0.883,2.586 0.387,2.987 0.005,3.13 -0.442,3.066 -0.916,3.007 -1.325,2.745 -1.707,2.273 c -0.698,-0.864 -0.647,-1.719 0.145,-2.36 0.171,-0.138 0.356,-0.272 0.471,-0.334 l 0.637,0.788 -0.269,0.486 0.096,0.12 1.26,-1.019 -0.096,-0.12 z"
             style="fill:#ffffff;fill-opacity:1;fill-rule:nonzero;stroke:none"
             id="path1169" />
        </g>
        <g
           id="g1171"
           transform="translate(435.9546,168.489)">
          <path
             d="M 0,0 0.124,0.091 0.602,-0.198 3.31,1.788 3.178,2.331 3.302,2.422 3.901,1.605 2.836,-1.947 4.925,-0.415 4.793,0.128 4.917,0.219 5.731,-0.89 5.607,-0.981 5.125,-0.687 2.071,-2.927 1.962,-2.779 3.207,1.294 0.802,-0.47 0.937,-1.018 0.814,-1.109 Z"
             style="fill:#ffffff;fill-opacity:1;fill-rule:nonzero;stroke:none"
             id="path1173" />
        </g>
        <g
           id="g1175"
           transform="translate(438.8922,164.0577)">
          <path
             d="M 0,0 0.139,0.064 0.55,-0.315 3.601,1.088 3.581,1.646 3.72,1.71 4.397,0.237 4.258,0.173 3.845,0.558 0.793,-0.845 0.816,-1.408 0.677,-1.473 Z"
             style="fill:#ffffff;fill-opacity:1;fill-rule:nonzero;stroke:none"
             id="path1177" />
        </g>
        <g
           id="g1179"
           transform="translate(440.7348,160.2554)">
          <path
             d="M 0,0 3.34,0.864 3.108,1.762 2.33,1.852 2.275,2.066 3.249,2.318 4.101,-0.974 3.126,-1.227 3.073,-1.019 3.709,-0.562 3.485,0.305 0.144,-0.559 0.098,-1.236 -0.051,-1.275 -0.518,0.532 -0.369,0.57 Z"
             style="fill:#ffffff;fill-opacity:1;fill-rule:nonzero;stroke:none"
             id="path1181" />
        </g>
        <g
           id="g1183"
           transform="translate(444.528,155.6078)">
          <path
             d="m 0,0 c -0.194,-0.062 -0.292,-0.096 -0.546,-0.191 l -0.989,-0.371 -0.038,1.098 z m -1.771,-0.663 -1.255,-0.485 -0.242,0.459 -0.154,-0.006 0.053,-1.558 0.154,0.005 0.211,0.474 3.696,1.472 -0.012,0.344 -3.795,1.411 -0.243,0.465 -0.154,-0.005 0.047,-1.344 0.153,0.005 0.211,0.474 1.286,-0.422 z"
             style="fill:#ffffff;fill-opacity:1;fill-rule:nonzero;stroke:none"
             id="path1185" />
        </g>
        <g
           id="g1187"
           transform="translate(441.1697,151.1551)">
          <path
             d="M 0,0 3.393,-0.622 3.56,0.29 2.893,0.699 2.933,0.917 3.923,0.735 3.31,-2.61 l -0.99,0.182 0.038,0.211 0.77,0.146 0.161,0.882 -3.393,0.621 -0.328,-0.595 -0.151,0.028 0.337,1.836 0.151,-0.028 z"
             style="fill:#ffffff;fill-opacity:1;fill-rule:nonzero;stroke:none"
             id="path1189" />
        </g>
        <g
           id="g1191"
           transform="translate(440.0799,148.2354)">
          <path
             d="m 0,0 0.144,-0.054 0.02,-0.558 3.145,-1.177 0.382,0.408 0.144,-0.054 -0.568,-1.518 -0.144,0.054 -0.018,0.564 -3.145,1.177 -0.384,-0.414 -0.144,0.054 z"
             style="fill:#ffffff;fill-opacity:1;fill-rule:nonzero;stroke:none"
             id="path1193" />
        </g>
        <g
           id="g1195"
           transform="translate(439.0321,145.2509)">
          <path
             d="m 0,0 0.778,-0.457 -0.112,-0.19 -0.809,0.126 c -0.101,-0.126 -0.169,-0.228 -0.256,-0.377 -0.289,-0.492 -0.245,-0.866 0.125,-1.084 0.26,-0.152 0.434,-0.134 0.887,0.092 l 0.638,0.323 c 0.339,0.178 0.477,0.218 0.695,0.225 0.187,0.004 0.347,-0.039 0.521,-0.142 C 3.023,-1.81 3.16,-2.439 2.802,-3.047 2.75,-3.137 2.641,-3.287 2.538,-3.426 2.453,-3.533 2.382,-3.619 2.328,-3.673 L 2.15,-3.867 2.091,-3.932 1.339,-3.491 1.454,-3.295 2.235,-3.419 2.266,-3.38 C 2.357,-3.248 2.384,-3.214 2.44,-3.119 2.751,-2.59 2.733,-2.245 2.383,-2.04 2.14,-1.897 1.987,-1.914 1.54,-2.142 L 0.856,-2.495 C 0.44,-2.707 0.383,-2.73 0.176,-2.744 c -0.208,-0.014 -0.424,0.042 -0.625,0.16 -0.588,0.345 -0.706,1.005 -0.302,1.693 0.097,0.165 0.272,0.39 0.458,0.586 l 0.243,0.256 z"
             style="fill:#ffffff;fill-opacity:1;fill-rule:nonzero;stroke:none"
             id="path1197" />
        </g>
        <g
           id="g1199"
           transform="translate(435.5186,136.6165)">
          <path
             d="m 0,0 c -0.357,-0.291 -0.896,-0.232 -1.195,0.135 -0.299,0.366 -0.248,0.906 0.109,1.197 0.361,0.295 0.9,0.236 1.199,-0.131 C 0.412,0.835 0.361,0.295 0,0"
             style="fill:#ffffff;fill-opacity:1;fill-rule:nonzero;stroke:none"
             id="path1201" />
        </g>
        <g
           id="g1203"
           transform="translate(419.3381,161.0816)">
          <path
             d="m 0,0 c 0.141,0.135 0.251,0.323 0.328,0.559 0.053,0.164 0.089,0.337 0.109,0.528 0,0 0.002,0.01 0.004,0.023 l 0.011,0.079 c 0,0 0,0 0,0 0.135,0.992 0.616,1.227 0.967,1.399 0,0 0.239,0.133 0.251,0.145 C 1.73,2.78 1.796,2.85 1.833,3.01 V 3.013 3.011 L 1.862,3.195 C 1.887,3.454 1.83,3.624 1.692,3.703 0.872,4.17 0.187,3.097 0.112,2.973 -0.021,2.756 -0.109,2.535 -0.132,2.369 c 0,0 -0.014,-0.112 -0.018,-0.138 L -0.168,2.072 C -0.237,1.473 -0.302,0.908 -0.632,0.679 -0.765,0.587 -0.921,0.56 -1.086,0.601 -1.313,0.657 -1.549,0.798 -1.636,1.102 -1.687,1.013 -1.728,0.9 -1.728,0.72 c 0,-0.112 0.013,-0.245 0.045,-0.404 0.019,-0.089 0.056,-0.168 0.115,-0.243 0.191,-0.242 0.55,-0.347 0.731,-0.357 C -0.603,-0.297 -0.268,-0.258 0,0"
             style="fill:#ffffff;fill-opacity:1;fill-rule:nonzero;stroke:none"
             id="path1205" />
        </g>
        <g
           id="g1207"
           transform="translate(420.5077,162.705)">
          <path
             d="M 0,0 C 0.135,-0.009 0.251,-0.034 0.351,-0.072 0.364,-0.016 0.376,0.042 0.388,0.1 L 0.343,0.364 C 0.206,0.287 0.09,0.179 0,0"
             style="fill:#ffffff;fill-opacity:1;fill-rule:nonzero;stroke:none"
             id="path1209" />
        </g>
        <g
           id="g1211"
           transform="translate(418.132,160.2851)">
          <path
             d="m 0,0 c -0.1,0.028 -0.202,0.067 -0.301,0.116 -0.014,-0.064 -0.027,-0.127 -0.049,-0.195 0,-0.001 -0.011,-0.045 -0.011,-0.083 0,-0.016 0.007,-0.025 0.012,-0.035 0.055,0.013 0.158,0.07 0.232,0.136 C -0.083,-0.032 -0.043,-0.011 0,0"
             style="fill:#ffffff;fill-opacity:1;fill-rule:nonzero;stroke:none"
             id="path1213" />
        </g>
        <g
           id="g1215"
           transform="translate(420.2632,160.785)">
          <path
             d="M 0,0 C -0.103,0.049 -0.198,0.112 -0.282,0.188 -0.297,0.164 -0.314,0.142 -0.329,0.119 c 0.104,-0.075 0.21,-0.13 0.286,-0.13 0.016,0 0.029,0.007 0.043,0.011"
             style="fill:#ffffff;fill-opacity:1;fill-rule:nonzero;stroke:none"
             id="path1217" />
        </g>
        <g
           id="g1219"
           transform="translate(425.1887,159.3337)">
          <path
             d="m 0,0 c 0.129,-0.12 0.334,-0.092 0.415,-0.051 l 0.21,0.13 C 0.754,0.175 0.833,0.281 0.873,0.411 0.874,0.413 0.875,0.419 0.875,0.417 L 0.908,0.651 C 0.908,0.706 0.906,0.758 0.902,0.806 0.899,0.845 0.894,0.881 0.888,0.916 0.887,0.925 0.887,0.935 0.885,0.943 0.871,1.026 0.851,1.099 0.828,1.162 0.745,1.092 0.653,1.027 0.551,0.973 0.568,0.909 0.582,0.843 0.582,0.774 0.582,0.559 0.494,0.336 0.27,0.21 0.138,0.136 -0.001,0.14 -0.13,0.173 -0.1,0.118 -0.066,0.061 0,0"
             style="fill:#ffffff;fill-opacity:1;fill-rule:nonzero;stroke:none"
             id="path1221" />
        </g>
        <g
           id="g1223"
           transform="translate(425.1923,160.1349)">
          <path
             d="m 0,0 c -0.048,-0.01 -0.09,-0.019 -0.114,-0.025 0.041,-0.023 0.078,-0.04 0.106,-0.046 0.005,0.01 0.012,0.019 0.012,0.035 C 0.004,-0.024 0.002,-0.012 0,0"
             style="fill:#ffffff;fill-opacity:1;fill-rule:nonzero;stroke:none"
             id="path1225" />
        </g>
        <g
           id="g1227"
           transform="translate(426.2453,162.4794)">
          <path
             d="M 0,0 C -0.002,0.075 -0.009,0.311 -0.009,0.312 L -0.027,0.433 C -0.028,0.436 -0.03,0.439 -0.031,0.442 l -0.047,0.195 c -0.167,0.508 -0.638,1.016 -1.205,1.032 l -0.136,0.005 c 0,0 -0.121,-0.002 -0.213,-0.002 C -1.524,1.483 -1.443,1.29 -1.396,1.11 -1.395,1.107 -1.394,1.103 -1.394,1.1 -1.378,1.041 -1.365,0.983 -1.358,0.927 L -1.321,0.62 c 0.033,-0.286 0.102,-0.872 0.216,-0.977 0.107,0.028 0.154,0.059 0.154,0.169 0,0.042 -0.007,0.096 -0.019,0.164 l 0.027,0.294 c 0.008,0.088 0.057,0.099 0.131,0.146 0.075,0.048 0.168,-0.011 0.251,-0.041 l 0.028,-0.01 C -0.304,0.285 -0.128,0.162 0,0"
             style="fill:#ffffff;fill-opacity:1;fill-rule:nonzero;stroke:none"
             id="path1229" />
        </g>
        <g
           id="g1231"
           transform="translate(417.3635,159.3069)">
          <path
             d="M 0,0 C 0.081,-0.042 0.285,-0.069 0.415,0.051 0.48,0.112 0.514,0.168 0.545,0.224 0.415,0.191 0.277,0.186 0.145,0.261 0.056,0.311 0.004,0.383 -0.045,0.456 -0.044,0.421 -0.041,0.384 -0.041,0.35 -0.041,0.236 -0.049,0.133 -0.062,0.038 -0.029,0.018 0,0 0,0"
             style="fill:#ffffff;fill-opacity:1;fill-rule:nonzero;stroke:none"
             id="path1233" />
        </g>
        <g
           id="g1235"
           transform="translate(420.7073,161.2528)">
          <path
             d="m 0,0 c 0.118,0 0.226,0.022 0.322,0.066 0.165,0.075 0.29,0.221 0.369,0.416 0.002,0.032 0.004,0.074 0.007,0.122 L 0.7,0.634 C 0.703,0.682 0.706,0.734 0.71,0.791 0.671,0.817 0.635,0.844 0.599,0.874 0.571,0.803 0.539,0.743 0.507,0.71 0.44,0.641 0.339,0.623 0.244,0.641 0.15,0.658 0.066,0.734 0.028,0.822 L 0.038,0.799 C 0.021,0.823 -0.068,0.886 -0.278,0.886 -0.305,0.886 -0.336,0.856 -0.365,0.829 -0.385,0.653 -0.42,0.489 -0.464,0.33 -0.395,0.155 -0.192,0 0,0"
             style="fill:#ffffff;fill-opacity:1;fill-rule:nonzero;stroke:none"
             id="path1237" />
        </g>
        <g
           id="g1239"
           transform="translate(424.3192,163.3303)">
          <path
             d="m 0,0 c -0.029,0.217 -0.185,0.584 -0.469,0.915 -0.256,0.3 -0.773,0.752 -1.356,0.42 0,0 -0.019,-0.014 -0.035,-0.026 C -1.883,1.27 -1.956,1.145 -1.977,1.11 -1.99,1.059 -1.997,1.003 -1.998,0.94 -1.998,0.932 -2,0.925 -2,0.917 -1.999,0.891 -1.997,0.864 -1.995,0.837 -1.993,0.819 -1.993,0.802 -1.991,0.784 -1.985,0.738 -1.976,0.691 -1.965,0.643 -1.908,0.393 -1.78,0.331 -1.549,0.219 L -1.468,0.18 c 0.006,-0.003 0.009,-0.009 0.015,-0.012 0.07,-0.039 0.204,-0.114 0.201,-0.11 0.353,-0.232 0.558,-0.579 0.651,-1.109 0.012,-0.073 0.023,-0.15 0.031,-0.23 l 0.08,-0.429 c 0,-0.003 0,-0.007 0.001,-0.011 l 0.01,-0.033 c 0.02,-0.062 0.043,-0.133 0.045,-0.138 -0.001,0.004 -0.01,0.037 -0.011,0.04 0.246,-0.699 0.762,-0.821 1.15,-0.8 l 0.287,0.065 c 0.133,0.046 0.372,0.157 0.494,0.374 0.001,0.002 0.001,0.004 0.001,0.004 l 0.063,0.157 c 0.032,0.159 0.046,0.292 0.046,0.404 0,0.18 -0.041,0.293 -0.092,0.382 C 1.417,-1.57 1.18,-1.711 0.953,-1.767 0.788,-1.808 0.632,-1.781 0.5,-1.689 0.169,-1.46 0.104,-0.895 0.036,-0.296 Z"
             style="fill:#ffffff;fill-opacity:1;fill-rule:nonzero;stroke:none"
             id="path1241" />
        </g>
        <g
           id="g1243"
           transform="translate(418.0554,164.1771)">
          <path
             d="m 0,0 c -0.006,0 -0.012,0 -0.018,-0.002 -0.599,-0.086 -1.148,-0.594 -1.277,-1.181 l -0.03,-0.179 -0.01,-0.337 c 0,-0.045 -0.001,-0.091 -0.002,-0.139 -0.014,-0.703 -0.062,-1.511 -0.607,-1.629 -0.133,-0.029 -0.352,-0.028 -0.509,0.212 -0.014,-0.011 -0.029,-0.019 -0.043,-0.033 v 0 C -2.549,-3.34 -2.584,-3.395 -2.593,-3.442 L -2.614,-3.55 c 10e-4,-0.034 -0.004,-0.068 -0.017,-0.101 -0.002,-0.016 -0.005,-0.033 -0.006,-0.047 -0.002,-0.008 -0.002,-0.016 -0.003,-0.024 -0.002,-0.021 -0.004,-0.041 -0.004,-0.06 0,-0.006 0,-0.011 0,-0.017 0,-0.022 0.001,-0.042 0.004,-0.063 0.001,-0.003 0.001,-0.005 0.002,-0.008 0.003,-0.018 0.007,-0.037 0.012,-0.057 0.002,-0.006 0.004,-0.013 0.006,-0.02 0.006,-0.018 0.012,-0.037 0.019,-0.058 0.003,-0.007 0.005,-0.014 0.008,-0.022 0.009,-0.028 0.02,-0.057 0.034,-0.092 0,0 0.14,-0.296 0.141,-0.296 l 0.037,-0.06 c 0.076,-0.111 0.195,-0.244 0.33,-0.244 0.253,0 0.359,0.243 0.514,0.824 l 0.11,0.375 c 0.025,0.074 0.054,0.14 0.085,0.201 0.006,0.013 0.014,0.025 0.02,0.038 0.03,0.055 0.063,0.104 0.097,0.148 0.001,10e-4 0.003,0.003 0.004,0.005 0.078,0.097 0.169,0.163 0.271,0.2 -0.003,0.012 -0.01,0.023 -0.012,0.035 -0.021,0.103 -0.035,0.201 -0.044,0.295 -0.003,0.032 -0.003,0.06 -0.005,0.091 -0.003,0.045 -0.008,0.092 -0.008,0.136 0,0.016 0.002,0.03 0.003,0.047 0,0.028 0.003,0.054 0.005,0.082 0.003,0.056 0.01,0.11 0.02,0.162 0.004,0.024 0.008,0.05 0.013,0.073 0.014,0.06 0.032,0.116 0.053,0.169 0.005,0.012 0.008,0.025 0.013,0.037 0.028,0.063 0.061,0.122 0.1,0.177 0.01,0.015 0.023,0.029 0.035,0.044 0.03,0.038 0.062,0.074 0.098,0.109 0.018,0.015 0.035,0.031 0.054,0.046 0.037,0.03 0.077,0.059 0.12,0.085 0.019,0.011 0.037,0.024 0.057,0.035 0.064,0.034 0.131,0.066 0.206,0.092 l 0.027,0.01 c 0.084,0.03 0.176,0.089 0.252,0.041 C 0.111,-1.21 0.159,-1.22 0.168,-1.309 L 0.194,-1.603 C 0.181,-1.672 0.175,-1.727 0.175,-1.769 c 0,-0.11 0.048,-0.139 0.154,-0.166 0.114,0.105 0.183,0.69 0.216,0.977 0,0 0.019,0.162 0.022,0.19 0,0 0.015,0.116 0.015,0.116 0.007,0.05 0.018,0.101 0.032,0.154 0.037,0.153 0.1,0.318 0.186,0.485 C 0.625,0.013 0.402,0.026 0.198,0.017 0.134,-0.013 0.066,-0.018 0,0"
             style="fill:#ffffff;fill-opacity:1;fill-rule:nonzero;stroke:none"
             id="path1245" />
        </g>
        <g
           id="g1247"
           transform="translate(421.8399,162.4543)">
          <path
             d="M 0,0 C 0.147,-0.073 0.319,-0.114 0.5,-0.12 0.906,-0.132 0.936,0.1 0.947,0.176 0.953,0.225 0.953,0.263 0.951,0.297 0.951,0.31 0.95,0.321 0.948,0.332 0.945,0.354 0.942,0.376 0.936,0.392 0.934,0.397 0.933,0.402 0.931,0.406 0.914,0.447 0.891,0.468 0.875,0.48 c 0,0 -0.086,0.047 -0.116,0.06 C 0.625,0.586 0.573,0.588 0.557,0.587 0.549,0.58 0.524,0.553 0.467,0.441 0.422,0.351 0.334,0.292 0.234,0.284 0.135,0.275 0.038,0.32 -0.021,0.401 -0.042,0.43 -0.06,0.465 -0.077,0.503 -0.082,0.514 -0.086,0.525 -0.09,0.537 -0.102,0.567 -0.113,0.598 -0.122,0.631 -0.126,0.643 -0.129,0.655 -0.133,0.667 -0.156,0.758 -0.173,0.856 -0.186,0.952 -0.187,0.965 -0.188,0.976 -0.189,0.989 -0.194,1.025 -0.197,1.061 -0.2,1.096 -0.201,1.108 -0.202,1.12 -0.203,1.132 -0.206,1.17 -0.208,1.206 -0.21,1.239 -0.257,1.146 -0.318,1.063 -0.391,0.99 -0.397,0.94 -0.415,0.806 -0.423,0.737 L -0.429,0.694 -0.382,0.426 C -0.319,0.237 -0.191,0.094 0,0"
             style="fill:#ffffff;fill-opacity:1;fill-rule:nonzero;stroke:none"
             id="path1249" />
        </g>
        <g
           id="g1251"
           transform="translate(417.284,160.5734)">
          <path
             d="m 0,0 c 0.009,0.052 0.013,0.098 0.013,0.135 0,0 -10e-4,0.001 -10e-4,0.001 0,-0.001 -0.015,-0.015 -0.035,-0.045 C -0.01,0.064 -0.002,0.034 0,0"
             style="fill:#ffffff;fill-opacity:1;fill-rule:nonzero;stroke:none"
             id="path1253" />
        </g>
        <g
           id="g1255"
           transform="translate(416.0624,164.2519)">
          <path
             d="M 0,0 C -0.017,0.021 -0.03,0.044 -0.041,0.068 -0.162,0.353 -0.779,0.609 -1.539,0.692 L -2.034,0.68 c 0,0 -0.299,-0.008 -0.322,-0.009 -0.157,-0.032 -0.316,-0.041 -0.476,-0.038 0.188,-0.251 0.35,-0.534 0.472,-0.846 0.092,-0.234 0.157,-0.424 0.199,-0.658 l 0.023,-0.163 c 0.063,-0.436 0.091,-0.636 0.387,-1.165 0.14,-0.251 0.451,-0.62 0.722,-0.904 0.014,0.02 0.028,0.04 0.044,0.06 l 0.005,0.088 c 0.006,0.191 0.014,0.407 0.101,0.617 l 0.07,0.17 c 0.188,0.462 0.348,0.852 0.717,1.08 0.053,0.231 0.15,0.657 0.164,0.716 C 0.066,-0.31 0.057,-0.217 0.057,-0.217 0.047,-0.079 0.043,-0.053 0,0"
             style="fill:#ffffff;fill-opacity:1;fill-rule:nonzero;stroke:none"
             id="path1257" />
        </g>
        <g
           id="g1259"
           transform="translate(415.713,161.6936)">
          <path
             d="m 0,0 c -0.014,-0.034 -0.019,-0.076 -0.027,-0.116 0.031,0.004 0.062,0.012 0.09,0.009 0.107,-0.01 0.182,-0.042 0.221,-0.141 0,0 0.015,-0.038 0.029,-0.073 0.1,0.243 0.117,0.854 0.122,1.116 0,0 0,0.022 0.001,0.056 0,0.005 0,0.009 0,0.015 C 0.31,0.726 0.211,0.516 0.071,0.173 Z"
             style="fill:#ffffff;fill-opacity:1;fill-rule:nonzero;stroke:none"
             id="path1261" />
        </g>
        <g
           id="g1263"
           transform="translate(425.4961,167.8323)">
          <path
             d="m 0,0 c 0,0.012 -0.001,0.022 -0.001,0.029 -0.008,0.119 -0.057,0.193 -0.146,0.22 -0.049,0.015 -0.089,0.045 -0.122,0.08 -0.698,0.001 -1.36,-0.035 -1.97,-0.113 -0.884,-0.112 -1.756,-0.279 -2.563,-0.489 0.184,-0.165 0.298,-0.397 0.313,-0.667 0.042,0.024 0.089,0.035 0.139,0.036 0.406,0.125 0.839,0.239 1.299,0.339 0.878,0.193 1.767,0.296 2.627,0.306 0,0 0.126,0.008 0.171,0.011 C -0.027,-0.196 0,-0.07 0,0"
             style="fill:#ffffff;fill-opacity:1;fill-rule:nonzero;stroke:none"
             id="path1265" />
        </g>
        <g
           id="g1267"
           transform="translate(418.9464,165.268)">
          <path
             d="m 0,0 c -0.013,-0.139 -0.054,-0.32 -0.164,-0.517 0.149,-0.014 0.288,-0.038 0.408,-0.071 0.533,0.658 1.331,1.054 2.124,0.602 0.166,-0.094 0.285,-0.234 0.363,-0.406 0.16,0.13 0.333,0.229 0.512,0.29 0.014,0.005 0.029,0.005 0.043,0.008 0.538,0.295 1.133,0.217 1.666,-0.191 -0.009,0.034 -0.016,0.067 -0.022,0.1 C 4.767,-0.055 4.571,0.074 4.349,0.201 4.342,0.205 4.335,0.209 4.328,0.214 4.017,0.39 3.655,0.56 3.255,0.718 3.147,0.696 3.04,0.735 2.975,0.825 2.739,0.912 2.49,0.993 2.233,1.069 2.113,1.031 1.992,0.992 1.878,0.953 1.811,0.841 1.681,0.795 1.557,0.833 1.201,0.695 0.878,0.549 0.6,0.395 0.596,0.391 0.126,0.1 0,0"
             style="fill:#ffffff;fill-opacity:1;fill-rule:nonzero;stroke:none"
             id="path1269" />
        </g>
        <g
           id="g1271"
           transform="translate(422.7694,160.7266)">
          <path
             d="m 0,0 c 0.245,0 0.571,0.218 0.571,0.383 0,0 -0.018,0.218 -0.018,0.218 L 0.523,0.695 C 0.502,0.742 0.477,0.761 0.425,0.773 0.399,0.779 0.371,0.783 0.343,0.784 0.331,0.784 0.319,0.78 0.307,0.779 0.289,0.778 0.273,0.778 0.254,0.773 0.193,0.755 0.127,0.714 0.059,0.631 -0.017,0.54 -0.139,0.505 -0.251,0.541 -0.311,0.561 -0.361,0.59 -0.407,0.624 -0.419,0.633 -0.43,0.643 -0.441,0.652 -0.476,0.683 -0.508,0.717 -0.535,0.753 -0.539,0.759 -0.543,0.763 -0.547,0.769 -0.611,0.861 -0.652,0.964 -0.677,1.057 -0.716,1.063 -0.755,1.071 -0.793,1.079 -0.798,1.004 -0.801,0.937 -0.801,0.937 -0.793,0.377 -0.471,0 0,0"
             style="fill:#ffffff;fill-opacity:1;fill-rule:nonzero;stroke:none"
             id="path1273" />
        </g>
        <g
           id="g1275"
           transform="translate(422.3407,166.5462)">
          <path
             d="m 0,0 c 0.205,-0.079 0.402,-0.162 0.589,-0.247 0,0.012 0,0.024 0.001,0.036 0.011,0.17 0.064,0.329 0.146,0.471 C 0.566,0.23 0.397,0.199 0.228,0.162 0.136,0.141 0.049,0.119 -0.041,0.098 Z"
             style="fill:#ffffff;fill-opacity:1;fill-rule:nonzero;stroke:none"
             id="path1277" />
        </g>
        <g
           id="g1279"
           transform="translate(416.2826,156.1933)">
          <path
             d="M 0,0 C 0.159,0.19 0.285,0.339 0.285,0.725 0.285,0.791 0.272,0.881 0.264,0.961 0.26,0.959 0.255,0.959 0.25,0.958 0.222,0.951 0.193,0.945 0.164,0.941 0.147,0.938 0.13,0.936 0.112,0.935 0.096,0.933 0.08,0.932 0.065,0.931 0.044,0.93 0.023,0.928 0.002,0.928 c -0.012,0 -0.024,0 -0.037,0.001 -0.021,0 -0.041,0 -0.062,0.001 C -0.114,0.931 -0.131,0.932 -0.148,0.934 -0.161,0.935 -0.174,0.935 -0.187,0.936 -0.188,0.93 -0.191,0.923 -0.193,0.917 -0.239,0.711 -0.336,0.46 -0.569,0.258 L -0.624,0.054 c -0.077,-0.27 -0.146,-0.514 -0.146,-0.793 0,-0.103 0.009,-0.211 0.031,-0.326 0.056,-0.298 0.175,-0.558 0.319,-0.695 0.062,-0.059 0.12,-0.091 0.176,-0.097 0.109,-0.014 0.185,0 0.227,0.043 0.017,0.016 0.022,0.045 0.033,0.069 -0.074,0.022 -0.154,0.058 -0.237,0.136 -0.167,0.159 -0.219,0.366 -0.219,0.563 0,0.29 0.113,0.558 0.137,0.612 z"
             style="fill:#ffffff;fill-opacity:1;fill-rule:nonzero;stroke:none"
             id="path1281" />
        </g>
        <g
           id="g1283"
           transform="translate(425.3325,167.0166)">
          <path
             d="m 0,0 c -0.008,-0.001 -0.015,-0.003 -0.023,-0.003 0,0 -0.202,-0.013 -0.216,-0.013 -0.153,-0.002 -0.306,-0.01 -0.458,-0.018 0,-0.067 -0.023,-0.134 -0.068,-0.192 -0.072,-0.095 -0.215,-0.126 -0.33,-0.092 l -0.222,0.067 C -1.44,-0.242 -1.56,-0.282 -1.656,-0.365 -1.758,-0.454 -1.82,-0.58 -1.83,-0.72 c -0.008,-0.126 0.029,-0.246 0.102,-0.344 0.119,-0.069 0.232,-0.139 0.337,-0.209 0.074,0.214 0.189,0.4 0.349,0.536 0.233,0.196 0.533,0.283 0.873,0.25 0.023,-0.003 0.046,-0.015 0.069,-0.02 -0.001,0.012 -0.008,0.027 -0.008,0.039 0,0.012 0.001,0.023 0.001,0.034 0.01,0.153 0.05,0.298 0.107,0.434"
             style="fill:#ffffff;fill-opacity:1;fill-rule:nonzero;stroke:none"
             id="path1285" />
        </g>
        <g
           id="g1287"
           transform="translate(426.8303,154.3045)">
          <path
             d="m 0,0 c 0.011,-0.024 0.017,-0.053 0.033,-0.069 0.042,-0.042 0.118,-0.057 0.227,-0.043 0.047,0.005 0.094,0.027 0.144,0.067 0.039,0.032 0.077,0.072 0.112,0.12 0.107,0.146 0.194,0.363 0.239,0.605 0.019,0.102 0.027,0.197 0.029,0.288 0,0.008 0.001,0.017 0.002,0.025 0,0.086 -0.006,0.17 -0.017,0.251 C 0.766,1.267 0.761,1.29 0.758,1.313 0.747,1.374 0.735,1.435 0.721,1.496 0.715,1.521 0.71,1.545 0.703,1.569 0.684,1.645 0.663,1.721 0.64,1.801 c 0,0 -0.029,0.108 -0.055,0.205 C 0.223,2.215 0.093,2.546 0.04,2.802 -0.046,2.795 -0.142,2.791 -0.24,2.799 -0.255,2.679 -0.268,2.562 -0.268,2.472 c 0,-0.388 0.125,-0.537 0.284,-0.727 0,0 0.303,-0.434 0.309,-0.447 C 0.345,1.253 0.457,0.989 0.457,0.701 0.457,0.504 0.405,0.295 0.237,0.137 0.155,0.058 0.075,0.022 0,0"
             style="fill:#ffffff;fill-opacity:1;fill-rule:nonzero;stroke:none"
             id="path1289" />
        </g>
        <g
           id="g1291"
           transform="translate(427.1634,167.9992)">
          <path
             d="m 0,0 c -0.012,-0.166 0.044,-0.287 0.158,-0.464 0.073,-0.114 0.056,-0.264 -0.041,-0.359 -0.096,-0.095 -0.246,-0.11 -0.359,-0.035 -0.101,0.067 -0.219,0.107 -0.34,0.116 -0.19,0.013 -0.374,-0.049 -0.52,-0.176 -0.156,-0.135 -0.249,-0.326 -0.263,-0.535 -0.001,-0.058 0.059,-0.249 0.126,-0.401 0.048,-0.111 0.025,-0.242 -0.063,-0.325 -0.089,-0.084 -0.218,-0.104 -0.326,-0.048 l -0.074,0.038 c -0.093,0.048 -0.265,0.138 -0.359,0.149 -0.179,0.017 -0.328,-0.022 -0.441,-0.118 -0.135,-0.114 -0.217,-0.305 -0.233,-0.537 -0.009,-0.124 0.079,-0.391 0.171,-0.581 l 0.247,0.003 0.132,-0.004 c 0.436,-0.012 0.815,-0.197 1.114,-0.467 0.021,0.065 0.054,0.131 0.102,0.2 0.009,0.017 0.017,0.034 0.03,0.049 -0.004,-0.004 -0.004,-0.008 -0.007,-0.013 0.341,0.668 1.456,0.863 1.933,0.915 l 0.574,-0.009 0.297,-0.009 c 0.02,-10e-4 0.056,-0.003 0.075,-0.008 0.322,-0.077 0.661,-0.043 1.008,0.093 0.234,0.189 0.383,0.4 0.43,0.63 0.012,0.058 0.018,0.118 0.018,0.178 0,0.703 -0.796,1.568 -2.148,2.376 C 1.227,0.664 1.211,0.665 1.197,0.674 1.092,0.735 0.979,0.771 0.858,0.779 0.651,0.794 0.448,0.726 0.288,0.587 0.118,0.439 0.016,0.23 0,0"
             style="fill:#ffffff;fill-opacity:1;fill-rule:nonzero;stroke:none"
             id="path1293" />
        </g>
        <g
           id="g1295"
           transform="translate(423.185,168.6179)">
          <path
             d="m 0,0 c 0.767,0.097 1.608,0.135 2.523,0.111 0,0 0.594,-0.062 0.602,-0.063 0,0 0.073,-0.002 0.073,-0.002 C 3.407,0.061 3.565,0.253 3.55,0.474 3.539,0.635 3.438,0.773 3.293,0.825 3.279,0.83 3.269,0.84 3.256,0.847 2.123,0.972 0.847,0.975 -0.468,0.857 -1.27,0.784 -2.197,0.618 -3.228,0.365 c 0.249,-0.197 0.401,-0.502 0.401,-0.868 0,-0.019 -0.002,-0.037 -0.003,-0.056 C -1.944,-0.318 -0.981,-0.125 0,0"
             style="fill:#ffffff;fill-opacity:1;fill-rule:nonzero;stroke:none"
             id="path1297" />
        </g>
        <g
           id="g1299"
           transform="translate(417.5733,166.6378)">
          <path
             d="m 0,0 c 0.391,0.039 0.763,-0.079 1.022,-0.323 0.12,-0.113 0.211,-0.248 0.271,-0.394 0.09,0.059 0.187,0.117 0.287,0.175 0.056,0.091 0.083,0.198 0.076,0.309 C 1.647,-0.094 1.585,0.032 1.483,0.122 1.387,0.204 1.266,0.245 1.143,0.236 L 0.921,0.169 C 0.806,0.134 0.664,0.166 0.591,0.261 0.519,0.355 0.493,0.477 0.556,0.578 L 0.607,0.66 C 0.669,0.756 0.732,0.856 0.727,0.924 0.715,1.111 0.647,1.267 0.535,1.364 0.445,1.442 0.332,1.477 0.227,1.471 L -0.065,1.412 c -0.116,-0.024 -0.249,0.022 -0.313,0.122 -0.064,0.1 -0.074,0.225 -0.004,0.321 0.115,0.156 0.172,0.351 0.158,0.549 -0.015,0.222 -0.113,0.422 -0.277,0.565 -0.066,0.057 -0.14,0.099 -0.218,0.13 -0.104,0.042 -0.216,0.063 -0.331,0.054 L -1.255,3.109 C -1.251,3.11 -1.248,3.114 -1.243,3.115 -1.54,2.996 -1.821,2.872 -2.09,2.747 -2.115,2.714 -2.147,2.687 -2.185,2.668 -2.135,2.642 -2.089,2.611 -2.042,2.579 -2,2.55 -1.955,2.524 -1.916,2.489 -1.63,2.24 -1.458,1.892 -1.432,1.509 -1.43,1.481 -1.429,1.454 -1.429,1.428 c 0,-0.049 -0.019,-0.084 -0.025,-0.129 0.339,0.022 0.669,-0.089 0.928,-0.315 0.272,-0.236 0.435,-0.566 0.459,-0.93 0.001,-0.011 0.002,-0.023 0.002,-0.035 0,-0.012 -0.007,-0.027 -0.008,-0.04 C -0.048,-0.016 -0.024,-0.003 0,0"
             style="fill:#ffffff;fill-opacity:1;fill-rule:nonzero;stroke:none"
             id="path1301" />
        </g>
        <g
           id="g1303"
           transform="translate(426.613,167.8294)">
          <path
             d="m 0,0 c -0.006,0.045 -0.025,0.08 -0.025,0.129 0,0.026 0.001,0.052 0.003,0.08 0.002,0.029 0.01,0.056 0.014,0.085 -0.058,-0.016 -0.118,-0.028 -0.181,-0.032 0,0 -0.189,0.006 -0.182,0.005 0,0 -0.101,0.01 -0.217,0.022 C -0.567,0.221 -0.551,0.148 -0.546,0.071 -0.542,0.015 -0.543,-0.038 -0.549,-0.09 -0.376,-0.022 -0.19,0.012 0,0"
             style="fill:#ffffff;fill-opacity:1;fill-rule:nonzero;stroke:none"
             id="path1305" />
        </g>
        <g
           id="g1307"
           transform="translate(414.6953,160.2053)">
          <path
             d="M 0,0 C 0.015,-0.033 0.012,-0.066 0.033,-0.097 0.062,-0.139 0.135,-0.213 0.225,-0.244 0.195,-0.158 0.173,-0.083 0.159,-0.006 0.108,-0.012 0.056,-0.012 0,0"
             style="fill:#ffffff;fill-opacity:1;fill-rule:nonzero;stroke:none"
             id="path1309" />
        </g>
        <g
           id="g1311"
           transform="translate(423.9405,145.702)">
          <path
             d="m 0,0 -0.054,-0.046 c -0.345,-0.299 -0.702,-0.609 -1.101,-0.857 -1.257,-0.78 -3.198,-1.529 -4.616,-2.024 0,0 -0.078,-0.024 -0.14,-0.043 -0.02,-0.008 -0.04,-0.015 -0.061,-0.018 -0.007,-0.002 -0.011,-0.003 -0.013,-0.004 -0.131,-0.032 -0.225,-0.16 -0.225,-0.303 0,-0.14 0.088,-0.262 0.214,-0.3 2.715,0.426 4.504,1.34 5.911,2.205 0.252,0.156 0.461,0.361 0.682,0.578 l 0.08,0.071 C 0.35,-0.619 0.099,-0.344 0,0"
             style="fill:#ffffff;fill-opacity:1;fill-rule:nonzero;stroke:none"
             id="path1313" />
        </g>
        <g
           id="g1315"
           transform="translate(416.7998,141.3893)">
          <path
             d="m 0,0 c -0.107,0 -0.209,-0.038 -0.295,-0.1 -0.022,-0.026 -0.046,-0.048 -0.075,-0.064 -0.091,-0.094 -0.151,-0.217 -0.151,-0.347 0,-0.169 0.081,-0.321 0.213,-0.415 2.355,0.13 5.672,1.007 8.336,2.661 L 8.29,1.897 9.07,2.402 C 8.707,2.558 8.438,2.89 8.37,3.297 L 8.139,3.09 C 7.905,2.861 7.664,2.625 7.357,2.435 5.7,1.416 3.533,0.33 0,0"
             style="fill:#ffffff;fill-opacity:1;fill-rule:nonzero;stroke:none"
             id="path1317" />
        </g>
        <g
           id="g1319"
           transform="translate(417.8483,144.7293)">
          <path
             d="m 0,0 c -0.067,-0.398 -0.323,-0.729 -0.674,-0.889 0.258,-0.182 0.522,-0.358 0.79,-0.529 0.016,0.005 0.028,0.009 0.028,0.009 0.389,0.135 0.756,0.27 1.11,0.405 -0.134,0.079 -0.242,0.141 -0.242,0.142 -0.306,0.189 -0.548,0.426 -0.781,0.655 z"
             style="fill:#ffffff;fill-opacity:1;fill-rule:nonzero;stroke:none"
             id="path1321" />
        </g>
        <g
           id="g1323"
           transform="translate(419.7819,143.9899)">
          <path
             d="M 0,0 C 0.397,0.159 0.766,0.316 1.107,0.471 0.895,0.585 0.685,0.707 0.451,0.852 0.051,1.1 -0.305,1.41 -0.65,1.71 L -0.705,1.755 C -0.803,1.411 -1.055,1.136 -1.381,1.014 l 0.08,-0.071 C -1.08,0.726 -0.871,0.521 -0.62,0.365 Z"
             style="fill:#ffffff;fill-opacity:1;fill-rule:nonzero;stroke:none"
             id="path1325" />
        </g>
        <g
           id="g1327"
           transform="translate(422.0222,147.2209)">
          <path
             d="M 0,0 C 0,0.131 0.034,0.278 0.081,0.419 -0.034,0.409 -0.155,0.404 -0.286,0.408 -0.415,0.413 -0.532,0.423 -0.643,0.437 -0.58,0.274 -0.53,0.103 -0.53,-0.037 c 0,-0.797 -0.616,-1.444 -1.385,-1.48 -0.021,-0.005 -0.043,-0.008 -0.065,-0.008 0.003,0 0.007,0.002 0.011,0.002 -0.009,-0.001 -0.019,-0.001 -0.028,-0.002 0.166,-0.133 0.336,-0.258 0.51,-0.367 0.36,-0.223 0.658,-0.388 1.007,-0.559 0.355,0.178 0.673,0.351 0.94,0.517 0.229,0.141 0.447,0.312 0.66,0.489 C 0.48,-1.291 0,-0.703 0,0"
             style="fill:#ffffff;fill-opacity:1;fill-rule:nonzero;stroke:none"
             id="path1329" />
        </g>
        <g
           id="g1331"
           transform="translate(428.0864,156.0283)">
          <path
             d="M 0,0 C 0.023,0.042 0.046,0.082 0.07,0.12 0.042,0.117 0.013,0.112 -0.017,0.112 -0.021,0.111 -0.025,0.109 -0.03,0.109 -0.02,0.073 -0.009,0.037 0,0"
             style="fill:#ffffff;fill-opacity:1;fill-rule:nonzero;stroke:none"
             id="path1333" />
        </g>
        <g
           id="g1335"
           transform="translate(416.2152,143.4573)">
          <path
             d="m 0,0 c 0,0.191 -0.078,0.367 -0.2,0.508 -0.013,0.013 -0.03,0.024 -0.04,0.041 l -0.016,0.026 c -0.055,0.043 -0.112,0.086 -0.167,0.13 -0.123,0.099 -0.143,0.279 -0.043,0.403 0.099,0.123 0.279,0.143 0.403,0.044 C 0.003,1.099 0.071,1.047 0.137,0.995 0.142,0.991 0.148,0.99 0.152,0.986 0.153,0.984 0.154,0.983 0.155,0.981 0.187,0.956 0.22,0.931 0.252,0.906 0.324,0.871 0.399,0.845 0.48,0.845 c 0.33,0 0.599,0.282 0.599,0.628 0,0.139 -0.042,0.255 -0.138,0.376 -0.034,0.043 -0.055,0.095 -0.06,0.15 L 0.874,2.067 C 0.862,2.196 0.937,2.317 1.057,2.363 1.178,2.409 1.315,2.369 1.391,2.265 1.492,2.127 1.645,2.048 1.81,2.048 c 0.291,0 0.528,0.249 0.528,0.555 0,0.048 -0.006,0.094 -0.018,0.139 C 2.26,2.796 2.226,2.87 2.221,2.947 2.188,2.99 2.15,3.031 2.105,3.063 1.976,3.155 1.946,3.334 2.038,3.463 2.13,3.592 2.309,3.622 2.438,3.53 2.599,3.415 2.724,3.259 2.805,3.082 L 2.943,2.967 c 0,0 10e-4,0 10e-4,0 0.125,-0.082 0.616,-0.214 0.812,-0.164 0.023,0.006 0.047,0.009 0.071,0.009 0.483,0 0.876,0.41 0.876,0.914 0,0.115 -0.129,0.426 -0.252,0.65 C 4.216,4.467 4.009,4.579 3.79,4.7 L 3.214,4.997 2.823,5.164 C 2.452,5.315 2.159,5.435 1.614,5.896 1.328,6.137 1.126,6.367 0.954,6.618 0.768,6.53 0.561,6.48 0.351,6.48 0.325,6.48 0.299,6.484 0.274,6.491 0.185,6.516 0.105,6.544 0.028,6.574 0.034,6.521 0.037,6.472 0.037,6.435 0.037,5.662 -0.57,5.037 -1.32,5.023 -1.418,4.34 -1.969,3.806 -2.661,3.806 -2.777,3.806 -2.887,3.841 -2.998,3.87 -3.201,3.406 -3.64,3.114 -4.217,3.114 -4.279,3.114 -4.336,3.123 -4.394,3.13 -4.373,3.099 -4.357,3.067 -4.348,3.033 -4.043,2.518 -3.679,2 -3.259,1.484 -3.225,1.47 -3.193,1.45 -3.165,1.422 c 0.138,-0.139 0.321,-0.216 0.513,-0.216 0.41,0 0.743,0.349 0.743,0.777 0,0.136 -0.034,0.271 -0.083,0.362 L -2.09,2.438 c -0.112,0.106 -0.125,0.288 -0.022,0.404 0.103,0.116 0.274,0.133 0.393,0.034 0.128,-0.107 0.224,-0.142 0.397,-0.142 0.41,0 0.743,0.349 0.743,0.777 0,0.087 -0.017,0.172 -0.044,0.254 -0.011,0.018 -0.023,0.036 -0.023,0.036 -0.03,0.048 -0.045,0.101 -0.045,0.155 0,0.085 0.038,0.168 0.109,0.225 0.115,0.091 0.281,0.08 0.384,-0.026 0.116,-0.119 0.228,-0.158 0.463,-0.158 0.41,0 0.743,0.349 0.743,0.776 0,0.259 -0.122,0.5 -0.327,0.645 -0.13,0.091 -0.161,0.27 -0.069,0.399 0.091,0.13 0.27,0.16 0.4,0.069 0.356,-0.253 0.57,-0.668 0.57,-1.113 0,-0.744 -0.591,-1.35 -1.317,-1.35 -0.09,0 -0.185,0.01 -0.282,0.026 -0.034,-0.714 -0.6,-1.288 -1.305,-1.288 -0.014,0 -0.023,0.005 -0.036,0.006 0.008,-0.062 0.023,-0.122 0.023,-0.184 0,-0.699 -0.522,-1.268 -1.186,-1.337 0.372,-0.393 0.773,-0.783 1.205,-1.162 0.036,-0.012 0.072,-0.032 0.102,-0.06 0.133,-0.122 0.305,-0.19 0.482,-0.19 C -0.328,-0.766 0,-0.422 0,0"
             style="fill:#ffffff;fill-opacity:1;fill-rule:nonzero;stroke:none"
             id="path1337" />
        </g>
        <g
           id="g1339"
           transform="translate(416.7731,141.9614)">
          <path
             d="m 0,0 c 0.163,0.015 0.319,0.033 0.476,0.052 -0.059,0.12 -0.092,0.253 -0.092,0.393 0,0.229 0.087,0.439 0.227,0.597 -0.203,0.134 -0.403,0.27 -0.6,0.41 -0.019,-0.594 -0.415,-1.086 -0.951,-1.24 0.148,-0.116 0.3,-0.23 0.455,-0.343 C -0.337,-0.05 -0.173,0.001 0,0"
             style="fill:#ffffff;fill-opacity:1;fill-rule:nonzero;stroke:none"
             id="path1341" />
        </g>
        <g
           id="g1343"
           transform="translate(425.1474,140.0748)">
          <path
             d="m 0,0 c -0.698,-0.405 -1.402,-0.764 -2.104,-1.076 -0.207,-0.093 -0.414,-0.181 -0.621,-0.265 2.001,-0.602 3.8,-0.731 5.15,-0.371 0.028,0.012 0.049,0.038 0.082,0.04 0,0 0.021,0.002 0.029,0.002 0.413,0.004 0.748,0.355 0.748,0.788 0,0.439 -0.434,0.732 -0.825,0.733 C 2.244,-0.161 2.001,-0.161 1.743,-0.154 1.213,-0.14 0.611,-0.087 0,0"
             style="fill:#ffffff;fill-opacity:1;fill-rule:nonzero;stroke:none"
             id="path1345" />
        </g>
        <g
           id="g1347"
           transform="translate(409.7878,148.6651)">
          <path
             d="m 0,0 -0.233,0.516 c 0,0 -0.366,0.838 -0.369,0.846 0,0 -0.156,0.459 -0.154,0.454 l -0.35,1.013 C -1.54,4.296 -1.653,5.798 -1.677,7.14 -1.928,6.917 -2.243,6.782 -2.59,6.782 c -0.302,0 -0.579,0.097 -0.815,0.272 -0.098,0.073 -0.189,0.16 -0.272,0.26 -0.002,-0.116 -0.004,-0.232 -0.004,-0.349 0,-0.351 0.009,-0.707 0.027,-1.066 0.133,-2.625 0.761,-5.065 1.813,-7.055 0.212,-0.398 0.369,-0.684 0.61,-1.041 0,0 1.169,-1.813 1.166,-1.808 0.326,-0.483 0.984,-1.233 1.353,-1.544 0.005,-0.004 0.034,-0.035 0.039,-0.039 l 0.164,-0.159 c 0,0 0.142,-0.115 0.188,-0.153 0.042,-0.025 0.356,-0.213 0.356,-0.215 0.047,-0.024 0.09,-0.044 0.13,-0.064 0.238,-0.113 0.388,-0.147 0.665,-0.13 0.344,0 0.688,0.226 0.871,0.566 l 0.022,0.045 c 0.096,0.195 0.118,0.241 0.14,0.365 C 2.921,-4.387 2.151,-3.4 1.578,-2.423 1.082,-1.804 0.333,-0.69 0,0"
             style="fill:#ffffff;fill-opacity:1;fill-rule:nonzero;stroke:none"
             id="path1349" />
        </g>
        <g
           id="g1351"
           transform="translate(411.7957,153.099)">
          <path
             d="M 0,0 C 0.307,0.129 0.568,0.152 0.892,0.157 0.731,1.056 0.624,2.139 0.601,3.069 0.387,2.928 0.136,2.845 -0.131,2.845 -0.368,2.845 -0.592,2.914 -0.79,3.031 -0.721,2.082 -0.538,0.965 -0.269,-0.133 -0.186,-0.081 -0.098,-0.035 0,0"
             style="fill:#ffffff;fill-opacity:1;fill-rule:nonzero;stroke:none"
             id="path1353" />
        </g>
        <g
           id="g1355"
           transform="translate(426.7389,140.9208)">
          <path
             d="m 0,0 c 0,0.031 -0.016,0.084 -0.037,0.141 -0.247,-0.173 -0.502,-0.34 -0.761,-0.505 0.202,-0.02 0.399,-0.036 0.59,-0.047 C -0.078,-0.317 0,-0.167 0,0"
             style="fill:#ffffff;fill-opacity:1;fill-rule:nonzero;stroke:none"
             id="path1357" />
        </g>
        <g
           id="g1359"
           transform="translate(414.4947,149.0679)">
          <path
             d="M 0,0 0.035,0.012 C 0.082,0.029 0.192,0.016 0.241,0.007 l 0.136,-0.026 c 0.445,0 0.807,0.379 0.807,0.843 0,0.128 -0.075,0.513 -0.122,0.632 C 0.974,1.564 0.889,1.69 0.804,1.839 L 0.553,2.184 C 0.54,2.202 0.529,2.222 0.52,2.242 0.172,3.077 -0.684,3.616 -1.66,3.616 -1.998,3.616 -2.218,3.611 -2.492,3.497 -2.635,3.445 -2.755,3.362 -2.859,3.257 -2.883,3.193 -2.927,3.141 -2.988,3.106 -3.106,2.951 -3.206,2.768 -3.305,2.575 -3.963,1.444 -3.85,-0.059 -3.113,-1.66 c 0.011,-0.009 0.023,-0.014 0.033,-0.025 0.138,-0.16 0.329,-0.239 0.583,-0.239 0.427,0 0.714,0.233 0.767,0.624 0.014,0.105 0.086,0.194 0.187,0.23 0.1,0.037 0.212,0.015 0.291,-0.058 0,0 0.03,-0.028 0.061,-0.055 0.081,-0.028 0.164,-0.048 0.251,-0.048 0.429,0 0.774,0.354 0.797,0.797 0,0.001 -0.001,0.004 -0.001,0.004 -0.028,0.046 -0.043,0.102 -0.043,0.157 0,0.032 0.005,0.064 0.015,0.094 0.03,0.081 0.09,0.151 0.172,0.179"
             style="fill:#ffffff;fill-opacity:1;fill-rule:nonzero;stroke:none"
             id="path1361" />
        </g>
        <g
           id="g1363"
           transform="translate(406.4471,156.4936)">
          <path
             d="m 0,0 c 0.187,-0.296 0.45,-0.473 0.751,-0.473 0.422,0 0.786,0.329 0.886,0.8 0.027,0.129 0.139,0.223 0.271,0.227 0.131,0.005 0.249,-0.081 0.285,-0.207 0.116,-0.406 0.422,-0.842 0.818,-0.842 0.532,0 0.933,0.378 0.933,0.881 0,0.135 0.094,0.252 0.227,0.281 C 4.303,0.695 4.437,0.628 4.492,0.505 4.624,0.213 4.909,0.024 5.218,0.024 5.593,0.024 5.922,0.301 6.002,0.683 6.034,0.838 6.186,0.937 6.341,0.905 6.496,0.873 6.595,0.721 6.563,0.566 6.554,0.523 6.538,0.482 6.526,0.441 6.484,-0.603 6.611,-2.118 6.829,-3.266 7.832,-3.407 8.681,-4.024 9.074,-4.918 l 0.248,-0.341 c 0.006,-0.008 0.012,-0.018 0.017,-0.027 0.258,-0.456 0.46,-0.586 0.813,-0.691 0.095,0.003 0.189,0.023 0.276,0.057 -0.054,0.103 -0.109,0.21 -0.166,0.325 -0.534,1.069 -0.716,1.834 -0.665,2.863 -0.025,0.001 -0.048,0.001 -0.074,0.004 -0.081,0.01 -0.159,0.035 -0.234,0.069 -0.029,-0.04 -0.05,-0.07 -0.05,-0.07 -0.215,-0.242 -0.443,-0.297 -0.596,-0.3 -0.209,-0.005 -0.41,0.082 -0.566,0.243 -0.129,0.134 -0.178,0.303 -0.199,0.445 -0.165,0.047 -0.342,0.12 -0.488,0.246 -0.212,0.184 -0.322,0.425 -0.322,0.701 0,0.024 0.001,0.048 0.002,0.072 l 0.084,0.307 0.056,0.178 c 0.031,0.096 0.077,0.228 0.175,0.251 0.099,0.023 0.169,0.052 0.239,-0.021 l 0.19,-0.197 c 0.022,-0.032 0.06,-0.083 0.097,-0.128 0.038,0.037 0.064,0.07 0.064,0.107 0,0.06 -0.051,0.138 -0.149,0.288 C 7.688,-0.327 7.5,-0.039 7.468,0.356 L 7.433,0.681 7.417,0.854 C 7.231,0.877 7.066,0.95 6.942,1.072 6.873,1.14 6.8,1.241 6.751,1.382 6.469,1.136 6.108,0.991 5.727,0.991 5.11,0.991 4.588,1.366 4.328,1.896 4.038,1.599 3.634,1.408 3.159,1.408 2.55,1.408 2.025,1.774 1.762,2.315 1.609,2.256 1.453,2.218 1.271,2.218 1.018,2.218 0.729,2.276 0.461,2.459 0.307,2.565 0.159,2.712 0.029,2.916 -0.109,2.244 -0.21,1.535 -0.271,0.798 -0.27,0.792 -0.266,0.788 -0.265,0.781 -0.226,0.472 -0.131,0.208 0,0"
             style="fill:#ffffff;fill-opacity:1;fill-rule:nonzero;stroke:none"
             id="path1365" />
        </g>
        <g
           id="g1367"
           transform="translate(411.0494,152.5185)">
          <path
             d="M 0,0 C -0.293,1.123 -0.5,2.26 -0.593,3.262 -0.854,3.04 -1.199,2.906 -1.591,2.906 c -0.302,0 -0.559,0.123 -0.772,0.309 0.027,-1.281 0.138,-2.702 0.546,-4.077 0,0 0.339,-0.98 0.341,-0.985 0,0 0.153,-0.452 0.153,-0.452 l 0.346,-0.792 c 0,0 0.17,-0.376 0.223,-0.494 -0.216,1.113 -0.101,2.138 0.391,2.983 C -0.26,-0.4 -0.144,-0.19 0,0"
             style="fill:#ffffff;fill-opacity:1;fill-rule:nonzero;stroke:none"
             id="path1369" />
        </g>
        <g
           id="g1371"
           transform="translate(435.3748,161.3679)">
          <path
             d="m 0,0 c -0.26,-0.195 -0.58,-0.312 -0.927,-0.312 -0.166,0 -0.32,0.047 -0.459,0.107 -0.201,-0.587 -0.663,-0.961 -1.281,-0.961 -0.31,0 -0.6,0.106 -0.847,0.28 -0.215,-0.596 -0.74,-1.022 -1.36,-1.022 -0.51,0 -0.982,0.262 -1.262,0.7 -0.085,0.133 -0.046,0.311 0.087,0.396 0.133,0.086 0.311,0.047 0.396,-0.087 0.175,-0.272 0.466,-0.435 0.779,-0.435 0.493,0 0.893,0.462 0.893,1.029 0,0.128 0.085,0.24 0.208,0.276 0.122,0.035 0.253,-0.015 0.322,-0.123 0.174,-0.276 0.468,-0.44 0.784,-0.44 0.45,0 0.754,0.312 0.815,0.834 0.011,0.097 0.07,0.18 0.156,0.224 0.086,0.043 0.189,0.04 0.273,-0.008 0.143,-0.083 0.337,-0.196 0.496,-0.196 0.26,0 0.495,0.106 0.673,0.275 0.201,0.191 0.331,0.464 0.331,0.77 L 0.055,1.621 C -0.67,2.933 -1.603,3.84 -2.673,4.147 -2.681,4.148 -2.695,4.15 -2.709,4.151 -2.763,4.159 -2.841,4.169 -2.854,4.171 -3.874,4.382 -4.945,3.688 -5.401,2.522 -5.483,2.315 -5.536,2.16 -5.567,1.988 L -5.59,1.828 c -0.066,-0.462 -0.106,-0.74 -0.454,-1.363 -0.129,-0.231 -0.39,-0.549 -0.654,-0.839 0.024,-0.022 0.046,-0.047 0.063,-0.075 0.027,-0.048 0.166,-0.295 0.177,-0.46 0.012,-0.186 -0.036,-0.385 -0.131,-0.568 0.036,-0.12 0.06,-0.241 0.06,-0.365 0,-0.058 -0.004,-0.118 -0.012,-0.177 -0.018,-0.138 -0.026,-0.249 -0.026,-0.34 0,-0.236 0.049,-0.329 0.077,-0.362 0.012,-0.015 0.047,-0.046 0.152,-0.058 0.022,0.014 0.064,0.056 0.099,0.116 0.048,0.084 0.144,0.124 0.24,0.13 0.096,0.006 0.197,-0.05 0.255,-0.127 l 0.003,-0.005 c 0.02,0.022 0.042,0.043 0.069,0.058 0.139,0.077 0.313,0.026 0.389,-0.113 0.18,-0.327 0.516,-0.53 0.876,-0.53 0.518,0 0.949,0.405 1.002,0.942 0.009,0.09 0.061,0.162 0.132,0.208 0.028,0.026 0.061,0.047 0.099,0.06 0.15,0.052 0.313,-0.028 0.365,-0.177 0.131,-0.38 0.503,-0.616 0.97,-0.616 0.44,0 0.845,0.35 0.963,0.832 0.022,0.091 0.088,0.165 0.174,0.199 0.087,0.033 0.185,0.023 0.263,-0.028 0.192,-0.128 0.32,-0.192 0.488,-0.192 0.214,0 0.443,0.081 0.633,0.223 0.215,0.162 0.381,0.403 0.412,0.71 0,0.006 0.004,0.01 0.005,0.016 C 0.936,-0.454 0.742,0.126 0.518,0.66 0.405,0.395 0.225,0.168 0,0"
             style="fill:#ffffff;fill-opacity:1;fill-rule:nonzero;stroke:none"
             id="path1373" />
        </g>
        <g
           id="g1375"
           transform="translate(426.2356,143.3452)">
          <path
             d="m 0,0 -0.844,-0.546 -0.261,-0.162 c -2.813,-1.746 -6.343,-2.654 -8.784,-2.756 -0.326,-0.013 -0.636,-0.014 -0.919,0.002 -0.406,0 -0.842,-0.295 -0.842,-0.733 0,-0.432 0.336,-0.784 0.749,-0.788 0.008,-0.001 0.029,-0.002 0.029,-0.002 0.033,-0.003 0.054,-0.028 0.082,-0.04 1.547,-0.413 3.645,-0.177 5.889,0.609 1.342,0.47 2.735,1.137 4.094,1.98 0.621,0.385 1.208,0.795 1.758,1.221 C 0.422,-1.064 0.03,-0.582 0,0"
             style="fill:#ffffff;fill-opacity:1;fill-rule:nonzero;stroke:none"
             id="path1377" />
        </g>
        <g
           id="g1379"
           transform="translate(435.424,158.7722)">
          <path
             d="m 0,0 c -0.2,0 -0.361,0.053 -0.508,0.122 -0.267,-0.556 -0.785,-0.933 -1.381,-0.933 -0.463,0 -0.874,0.171 -1.164,0.457 -0.264,-0.523 -0.795,-0.874 -1.403,-0.874 -0.441,0 -0.856,0.192 -1.152,0.515 -0.031,-0.257 -0.139,-0.42 -0.238,-0.518 -0.124,-0.122 -0.289,-0.195 -0.475,-0.218 L -6.337,-1.62 -6.372,-1.946 c -0.032,-0.395 -0.22,-0.683 -0.358,-0.893 -0.098,-0.15 -0.149,-0.228 -0.149,-0.289 0,-0.037 0.025,-0.07 0.064,-0.106 0.037,0.045 0.075,0.096 0.096,0.127 l 0.191,0.197 c 0.07,0.073 0.14,0.045 0.238,0.022 0.099,-0.023 0.145,-0.155 0.175,-0.251 l 0.057,-0.179 0.084,-0.307 c 0.001,-0.024 0.002,-0.048 0.002,-0.071 0,-0.278 -0.111,-0.519 -0.324,-0.703 -0.146,-0.125 -0.322,-0.198 -0.486,-0.245 -0.022,-0.141 -0.07,-0.311 -0.199,-0.445 -0.156,-0.161 -0.357,-0.247 -0.566,-0.243 -0.137,0.003 -0.334,0.049 -0.528,0.232 -0.051,-0.02 -0.102,-0.034 -0.155,-0.043 -0.114,-0.883 -0.333,-1.964 -0.925,-2.944 -0.043,-0.073 -0.086,-0.14 -0.128,-0.205 0.038,-0.016 0.088,-0.015 0.184,-0.013 0,0 0.041,10e-4 0.078,10e-4 0.364,0.106 0.567,0.234 0.829,0.697 0.005,0.009 0.011,0.018 0.017,0.027 0,0 0.258,0.355 0.246,0.337 0.606,0.977 1.439,1.555 2.37,1.664 0.249,1.235 0.367,2.58 0.323,3.738 -0.022,0.061 -0.043,0.123 -0.056,0.188 -0.033,0.156 0.067,0.307 0.222,0.34 0.156,0.032 0.307,-0.068 0.339,-0.223 0.008,-0.036 0.02,-0.07 0.032,-0.104 0.008,-0.015 0.012,-0.032 0.017,-0.049 0.125,-0.3 0.412,-0.506 0.735,-0.506 0.309,0 0.593,0.189 0.725,0.481 0.056,0.123 0.19,0.19 0.322,0.162 0.132,-0.028 0.226,-0.145 0.226,-0.28 0,-0.503 0.402,-0.882 0.934,-0.882 0.396,0 0.702,0.437 0.818,0.842 0.036,0.126 0.154,0.212 0.285,0.208 0.132,-0.005 0.243,-0.099 0.271,-0.228 0.1,-0.471 0.464,-0.8 0.886,-0.8 0.281,0 0.555,0.165 0.752,0.403 0.168,0.204 0.28,0.462 0.28,0.724 0,10e-4 10e-4,0.002 10e-4,0.004 C 1.496,-0.81 1.398,-0.086 1.261,0.601 1.13,0.443 0.972,0.315 0.8,0.217 0.549,0.076 0.269,0 0,0"
             style="fill:#ffffff;fill-opacity:1;fill-rule:nonzero;stroke:none"
             id="path1381" />
        </g>
        <g
           id="g1383"
           transform="translate(435.9439,155.5067)">
          <path
             d="m 0,0 c -0.32,0 -0.614,0.116 -0.855,0.311 -0.05,-1.587 -0.26,-3.019 -0.629,-4.264 -0.145,-0.488 -0.371,-1.216 -0.632,-1.916 v 0 c -0.226,-0.608 -0.433,-1.077 -0.617,-1.392 -0.422,-0.727 -1.266,-1.903 -1.923,-2.677 -0.024,-0.029 -0.054,-0.051 -0.085,-0.067 -0.487,-0.717 -1.077,-1.431 -1.756,-2.123 -0.006,-0.063 -0.01,-0.121 -0.01,-0.171 0,-0.161 0.029,-0.276 0.07,-0.432 0,0 0.018,-0.072 0.031,-0.123 0.18,-0.319 0.508,-0.518 0.864,-0.518 0.015,0 0.03,-10e-4 0.045,-0.003 0.116,-0.019 0.207,-0.024 0.29,-0.014 0.138,0.015 0.257,0.069 0.442,0.165 0,0 0.344,0.206 0.373,0.223 0.047,0.038 0.198,0.161 0.198,0.161 l 0.145,0.139 c 0.004,0.004 0.042,0.047 0.047,0.051 0.369,0.31 1.026,1.06 1.349,1.539 0,0 1.17,1.813 1.173,1.818 0.241,0.355 0.468,0.733 0.677,1.124 1.098,2.057 1.726,4.509 1.867,7.286 0.018,0.359 0.027,0.715 0.027,1.066 0,0.102 -0.002,0.203 -0.003,0.304 C 1.003,0.402 0.91,0.326 0.812,0.26 0.569,0.098 0.29,0 0,0"
             style="fill:#ffffff;fill-opacity:1;fill-rule:nonzero;stroke:none"
             id="path1385" />
        </g>
        <g
           id="g1387"
           transform="translate(407.0809,159.5551)">
          <path
             d="m 0,0 c 0.211,-0.229 0.447,-0.27 0.637,-0.27 0.187,0 0.307,0.038 0.475,0.149 0.078,0.052 0.176,0.063 0.263,0.028 0.087,-0.033 0.152,-0.108 0.174,-0.198 0.114,-0.465 0.516,-0.789 0.976,-0.789 0.502,0 0.892,0.275 0.995,0.701 0.034,0.141 0.168,0.234 0.313,0.217 0.144,-0.017 0.253,-0.139 0.253,-0.285 0,-0.579 0.452,-1.05 1.007,-1.05 0.361,0 0.696,0.203 0.876,0.53 0.058,0.106 0.174,0.16 0.288,0.145 0.058,0.076 0.158,0.132 0.254,0.126 0.096,-0.006 0.191,-0.046 0.239,-0.13 0.035,-0.06 0.077,-0.102 0.099,-0.117 0.105,0.012 0.14,0.044 0.153,0.059 0.027,0.033 0.076,0.126 0.076,0.362 0,0.09 -0.008,0.202 -0.026,0.34 C 7.044,-0.123 7.04,-0.064 7.04,-0.005 7.04,0.119 7.064,0.24 7.1,0.359 7.006,0.542 6.957,0.742 6.969,0.927 6.98,1.095 7.119,1.34 7.147,1.388 7.174,1.436 7.215,1.475 7.261,1.501 7.048,1.748 6.846,2.01 6.73,2.218 6.382,2.84 6.342,3.119 6.276,3.581 c 0,0 -0.022,0.15 -0.022,0.152 C 6.221,3.913 6.168,4.068 6.088,4.275 5.631,5.441 4.56,6.135 3.52,5.92 3.52,5.92 3.399,5.905 3.358,5.899 3.348,5.896 3.337,5.892 3.326,5.889 2.267,5.571 1.342,4.667 0.624,3.361 0.623,3.336 0.611,3.083 0.609,3.082 0.635,2.753 0.744,2.486 0.917,2.302 1.09,2.117 1.329,2.015 1.613,2.015 1.783,2.015 1.952,2.059 2.1,2.145 2.183,2.194 2.286,2.197 2.372,2.154 2.459,2.11 2.517,2.026 2.529,1.93 2.586,1.434 2.879,1.161 3.353,1.161 c 0.317,0 0.61,0.164 0.785,0.44 C 4.206,1.709 4.337,1.759 4.46,1.723 4.582,1.688 4.667,1.576 4.667,1.448 4.667,0.88 5.068,0.419 5.56,0.419 5.874,0.419 6.165,0.582 6.339,0.854 6.424,0.987 6.602,1.026 6.735,0.941 6.869,0.856 6.908,0.678 6.822,0.545 6.542,0.107 6.07,-0.155 5.56,-0.155 4.94,-0.155 4.415,0.271 4.201,0.867 3.953,0.693 3.663,0.587 3.353,0.587 2.711,0.587 2.25,0.941 2.057,1.512 1.913,1.468 1.764,1.441 1.613,1.441 1.246,1.441 0.925,1.561 0.666,1.767 0.456,1.935 0.288,2.16 0.179,2.437 -0.035,1.93 -0.224,1.383 -0.382,0.799 -0.38,0.793 -0.376,0.789 -0.375,0.783 -0.277,0.4 -0.144,0.156 0,0"
             style="fill:#ffffff;fill-opacity:1;fill-rule:nonzero;stroke:none"
             id="path1389" />
        </g>
        <g
           id="g1391"
           transform="translate(428.7664,145.7466)">
          <path
             d="m 0,0 c -0.02,-0.078 -0.055,-0.24 -0.055,-0.349 0,-0.428 0.333,-0.777 0.743,-0.777 0.192,0 0.375,0.077 0.514,0.217 0.026,0.025 0.056,0.044 0.088,0.058 0.447,0.547 0.832,1.1 1.15,1.647 C 2.378,0.787 2.316,0.782 2.254,0.782 1.604,0.782 1.145,1.09 0.967,1.584 0.882,1.567 0.798,1.535 0.709,1.535 0.04,1.535 -0.494,2.037 -0.619,2.687 H -0.62 c -0.761,0 -1.381,0.635 -1.381,1.416 0,0.038 0.006,0.088 0.015,0.141 C -2.064,4.214 -2.146,4.184 -2.237,4.159 -2.261,4.152 -2.29,4.149 -2.315,4.149 L -2.429,4.147 C -2.635,4.143 -2.804,4.153 -2.964,4.267 -3.163,4.027 -3.372,3.822 -3.64,3.583 -3.95,3.306 -4.148,3.157 -4.522,2.918 L -4.952,2.63 C -5.286,2.401 -5.597,2.191 -5.965,2.052 -6.069,1.868 -6.171,1.61 -6.171,1.474 c 0,-0.504 0.393,-0.914 0.876,-0.914 0.164,0 0.324,0.048 0.462,0.138 0.001,0 0.002,0 0.003,0.001 l 0.061,0.051 c 0.082,0.177 0.206,0.333 0.368,0.448 0.129,0.092 0.308,0.062 0.4,-0.067 C -3.91,1.002 -3.94,0.823 -4.069,0.731 -4.114,0.699 -4.151,0.659 -4.184,0.615 -4.189,0.538 -4.224,0.464 -4.284,0.411 -4.295,0.366 -4.302,0.319 -4.302,0.271 c 0,-0.306 0.238,-0.555 0.529,-0.555 0.165,0 0.318,0.079 0.419,0.217 0.076,0.104 0.212,0.144 0.333,0.098 0.121,-0.046 0.196,-0.167 0.183,-0.295 L -2.844,-0.332 C -2.849,-0.387 -2.87,-0.439 -2.904,-0.483 -3,-0.604 -3.042,-0.72 -3.042,-0.859 c 0,-0.346 0.268,-0.628 0.599,-0.628 l 0.103,-0.002 c 0.079,-0.003 0.079,-0.003 0.112,0.019 0.014,0.009 0.028,0.017 0.043,0.024 l 0.086,0.037 c 0.119,0.053 0.258,0.018 0.339,-0.084 0.082,-0.102 0.083,-0.246 0.006,-0.35 -0.081,-0.109 -0.21,-0.337 -0.21,-0.489 0,-0.422 0.329,-0.765 0.732,-0.765 0.178,0 0.349,0.067 0.482,0.19 0.031,0.027 0.065,0.046 0.101,0.059 0.281,0.246 0.549,0.497 0.805,0.751 0.027,0.055 0.071,0.097 0.124,0.125 0.094,0.095 0.186,0.19 0.276,0.286 -0.663,0.069 -1.184,0.639 -1.184,1.337 0,0.049 0.005,0.112 0.013,0.179 -0.009,0 -0.016,-0.001 -0.027,-0.001 -0.702,0 -1.266,0.571 -1.303,1.282 -0.091,-0.013 -0.184,-0.019 -0.284,-0.019 -0.726,0 -1.316,0.605 -1.316,1.35 0,0.444 0.213,0.86 0.57,1.112 0.129,0.091 0.308,0.061 0.4,-0.069 C -2.484,3.356 -2.515,3.177 -2.644,3.086 -2.849,2.941 -2.971,2.7 -2.971,2.442 c 0,-0.428 0.333,-0.777 0.742,-0.777 0.253,0 0.312,0.018 0.419,0.129 0.085,0.087 0.215,0.112 0.325,0.061 0.11,-0.05 0.177,-0.164 0.167,-0.285 L -1.322,1.523 C -1.324,1.499 -1.329,1.474 -1.338,1.451 -1.369,1.364 -1.385,1.273 -1.385,1.179 c 0,-0.428 0.334,-0.777 0.743,-0.777 0.189,0 0.189,0 0.288,0.083 C -0.246,0.576 -0.087,0.574 0.02,0.48 0.083,0.424 0.116,0.345 0.116,0.265 0.116,0.212 0.101,0.158 0.071,0.11 0.071,0.11 0.028,0.044 0,0"
             style="fill:#ffffff;fill-opacity:1;fill-rule:nonzero;stroke:none"
             id="path1393" />
        </g>
        <g
           id="g1395"
           transform="translate(430.0396,152.63)">
          <path
             d="M 0,0 C -0.004,0.001 -0.007,0.003 -0.011,0.005 -1.072,-0.07 -1.745,-0.9 -2.069,-1.421 l -0.25,-0.344 c -0.057,-0.1 -0.115,-0.188 -0.173,-0.269 -10e-4,-0.003 -10e-4,-0.005 -10e-4,-0.007 -0.065,-0.143 -0.206,-0.632 -0.207,-0.739 0,-0.465 0.362,-0.843 0.807,-0.843 l 0.221,0.032 c 0.113,0.016 0.245,-0.031 0.305,-0.128 0.034,-0.054 0.054,-0.115 0.054,-0.175 0,-0.046 -0.013,-0.091 -0.039,-0.132 0.046,-0.419 0.375,-0.749 0.788,-0.749 0.099,0 0.195,0.018 0.286,0.054 l 0.069,0.028 c 0.088,0.035 0.189,0.024 0.267,-0.029 0.079,-0.054 0.126,-0.143 0.126,-0.238 v -0.025 c 0.07,-0.471 0.528,-0.543 0.797,-0.543 0.227,0 0.446,0.102 0.599,0.278 0.009,0.012 0.023,0.017 0.034,0.027 0.718,1.581 0.828,3.072 0.168,4.207 -0.205,0.4 -0.42,0.77 -0.821,0.913 C 0.702,0.006 0.482,0.012 0.148,0.012 0.101,-0.003 0.052,-0.011 0,0"
             style="fill:#ffffff;fill-opacity:1;fill-rule:nonzero;stroke:none"
             id="path1397" />
        </g>
        <g
           id="g1399"
           transform="translate(432.7152,148.5338)">
          <path
             d="m 0,0 c 0.167,0.288 0.361,0.726 0.576,1.304 v 0 c 0.254,0.685 0.477,1.4 0.618,1.879 0.357,1.202 0.56,2.59 0.607,4.134 C 1.577,7.099 1.299,6.951 0.969,6.951 0.58,6.951 0.237,7.082 -0.023,7.3 -0.113,6.186 -0.325,5.018 -0.648,3.872 -0.652,3.857 -0.662,3.847 -0.668,3.833 -0.561,3.677 -0.471,3.512 -0.391,3.355 0.194,2.35 0.245,1.102 -0.145,-0.24 -0.093,-0.156 -0.043,-0.075 0,0"
             style="fill:#ffffff;fill-opacity:1;fill-rule:nonzero;stroke:none"
             id="path1401" />
        </g>
        <g
           id="g1403"
           transform="translate(430.7679,156.2112)">
          <path
             d="M 0,0 C -0.015,-0.97 -0.124,-2.014 -0.314,-3 -0.046,-3.009 0.183,-3.041 0.44,-3.149 0.585,-3.201 0.712,-3.271 0.826,-3.355 1.123,-2.23 1.31,-1.093 1.375,-0.017 1.175,-0.136 0.949,-0.207 0.709,-0.207 0.452,-0.207 0.209,-0.13 0,0"
             style="fill:#ffffff;fill-opacity:1;fill-rule:nonzero;stroke:none"
             id="path1405" />
        </g>
        <g
           id="g1407"
           transform="translate(428.2622,157.3565)">
          <path
             d="m 0,0 c 0,-0.039 0.014,-0.053 0.03,-0.067 0.004,0.003 0.067,0.049 0.067,0.049 C 0.148,0.02 0.208,0.024 0.27,0.015 0.271,0.028 0.272,0.039 0.273,0.048 0.188,0.083 0.107,0.129 0.028,0.185 0.011,0.103 0,0.037 0,0"
             style="fill:#ffffff;fill-opacity:1;fill-rule:nonzero;stroke:none"
             id="path1409" />
        </g>
        <g
           id="g1411"
           transform="translate(426.6926,160.7518)">
          <path
             d="m 0,0 c -0.078,0.047 -0.143,0.113 -0.196,0.193 -0.006,0.01 -0.013,0.02 -0.019,0.03 -0.024,0.042 -0.047,0.086 -0.067,0.134 -0.009,-0.022 -0.019,-0.05 -0.03,-0.078 0.074,-0.107 0.145,-0.242 0.198,-0.412 0.001,-0.003 0.002,-0.006 0.003,-0.009 0.025,-0.078 0.044,-0.164 0.059,-0.258 0.003,-0.018 0.005,-0.037 0.008,-0.056 0.013,-0.096 0.022,-0.198 0.022,-0.311 0,0 -0.02,-0.136 -0.036,-0.251 -10e-4,-0.006 -0.002,-0.012 -0.003,-0.018 0.118,-0.249 0.232,-0.281 0.331,-0.281 0.034,0 0.069,0.004 0.105,0.012 0.035,0.008 0.071,0.02 0.106,0.036 0.071,0.031 0.138,0.077 0.197,0.134 h 0.001 c 0,0.001 0.11,0.141 0.111,0.142 l 0.075,0.174 c 0,0.001 0.001,0.003 0.002,0.005 0.008,0.03 0.007,0.057 0.012,0.085 0.007,0.043 0.016,0.087 0.017,0.128 0,0.004 -0.001,0.008 -0.001,0.012 0,0.047 -0.006,0.096 -0.015,0.146 -0.003,0.015 -0.005,0.03 -0.008,0.046 -0.011,0.052 -0.025,0.107 -0.042,0.17 -0.004,0.014 -0.008,0.027 -0.012,0.042 0,0 -0.041,0.142 -0.041,0.143 l -0.1,0.19 C 0.672,0.155 0.669,0.158 0.664,0.165 0.631,0.117 0.597,0.076 0.56,0.042 0.486,-0.027 0.403,-0.067 0.31,-0.076 0.263,-0.08 0.214,-0.077 0.163,-0.066 0.114,-0.055 0.071,-0.037 0.03,-0.016 0.019,-0.011 0.01,-0.006 0,0"
             style="fill:#ffffff;fill-opacity:1;fill-rule:nonzero;stroke:none"
             id="path1413" />
        </g>
        <g
           id="g1415"
           transform="translate(426.9598,161.4046)">
          <path
             d="m 0,0 0.051,0.128 c 0.04,0.1 0.114,0.132 0.221,0.142 0.006,0 0.013,0.001 0.02,0.001 C 0.288,0.281 0.223,0.438 0.223,0.438 0.083,0.781 -0.016,0.991 -0.142,1.131 -0.142,1.109 -0.14,1.06 -0.14,1.06 -0.136,0.799 -0.119,0.188 -0.019,-0.056 -0.012,-0.035 -0.004,-0.012 0,0"
             style="fill:#ffffff;fill-opacity:1;fill-rule:nonzero;stroke:none"
             id="path1417" />
        </g>
        <g
           id="g1419"
           transform="translate(428.0309,154.0831)">
          <path
             d="m 0,0 c 0.016,0.016 0.053,0.075 0.058,0.27 0.003,0.147 0.14,0.279 0.287,0.291 0.004,0 0.396,0.07 0.474,0.342 -0.053,-0.034 -0.112,-0.06 -0.176,-0.07 0,0 -0.31,0.08 -0.31,0.08 C 0.261,0.968 0.202,1.022 0.152,1.076 0.146,0.986 0.137,0.894 0.118,0.796 0.056,0.466 -0.064,0.176 -0.223,-0.041 -0.198,-0.056 -0.17,-0.068 -0.142,-0.069 -0.078,-0.07 -0.025,-0.026 0,0"
             style="fill:#ffffff;fill-opacity:1;fill-rule:nonzero;stroke:none"
             id="path1421" />
        </g>
        <g
           id="g1423"
           transform="translate(427.7727,156.7714)">
          <path
             d="m 0,0 c 0.151,-0.065 0.309,-0.079 0.396,-0.039 -0.063,0.017 -0.133,0.026 -0.18,0.057 -0.23,0.148 -0.297,0.351 -0.297,0.562 0,0.161 0.039,0.326 0.074,0.476 l 0.006,0.031 C 0.005,1.115 0.015,1.161 0.025,1.208 L 0.044,1.303 C -0.124,1.576 -0.253,1.888 -0.357,2.194 -0.503,2.128 -0.657,2.09 -0.81,2.09 c -0.061,0 -0.118,0.007 -0.174,0.017 0.078,-0.08 0.14,-0.192 0.14,-0.365 0,-0.028 -0.002,-0.059 -0.005,-0.09 C -0.878,1.381 -1.017,1.255 -1.128,1.196 -1.198,1.16 -1.269,1.151 -1.339,1.146 -1.328,1.055 -1.31,0.975 -1.275,0.945 L -1.25,0.931 c 0.106,-0.053 0.312,-0.03 0.435,-0.016 l 0.156,0.013 c 0.076,0.007 0.14,-0.019 0.198,-0.069 0.058,-0.049 0.082,-0.121 0.088,-0.197 0.024,-0.343 0.12,-0.534 0.322,-0.64 0,0 0.027,-0.011 0.051,-0.022"
             style="fill:#ffffff;fill-opacity:1;fill-rule:nonzero;stroke:none"
             id="path1425" />
        </g>
        <g
           id="g1427"
           transform="translate(415.5674,157.4573)">
          <path
             d="M 0,0 C 0.006,0.076 0.03,0.148 0.088,0.198 0.146,0.248 0.21,0.273 0.286,0.266 L 0.444,0.253 C 0.564,0.239 0.814,0.209 0.9,0.282 L 0.918,0.306 C 0.945,0.348 0.959,0.414 0.967,0.485 0.897,0.488 0.825,0.498 0.755,0.534 0.644,0.593 0.505,0.719 0.476,0.99 0.473,1.022 0.471,1.052 0.471,1.08 c 0,0.172 0.062,0.284 0.14,0.364 C 0.556,1.435 0.499,1.428 0.437,1.428 0.314,1.428 0.157,1.459 -0.007,1.562 -0.113,1.246 -0.244,0.922 -0.417,0.64 l 0.008,-0.042 c 0.02,-0.093 0.043,-0.204 0.043,-0.204 0.035,-0.15 0.074,-0.315 0.074,-0.476 0,-0.21 -0.067,-0.413 -0.297,-0.563 -0.048,-0.03 -0.119,-0.04 -0.184,-0.056 0.098,-0.048 0.294,-0.021 0.451,0.061 0,0 0.039,0.025 0.054,0.036 C -0.104,-0.492 -0.022,-0.306 0,0"
             style="fill:#ffffff;fill-opacity:1;fill-rule:nonzero;stroke:none"
             id="path1429" />
        </g>
        <g
           id="g1431"
           transform="translate(412.6287,165.5813)">
          <path
             d="m 0,0 c 0.347,-0.136 0.686,-0.17 1.007,-0.093 0.019,0.004 0.056,0.007 0.075,0.008 l 0.296,0.009 0.576,0.009 c 0.477,-0.052 1.59,-0.247 1.932,-0.914 -0.003,0.004 -0.003,0.008 -0.006,0.012 0.011,-0.013 0.018,-0.029 0.026,-0.044 0.128,-0.181 0.147,-0.348 0.157,-0.495 l 0.002,-0.027 c 0.33,0.365 0.777,0.627 1.262,0.697 0.029,0.004 0.062,0.007 0.093,0.01 0.321,0.289 0.335,0.572 0.329,0.684 C 5.756,0.042 5.695,0.201 5.574,0.316 5.435,0.446 5.227,0.508 5.006,0.486 4.908,0.475 4.736,0.385 4.643,0.337 L 4.568,0.299 C 4.46,0.243 4.331,0.263 4.243,0.347 4.155,0.43 4.131,0.561 4.179,0.672 4.246,0.824 4.307,1.016 4.306,1.072 4.292,1.282 4.198,1.473 4.042,1.608 3.896,1.735 3.712,1.797 3.522,1.784 3.4,1.775 3.285,1.736 3.182,1.668 3.069,1.593 2.919,1.608 2.823,1.703 2.727,1.798 2.71,1.947 2.782,2.061 2.896,2.239 2.952,2.36 2.94,2.526 2.925,2.757 2.822,2.965 2.652,3.113 2.526,3.223 2.372,3.287 2.211,3.302 2.168,3.306 2.126,3.308 2.082,3.306 1.962,3.297 1.847,3.261 1.743,3.2 1.717,3.184 1.689,3.178 1.661,3.171 1.058,2.808 0.573,2.436 0.221,2.074 -0.216,1.624 -0.449,1.189 -0.449,0.808 -0.449,0.748 -0.443,0.689 -0.431,0.63 -0.384,0.4 -0.235,0.189 0,0"
             style="fill:#ffffff;fill-opacity:1;fill-rule:nonzero;stroke:none"
             id="path1433" />
        </g>
        <g
           id="g1435"
           transform="translate(415.0417,156.166)">
          <path
             d="m 0,0 c -0.076,-0.008 -0.152,-0.008 -0.228,-0.001 0.068,-0.11 0.123,-0.236 0.15,-0.374 C -0.059,-0.245 -0.031,-0.12 0,0"
             style="fill:#ffffff;fill-opacity:1;fill-rule:nonzero;stroke:none"
             id="path1437" />
        </g>
        <g
           id="g1439"
           transform="translate(414.6092,157.3622)">
          <path
             d="m 0,0 c 0,0 0.061,-0.046 0.066,-0.049 0.015,0.015 0.029,0.028 0.029,0.067 0,0.038 -0.011,0.103 -0.028,0.185 C -0.011,0.148 -0.092,0.103 -0.178,0.068 -0.177,0.058 -0.176,0.047 -0.174,0.033 -0.113,0.043 -0.052,0.038 0,0"
             style="fill:#ffffff;fill-opacity:1;fill-rule:nonzero;stroke:none"
             id="path1441" />
        </g>
        <g
           id="g1443"
           transform="translate(414.1239,155.0045)">
          <path
             d="m 0,0 c 0.088,-0.268 0.463,-0.336 0.468,-0.337 0.146,-0.012 0.282,-0.144 0.286,-0.291 0.005,-0.195 0.043,-0.253 0.058,-0.27 0.026,-0.026 0.078,-0.07 0.142,-0.068 0.07,0.001 0.136,0.059 0.179,0.107 0,0 0.026,0.036 0.047,0.066 -0.196,0.279 -0.286,0.611 -0.324,0.809 0,0 0,0.001 0,0.002 C 0.829,0.16 0.817,0.292 0.815,0.418 0.76,0.288 0.66,0.154 0.48,0.015 L 0.17,-0.065 C 0.107,-0.055 0.051,-0.031 0,0"
             style="fill:#ffffff;fill-opacity:1;fill-rule:nonzero;stroke:none"
             id="path1445" />
        </g>
        <g
           id="g1447"
           transform="translate(413.7638,158.068)">
          <path
             d="m 0,0 c 0.012,-0.028 0.009,-0.076 0.028,-0.094 0.068,-0.067 0.186,-0.067 0.245,-0.061 0,0 0.038,0.008 0.042,0.008 0.199,0.032 0.373,0.16 0.532,0.39 0.003,0.004 0.005,0.009 0.008,0.013 0.049,0.072 0.094,0.15 0.136,0.232 0.032,0.063 0.061,0.128 0.089,0.194 0.01,0.022 0.02,0.043 0.029,0.065 0.073,0.177 0.135,0.364 0.193,0.545 -0.005,0 -0.008,0 -0.013,10e-4 L 1.26,1.296 c 0.016,-0.002 -0.015,-0.001 0,0 C 1.221,1.293 1.183,1.298 1.146,1.306 1.075,1.312 1.007,1.328 0.94,1.354 0.958,1.212 0.969,1.081 0.969,0.964 0.969,0.644 0.901,0.409 0.763,0.24 0.63,0.077 0.436,-0.015 0.187,-0.032 0.118,-0.036 0.058,-0.019 0,0"
             style="fill:#ffffff;fill-opacity:1;fill-rule:nonzero;stroke:none"
             id="path1449" />
        </g>
        <g
           id="g1451"
           transform="translate(427.2904,169.2482)">
          <path
             d="m 0,0 c 0.005,-0.023 0.007,-0.047 0.01,-0.07 0.023,0.013 0.048,0.02 0.071,0.032 C 0.054,-0.025 0.027,-0.013 0,0"
             style="fill:#ffffff;fill-opacity:1;fill-rule:nonzero;stroke:none"
             id="path1453" />
        </g>
        <g
           id="g1455"
           transform="translate(418.8867,169.1734)">
          <path
             d="M 0,0 C 0.021,0.054 0.056,0.1 0.106,0.133 0.171,0.237 0.216,0.354 0.231,0.48 0.256,0.686 0.198,0.88 0.069,1.025 0.047,1.05 0.021,1.07 -0.005,1.091 -0.14,1.205 -0.319,1.269 -0.523,1.269 -0.525,1.269 -0.526,1.27 -0.528,1.27 -0.883,1.168 -1.226,1.061 -1.555,0.949 c 0.039,-0.027 0.08,-0.051 0.117,-0.083 0.032,-0.028 0.056,-0.061 0.086,-0.091 0.225,-0.234 0.365,-0.536 0.387,-0.868 0.002,-0.032 0.003,-0.064 0.003,-0.096 0,-0.107 -0.026,-0.211 -0.05,-0.314 0.229,-0.013 0.439,-0.087 0.61,-0.236 0.227,-0.197 0.365,-0.494 0.389,-0.834 0,-0.015 10e-4,-0.031 10e-4,-0.046 0,-0.046 -0.02,-0.081 -0.028,-0.123 0.214,-0.02 0.419,-0.094 0.586,-0.239 0.218,-0.19 0.349,-0.456 0.369,-0.749 0,-0.006 0,-0.011 0.001,-0.017 0.187,0.085 0.387,0.167 0.596,0.246 0.02,0.047 0.036,0.085 0.036,0.083 0.033,0.278 -0.112,0.471 -0.378,0.505 L 0.94,-1.935 c -0.118,-0.012 -0.252,0.046 -0.305,0.153 -0.053,0.107 -0.055,0.23 0.026,0.317 l 0.065,0.07 c 0.078,0.083 0.158,0.167 0.166,0.235 0.032,0.267 -0.06,0.596 -0.393,0.639 L 0.201,-0.522 c -0.119,0 -0.239,0.071 -0.282,0.181 -0.044,0.11 -0.029,0.235 0.058,0.315 C -0.015,-0.018 -0.008,-0.008 0,0"
             style="fill:#ffffff;fill-opacity:1;fill-rule:nonzero;stroke:none"
             id="path1457" />
        </g>
        <g
           id="g1459"
           transform="translate(419.5322,170.3705)">
          <path
             d="M 0,0 C 0.107,-0.187 0.165,-0.399 0.165,-0.623 0.165,-0.676 0.162,-0.73 0.156,-0.785 0.152,-0.813 0.143,-0.84 0.137,-0.867 c 1.12,0.281 2.126,0.464 2.996,0.542 0.763,0.069 1.513,0.097 2.233,0.086 0.746,-0.011 1.459,-0.065 2.115,-0.162 0,0 0.254,-0.035 0.254,-0.036 10e-4,0 0.073,0 0.073,0 0.244,0.017 0.431,0.232 0.431,0.485 0,0.011 -0.001,0.023 -0.001,0.034 C 8.226,0.253 8.117,0.374 7.981,0.451 6.606,1.023 4.226,1.107 1.628,0.694 1.581,0.673 1.529,0.661 1.474,0.668 1.472,0.668 1.469,0.669 1.466,0.669 1.08,0.605 0.689,0.53 0.297,0.444 0.108,0.402 -0.079,0.358 -0.263,0.313 -0.224,0.279 -0.182,0.249 -0.147,0.209 -0.09,0.145 -0.042,0.074 0,0"
             style="fill:#ffffff;fill-opacity:1;fill-rule:nonzero;stroke:none"
             id="path1461" />
        </g>
        <g
           id="g1463"
           transform="translate(429.2175,163.2773)">
          <path
             d="m 0,0 c 0,0 0.023,0.163 0.025,0.172 0.04,0.225 0.105,0.415 0.197,0.65 0.1,0.254 0.225,0.489 0.37,0.704 -0.265,-0.043 -0.527,-0.041 -0.784,0.012 -0.023,0 -0.322,0.008 -0.322,0.008 0,0 -0.492,0.012 -0.492,0.013 C -1.769,1.476 -2.386,1.219 -2.507,0.935 -2.517,0.91 -2.531,0.887 -2.547,0.867 -2.59,0.813 -2.595,0.787 -2.604,0.649 c 0,0 -0.009,-0.09 -0.015,-0.153 0.011,-0.047 0.068,-0.282 0.114,-0.47 0.005,-0.015 0.01,-0.029 0.014,-0.043 0.569,-0.189 0.759,-0.64 0.987,-1.201 l 0.07,-0.17 c 0.087,-0.209 0.095,-0.426 0.102,-0.616 l 0.008,-0.146 c 0.012,-0.026 0.026,-0.053 0.041,-0.082 0.322,0.324 0.747,0.801 0.896,1.068 C -0.091,-0.635 -0.062,-0.436 0,0"
             style="fill:#ffffff;fill-opacity:1;fill-rule:nonzero;stroke:none"
             id="path1465" />
        </g>
        <g
           id="g1467"
           transform="translate(415.179,169.8664)">
          <path
             d="m 0,0 c 0.304,0.145 0.624,0.285 0.958,0.42 -0.006,-0.001 -0.012,0 -0.017,-0.001 0,0 0.014,0.003 0.034,0.007 C 1.846,0.777 2.813,1.09 3.851,1.349 2.293,1.404 0.966,1.233 0.044,0.849 -0.093,0.772 -0.205,0.651 -0.216,0.478 -0.217,0.461 -0.219,0.44 -0.219,0.417 -0.219,0.28 -0.185,0.07 0,0"
             style="fill:#ffffff;fill-opacity:1;fill-rule:nonzero;stroke:none"
             id="path1469" />
        </g>
        <g
           id="g1471"
           transform="translate(428.927,157.8897)">
          <path
             d="M 0,0 C 0.064,-0.006 0.18,-0.007 0.248,0.06 0.266,0.078 0.264,0.126 0.276,0.154 0.218,0.135 0.159,0.118 0.09,0.123 -0.16,0.14 -0.354,0.231 -0.487,0.395 c -0.138,0.169 -0.205,0.403 -0.205,0.723 0,0.118 0.01,0.249 0.028,0.39 C -0.73,1.483 -0.799,1.467 -0.87,1.46 -0.907,1.453 -0.945,1.448 -0.984,1.45 L -1.026,1.447 C -0.969,1.268 -0.906,1.081 -0.834,0.903 -0.823,0.878 -0.811,0.854 -0.801,0.829 -0.773,0.766 -0.746,0.703 -0.716,0.644 -0.673,0.561 -0.628,0.482 -0.578,0.41 -0.576,0.406 -0.574,0.401 -0.571,0.397 -0.412,0.167 -0.238,0.04 -0.038,0.007 -0.036,0.007 0,0 0,0"
             style="fill:#ffffff;fill-opacity:1;fill-rule:nonzero;stroke:none"
             id="path1473" />
        </g>
        <g
           id="g1475"
           transform="translate(428.1494,159.9862)">
          <path
             d="m 0,0 c 0.039,0.034 0.07,0.071 0.087,0.096 0.001,0 0.001,0.001 0.002,0.002 L 0.09,0.099 C 0.111,0.13 0.123,0.164 0.139,0.198 0.095,0.187 0.052,0.181 0.01,0.182 0.01,0.176 0.013,0.17 0.013,0.164 0.013,0.149 0.01,0.131 0.008,0.114 0.007,0.077 0.005,0.039 0,0"
             style="fill:#ffffff;fill-opacity:1;fill-rule:nonzero;stroke:none"
             id="path1477" />
        </g>
        <g
           id="g1479"
           transform="translate(415.0243,159.3636)">
          <path
             d="M 0,0 C -0.015,-0.001 0.015,-0.001 0,0"
             style="fill:#ffffff;fill-opacity:1;fill-rule:nonzero;stroke:none"
             id="path1481" />
        </g>
        <g
           id="g1483"
           transform="translate(427.5585,159.9353)">
          <path
             d="m 0,0 -0.001,-0.003 c 0,0 -0.001,-0.001 -0.001,-0.001 0,0 0.001,0.001 0.002,0.004"
             style="fill:#ffffff;fill-opacity:1;fill-rule:nonzero;stroke:none"
             id="path1485" />
        </g>
        <g
           id="g1487"
           transform="translate(419.2823,155.9636)">
          <path
             d="M 0,0 C -0.049,0 -0.09,0.043 -0.09,0.095 -0.09,0.148 -0.049,0.19 0,0.19 0.05,0.19 0.09,0.148 0.09,0.095 0.09,0.043 0.05,0 0,0 M 0.488,-0.421 0.362,-0.449 C 0.453,-0.327 0.51,-0.176 0.51,-0.01 0.51,0.102 0.483,0.208 0.438,0.303 0.493,0.281 0.544,0.259 0.588,0.236 0.627,0.204 0.665,0.169 0.702,0.127 c 0.137,-0.157 0.2,-0.304 0.236,-0.482 0,-0.013 -0.003,-0.027 -0.004,-0.04 -0.18,0.03 -0.322,0.011 -0.446,-0.026"
             style="fill:#ffffff;fill-opacity:1;fill-rule:nonzero;stroke:none"
             id="path1489" />
        </g>
        <g
           id="g1491"
           transform="translate(418.4599,156.2739)">
          <path
             d="m 0,0 c -0.012,-0.007 -0.027,-0.013 -0.038,-0.02 -0.055,-0.046 -0.108,-0.1 -0.175,-0.17 L -0.339,-0.389 C -0.346,-0.402 -0.353,-0.414 -0.36,-0.427 -0.37,-0.464 -0.379,-0.5 -0.385,-0.542 c 0.053,-0.047 0.197,-0.139 0.268,-0.184 0.048,-0.03 0.128,-0.053 0.217,-0.07 -0.108,0.128 -0.176,0.293 -0.176,0.475 0,0.116 0.029,0.224 0.076,0.321"
             style="fill:#ffffff;fill-opacity:1;fill-rule:nonzero;stroke:none"
             id="path1493" />
        </g>
        <g
           id="g1495"
           transform="translate(419.2823,156.1541)">
          <path
             d="m 0,0 c -0.049,0 -0.09,-0.043 -0.09,-0.095 0,-0.053 0.041,-0.095 0.09,-0.095 0.05,0 0.09,0.042 0.09,0.095 C 0.09,-0.043 0.05,0 0,0"
             style="fill:#ffffff;fill-opacity:1;fill-rule:nonzero;stroke:none"
             id="path1497" />
        </g>
        <g
           id="g1499"
           transform="translate(420.2205,155.609)">
          <path
             d="m 0,0 c -0.036,0.177 -0.099,0.324 -0.236,0.481 -0.037,0.043 -0.076,0.078 -0.114,0.109 -0.044,0.024 -0.095,0.046 -0.151,0.068 0.045,-0.096 0.072,-0.201 0.072,-0.314 0,-0.166 -0.056,-0.316 -0.147,-0.439 l 0.126,0.029 c 0.124,0.036 0.266,0.056 0.446,0.026 C -0.004,-0.027 0,-0.014 0,0"
             style="fill:#ffffff;fill-opacity:1;fill-rule:nonzero;stroke:none"
             id="path1501" />
        </g>
        <g
           id="g1503"
           transform="translate(423.8105,155.4405)">
          <path
             d="m 0,0 -0.167,0.044 c -0.097,0.031 -0.202,0.05 -0.348,0.032 0.02,0.156 0.059,0.286 0.156,0.439 0.02,0.032 0.042,0.055 0.063,0.08 l 0.108,0.09 c 0.058,0.05 0.108,0.085 0.16,0.114 -0.064,-0.109 -0.103,-0.235 -0.103,-0.372 0,-0.161 0.053,-0.308 0.14,-0.429 z m 0.791,0.415 c -0.049,0 -0.09,0.042 -0.09,0.095 0,0.052 0.041,0.095 0.09,0.095 0.05,0 0.091,-0.043 0.091,-0.095 0,-0.053 -0.041,-0.095 -0.091,-0.095 m 0.486,-0.48 c -0.096,-0.043 -0.176,-0.059 -0.26,-0.066 0.157,0.133 0.26,0.333 0.26,0.558 0,0.092 -0.018,0.179 -0.049,0.26 C 1.286,0.647 1.344,0.601 1.409,0.54 1.5,0.455 1.545,0.315 1.574,0.209 1.578,0.177 1.583,0.147 1.585,0.114 1.504,0.067 1.277,-0.065 1.277,-0.065"
             style="fill:#ffffff;fill-opacity:1;fill-rule:nonzero;stroke:none"
             id="path1505" />
        </g>
        <g
           id="g1507"
           transform="translate(423.7821,156.2393)">
          <path
             d="m 0,0 c -0.052,-0.029 -0.101,-0.064 -0.16,-0.114 l -0.108,-0.089 c -0.021,-0.026 -0.043,-0.049 -0.063,-0.08 -0.096,-0.154 -0.135,-0.283 -0.155,-0.44 0.145,0.018 0.25,-0.001 0.347,-0.032 l 0.167,-0.044 0.009,-0.002 c -0.087,0.121 -0.14,0.268 -0.14,0.429 0,0.137 0.039,0.263 0.103,0.372"
             style="fill:#ffffff;fill-opacity:1;fill-rule:nonzero;stroke:none"
             id="path1509" />
        </g>
        <g
           id="g1511"
           transform="translate(424.602,156.0456)">
          <path
             d="m 0,0 c -0.049,0 -0.09,-0.043 -0.09,-0.095 0,-0.053 0.041,-0.095 0.09,-0.095 0.05,0 0.09,0.042 0.09,0.095 C 0.09,-0.043 0.05,0 0,0"
             style="fill:#ffffff;fill-opacity:1;fill-rule:nonzero;stroke:none"
             id="path1513" />
        </g>
        <g
           id="g1515"
           transform="translate(425.2194,155.9807)">
          <path
             d="m 0,0 c -0.065,0.061 -0.123,0.107 -0.181,0.147 0.031,-0.081 0.049,-0.168 0.049,-0.26 0,-0.226 -0.103,-0.425 -0.26,-0.558 0.084,0.007 0.165,0.023 0.26,0.066 0,0 0.227,0.132 0.308,0.179 C 0.174,-0.393 0.169,-0.363 0.165,-0.332 0.137,-0.225 0.091,-0.085 0,0"
             style="fill:#ffffff;fill-opacity:1;fill-rule:nonzero;stroke:none"
             id="path1517" />
        </g>
        <g
           id="g1519"
           transform="translate(426.4038,154.8948)">
          <path
             d="m 0,0 c 0.083,0.036 0.189,0.011 0.27,-0.035 0.028,0.028 0.04,0.08 0.04,0.144 0,0.113 -0.035,0.258 -0.077,0.354 L 0.004,0.786 c -0.198,0.235 -0.417,0.496 -0.417,1.103 0,0.143 0.012,0.306 0.039,0.492 l 0.028,0.079 c -0.274,0.321 -0.207,0.845 -0.189,0.955 0.015,0.091 0.074,0.167 0.157,0.208 0.082,0.041 0.179,0.04 0.261,-0.003 0.02,-0.01 0.043,-0.014 0.067,-0.02 V 3.601 C -0.074,3.61 -0.1,3.62 -0.1,3.62 -0.209,3.659 -0.381,3.722 -0.522,3.888 l -0.016,-0.01 c -0.293,-0.151 -0.754,-0.151 -1.067,0.141 -0.496,0.46 -0.406,0.991 -0.29,1.207 0.007,0.012 0.019,0.019 0.026,0.03 -0.263,0.06 -0.559,0.191 -0.81,0.464 C -2.913,5.431 -3.32,5.258 -3.634,5.258 -4.192,5.258 -4.642,5.582 -4.862,6.082 -4.919,6.035 -4.98,5.994 -5.044,5.957 -5.281,5.543 -5.69,5.306 -6.183,5.306 -6.417,5.306 -6.68,5.418 -6.894,5.597 -7.28,5.344 -7.697,5.317 -7.934,5.33 -7.963,5.331 -7.994,5.336 -8.025,5.339 -7.993,5.315 -7.965,5.286 -7.946,5.25 -7.83,5.034 -7.74,4.503 -8.235,4.043 -8.549,3.75 -9.01,3.751 -9.304,3.902 l -0.015,0.01 C -9.46,3.746 -9.631,3.683 -9.741,3.644 c 0,0 -0.025,-0.01 -0.049,-0.019 V 3.624 c 0.023,0.006 0.046,0.01 0.066,0.021 0.082,0.042 0.18,0.043 0.262,0.002 0.082,-0.041 0.141,-0.118 0.156,-0.209 0.008,-0.047 0.065,-0.427 -0.061,-0.744 0.03,-0.082 0.062,-0.17 0.062,-0.17 0.144,-0.975 -0.133,-1.304 -0.378,-1.595 0,0 -0.222,-0.313 -0.222,-0.309 -0.046,-0.105 -0.083,-0.255 -0.083,-0.369 0,-0.063 0.012,-0.115 0.04,-0.142 0.081,0.046 0.187,0.071 0.27,0.035 0.091,-0.041 0.175,-0.109 0.188,-0.208 0.008,-0.055 0.064,-0.548 -0.239,-0.855 -0.014,-0.013 -0.029,-0.027 -0.045,-0.041 -0.08,-1.036 0.068,-1.731 0.592,-2.78 0.297,-0.594 0.489,-0.951 0.977,-1.364 0.476,-0.402 0.707,-0.496 1.056,-0.638 l 0.413,-0.177 0.614,-0.317 c 0.227,-0.125 0.423,-0.233 0.647,-0.312 10e-4,-0.001 0.003,-0.002 0.005,-0.002 0.225,-0.08 0.479,-0.131 0.821,-0.142 0.007,-10e-4 0.013,0 0.02,0 l -0.179,0.037 -0.301,0.057 c -0.059,0.011 -0.117,0.069 -0.106,0.127 0.011,0.058 0.047,0.099 0.106,0.088 l 0.363,-0.066 0.188,-0.041 0.224,0.043 0.313,0.064 c 0.058,0.012 0.101,-0.027 0.113,-0.086 0.012,-0.058 -0.038,-0.117 -0.096,-0.128 l -0.271,-0.057 -0.2,-0.035 c 0.644,0.02 1.02,0.272 1.561,0.644 l 0.446,0.298 c 0.348,0.223 0.522,0.354 0.809,0.609 0.331,0.296 0.55,0.516 0.777,0.832 0.013,0.03 0.031,0.056 0.055,0.08 0.065,0.094 0.131,0.196 0.201,0.313 0.538,0.891 0.742,1.898 0.848,2.724 -0.072,0.038 -0.128,0.084 -0.171,0.127 -0.303,0.307 -0.247,0.799 -0.24,0.854 C -0.175,-0.108 -0.091,-0.04 0,0 m -3.118,2.54 0.143,0.077 0.265,0.135 c 0.357,0.158 0.598,0.158 0.961,0.144 0.2,-0.007 0.338,-0.053 0.484,-0.102 L -1.019,2.72 C -0.962,2.703 -0.924,2.641 -0.942,2.584 -0.959,2.528 -1.013,2.494 -1.07,2.511 L -1.334,2.59 C -1.47,2.636 -1.588,2.675 -1.757,2.681 -2.1,2.694 -2.309,2.694 -2.623,2.555 L -2.87,2.429 -3.019,2.349 C -3.071,2.321 -3.134,2.341 -3.163,2.393 -3.191,2.445 -3.17,2.511 -3.118,2.54 m -2.383,-3.5 c 0.014,-0.016 0.019,-0.032 0.019,-0.048 0,-0.028 -0.019,-0.049 -0.034,-0.07 -0.004,-0.005 -0.005,-0.014 -0.008,-0.018 H -5.525 C -5.526,-1.097 -5.526,-1.1 -5.527,-1.1 c 0,0 -0.005,0.003 -0.005,0.003 -0.044,-0.054 -0.274,-0.341 -0.288,-0.358 0,0 -0.079,-0.149 -0.097,-0.182 0.075,-0.138 0.097,-0.151 0.211,-0.146 l 0.074,0.023 0.092,0.044 c 0.096,0.046 0.179,0.086 0.31,0.08 l 0.217,-0.082 0.134,-0.062 0.047,-0.009 0.251,-0.014 0.131,0.044 0.196,0.056 0.217,-0.065 0.103,-0.048 0.047,-0.013 0.189,-0.082 0.042,-0.027 0.117,-0.122 -0.019,-0.091 c -0.06,-0.087 -0.229,-0.112 -0.407,-0.138 l -0.058,-0.009 -0.226,-0.019 -0.169,-0.011 -0.154,-0.06 C -4.651,-2.431 -4.74,-2.48 -4.863,-2.442 l -0.142,0.087 -0.085,0.058 c -0.059,0.022 -0.111,0.006 -0.178,-0.014 -0.076,-0.024 -0.171,-0.052 -0.278,-0.006 -0.147,0.064 -0.239,0.122 -0.329,0.259 l -0.072,0.095 c -0.061,0.073 -0.128,0.154 -0.128,0.268 0,0.017 0.003,0.036 0.006,0.054 -0.005,0.017 -0.012,0.033 -0.012,0.052 0,0.24 0.386,0.577 0.451,0.622 0.02,0.015 0.081,0.058 0.129,0.007 m -2.838,3.757 c 0.362,0.081 0.585,0.095 0.952,0.059 L -7.226,2.845 -6.889,2.801 -6.515,2.673 -6.316,2.596 C -6.261,2.574 -6.231,2.511 -6.253,2.455 -6.274,2.4 -6.334,2.371 -6.389,2.393 L -6.596,2.473 -6.941,2.592 -7.237,2.63 -7.408,2.642 C -7.753,2.676 -7.952,2.664 -8.292,2.587 -8.35,2.574 -8.408,2.611 -8.421,2.669 c -0.013,0.058 0.024,0.115 0.082,0.128 m 1.182,-2.772 c -0.059,-0.014 -0.117,0.021 -0.131,0.079 -0.014,0.057 0.021,0.116 0.079,0.13 l 0.388,0.094 0.269,0.041 0.14,0.015 c 0.059,0.006 0.115,-0.036 0.121,-0.095 0,-0.001 0,-0.002 0,-0.003 0.029,0.07 0.051,0.133 0.068,0.192 C -6.36,0.504 -6.454,0.477 -6.572,0.441 L -6.858,0.378 c 0,0 -0.158,-0.013 -0.299,-0.024 -0.051,-0.013 -0.104,-0.021 -0.159,-0.021 -0.013,0 -0.026,0.004 -0.039,0.004 -0.002,0 -0.007,0 -0.009,0 C -7.37,0.336 -7.377,0.335 -7.383,0.334 V 0.322 l -0.055,0.001 c -0.002,0 -0.004,0.001 -0.006,0.001 -0.214,-0.001 -0.608,0.07 -0.732,0.147 -0.248,0.157 -0.347,0.226 -0.372,0.296 -0.02,0.002 -0.04,0.007 -0.058,0.022 -0.019,0.015 -0.042,0.046 -0.037,0.099 l -0.002,-0.006 0.113,0.372 c 0.065,0.163 0.154,0.24 0.266,0.337 0.19,0.164 0.331,0.232 0.561,0.273 0.26,0.047 0.419,0.048 0.68,0.007 0.134,-0.022 0.244,-0.085 0.341,-0.14 0.116,-0.067 0.208,-0.12 0.312,-0.095 0,0 0.062,0.026 0.062,0.026 l 10e-4,0.022 c 0,0.03 0.001,0.094 0.069,0.132 0.115,0.064 0.286,-0.2 0.353,-0.316 l 0.097,-0.236 0.024,-0.08 0.012,-0.036 c 0,0 0.062,-0.306 0.062,-0.306 0.001,-0.128 0.001,-0.221 -0.054,-0.353 L -5.911,0.258 -6.071,0.139 -6.183,0.063 -6.227,0.015 c -0.036,-0.044 -0.087,-0.106 -0.181,-0.096 -0.063,0.008 -0.083,0.044 -0.09,0.064 -0.02,0.063 0.031,0.11 0.096,0.169 L -6.385,0.17 -6.533,0.155 -6.77,0.119 Z m 3.133,-4.788 c -0.094,-0.069 -0.143,-0.12 -0.143,-0.2 0,-0.005 0,-0.01 0,-0.014 l 0.062,-0.283 0.039,-0.166 -0.204,0.117 -0.21,0.092 -0.164,-0.004 -0.137,-0.014 c -0.369,-0.003 -0.524,0.142 -0.674,0.281 l -0.099,0.09 -0.04,0.036 0.016,0.046 c 0.02,0.058 0.063,0.056 0.207,0.05 l 0.073,-0.003 0.285,-0.049 0.18,-0.042 c 0.243,-0.038 0.278,-0.028 0.407,0.01 l 0.062,0.019 c 0.105,0.03 0.155,0.069 0.252,0.147 0.001,0.001 0.001,0.002 0.002,0.002 l 0.088,-0.113 c -10e-4,0 -10e-4,-10e-4 -0.003,-0.002 z m 1.357,0.768 C -2.735,-4.093 -2.862,-4.141 -3,-4.12 c -0.087,0.013 -0.162,0.052 -0.22,0.106 l -0.036,-0.042 c -0.151,-0.118 -0.363,-0.163 -0.613,-0.13 0,0 -0.227,0.033 -0.278,0.041 -0.021,-0.005 -0.042,-0.004 -0.059,10e-4 0,0 -0.02,0.006 -0.041,0.013 -0.069,0.019 -0.184,0.052 -0.184,0.052 -0.052,0.008 -0.087,-0.01 -0.146,-0.042 l -0.199,-0.065 -0.218,0.045 -0.149,0.038 -0.297,-0.03 -0.242,-0.035 -0.074,-0.005 c -0.161,-0.013 -0.288,-0.024 -0.462,0.049 -0.112,0.047 -0.182,0.101 -0.247,0.175 -0.095,-0.073 -0.22,-0.105 -0.355,-0.088 -0.053,0 -0.106,0.012 -0.16,0.035 l 0.057,0.131 v 0 c 0.033,-0.014 0.068,-0.016 0.103,-0.021 0.074,0 0.148,0.038 0.231,0.11 l -0.053,0.077 0.094,-0.026 c 0.026,0.04 0.041,0.084 0.041,0.14 0,0.043 -0.005,0.093 -0.012,0.149 l 0.14,0.03 0.023,-0.068 c 0.032,-0.095 0.064,-0.194 0.017,-0.309 l 0.159,-0.044 c 0.123,-0.018 0.188,-0.023 0.294,0.012 l 0.186,0.128 0.077,0.074 0.08,0.079 0.173,0.142 0.264,0.091 0.159,-0.014 0.073,-0.014 0.064,-0.015 c 0,0 0.047,-0.007 0.047,-0.007 l 0.169,0.046 c 0,0 -0.003,-0.005 -0.003,-0.006 0.003,0.001 0.006,0.003 0.01,0.004 -0.006,0.001 -0.009,0.007 -0.014,0.007 0,0 0.023,0.002 0.045,0.004 0.089,0.019 0.199,0.023 0.208,0.022 l 0.072,-0.004 c 0.067,-0.001 0.144,-0.003 0.217,-0.073 l 0.09,-0.098 0.226,-0.217 0.257,-0.124 c 0.062,-0.018 0.111,-0.021 0.163,-0.017 -0.011,0.048 -0.018,0.094 -0.018,0.133 0,0.129 0.055,0.201 0.115,0.247 10e-4,10e-4 0,10e-4 10e-4,0.002 l 10e-4,-10e-4 c 0.007,0.006 0.012,0.016 0.019,0.02 l 0.097,-0.102 c -0.047,-0.066 -0.026,-0.137 0.026,-0.251 l 0.097,0.024 -0.069,-0.08 c 0.037,-0.062 0.105,-0.068 0.244,-0.064 l 0.222,0.005 z m 0.564,3.963 c -0.022,-0.055 -0.079,-0.084 -0.134,-0.063 l -0.187,0.073 -0.293,0.09 -0.398,-0.013 -0.118,-0.016 c -0.059,-0.008 -0.112,0.033 -0.12,0.092 -0.007,0.059 0.035,0.113 0.094,0.121 l 0.115,0.016 0.456,0.013 0.348,-0.105 0.171,-0.067 c 0.056,-0.022 0.088,-0.086 0.066,-0.141 m 1.378,0.689 -0.06,-0.046 c 0,-0.003 0.001,-0.006 0.001,-0.008 L -0.778,0.545 -1.229,0.284 C -1.44,0.19 -1.602,0.193 -1.788,0.196 c 0,0 -0.117,0.002 -0.118,0.002 l -0.457,0.074 -0.265,0.062 -0.198,0.051 c -0.114,0.036 -0.189,0.06 -0.377,0.004 l -0.144,-0.044 0.005,0.15 c 0.002,0.056 0.007,0.104 0.012,0.153 L -3.523,0.371 -3.556,0.536 c -0.027,0.137 -0.028,0.229 -10e-4,0.378 0.033,0.191 0.14,0.289 0.254,0.393 l 0.086,0.081 c 0.166,0.163 0.3,0.22 0.487,0.29 0.295,0.109 0.49,0.105 0.804,0.099 0.21,-0.005 0.33,-0.033 0.538,-0.098 0.243,-0.077 0.358,-0.123 0.541,-0.407 0.102,-0.158 0.225,-0.535 0.122,-0.615"
             style="fill:#ffffff;fill-opacity:1;fill-rule:nonzero;stroke:none"
             id="path1521" />
        </g>
      </g>
    </g>
  </g>
</svg>
